<svg width="1625" height="207" viewBox="0 0 1625 207" fill="none" xmlns="http://www.w3.org/2000/svg">
<path d="M1386.14 150V147.452L1392.09 141.939C1392.6 141.449 1393.03 141.007 1393.37 140.615C1393.72 140.223 1393.98 139.839 1394.16 139.464C1394.34 139.083 1394.43 138.672 1394.43 138.23C1394.43 137.74 1394.32 137.318 1394.1 136.964C1393.87 136.605 1393.57 136.33 1393.18 136.14C1392.79 135.944 1392.36 135.846 1391.87 135.846C1391.35 135.846 1390.91 135.949 1390.53 136.156C1390.14 136.363 1389.85 136.66 1389.64 137.046C1389.44 137.433 1389.33 137.893 1389.33 138.426H1385.98C1385.98 137.332 1386.22 136.382 1386.72 135.576C1387.22 134.77 1387.91 134.147 1388.8 133.706C1389.7 133.265 1390.72 133.044 1391.89 133.044C1393.09 133.044 1394.13 133.256 1395.02 133.681C1395.91 134.1 1396.61 134.683 1397.1 135.429C1397.6 136.175 1397.84 137.03 1397.84 137.994C1397.84 138.625 1397.72 139.249 1397.47 139.864C1397.22 140.479 1396.79 141.163 1396.15 141.914C1395.52 142.66 1394.63 143.556 1393.48 144.601L1391.04 146.994V147.109H1398.06V150H1386.14ZM1406.87 150.229C1405.61 150.229 1404.49 150.025 1403.51 149.616C1402.54 149.202 1401.77 148.639 1401.22 147.925C1400.66 147.212 1400.38 146.404 1400.38 145.5C1400.38 144.803 1400.54 144.163 1400.86 143.58C1401.18 142.992 1401.61 142.505 1402.16 142.118C1402.71 141.726 1403.33 141.476 1404.01 141.367V141.252C1403.12 141.073 1402.39 140.64 1401.84 139.954C1401.28 139.262 1401 138.459 1401 137.544C1401 136.679 1401.26 135.908 1401.76 135.233C1402.27 134.552 1402.96 134.019 1403.85 133.632C1404.73 133.24 1405.74 133.044 1406.87 133.044C1407.99 133.044 1409 133.24 1409.88 133.632C1410.77 134.024 1411.47 134.56 1411.97 135.241C1412.48 135.916 1412.73 136.684 1412.74 137.544C1412.73 138.465 1412.45 139.268 1411.89 139.954C1411.33 140.64 1410.61 141.073 1409.73 141.252V141.367C1410.4 141.476 1411.01 141.726 1411.56 142.118C1412.11 142.505 1412.54 142.992 1412.86 143.58C1413.19 144.163 1413.36 144.803 1413.36 145.5C1413.36 146.404 1413.07 147.212 1412.52 147.925C1411.96 148.639 1411.2 149.202 1410.22 149.616C1409.24 150.025 1408.13 150.229 1406.87 150.229ZM1406.87 147.631C1407.43 147.631 1407.92 147.531 1408.34 147.329C1408.76 147.122 1409.08 146.839 1409.32 146.48C1409.56 146.115 1409.68 145.696 1409.68 145.222C1409.68 144.737 1409.55 144.31 1409.31 143.94C1409.06 143.564 1408.73 143.27 1408.31 143.058C1407.89 142.84 1407.41 142.731 1406.87 142.731C1406.33 142.731 1405.85 142.84 1405.42 143.058C1405 143.27 1404.66 143.564 1404.42 143.94C1404.18 144.31 1404.06 144.737 1404.06 145.222C1404.06 145.696 1404.17 146.115 1404.41 146.48C1404.64 146.839 1404.97 147.122 1405.4 147.329C1405.82 147.531 1406.31 147.631 1406.87 147.631ZM1406.87 140.158C1407.34 140.158 1407.75 140.063 1408.12 139.872C1408.48 139.682 1408.77 139.417 1408.97 139.08C1409.18 138.742 1409.28 138.353 1409.28 137.912C1409.28 137.476 1409.18 137.095 1408.97 136.768C1408.77 136.436 1408.48 136.178 1408.13 135.993C1407.77 135.802 1407.35 135.707 1406.87 135.707C1406.39 135.707 1405.97 135.802 1405.61 135.993C1405.24 136.178 1404.96 136.436 1404.75 136.768C1404.55 137.095 1404.45 137.476 1404.45 137.912C1404.45 138.353 1404.55 138.742 1404.76 139.08C1404.97 139.417 1405.25 139.682 1405.62 139.872C1405.98 140.063 1406.4 140.158 1406.87 140.158ZM1421.19 154.705V137.455H1424.62V139.562H1424.77C1424.93 139.224 1425.15 138.881 1425.44 138.533C1425.73 138.179 1426.11 137.885 1426.58 137.651C1427.05 137.411 1427.64 137.291 1428.34 137.291C1429.26 137.291 1430.1 137.531 1430.88 138.01C1431.65 138.484 1432.27 139.2 1432.73 140.158C1433.19 141.111 1433.42 142.306 1433.42 143.744C1433.42 145.143 1433.2 146.325 1432.75 147.288C1432.3 148.247 1431.69 148.974 1430.92 149.469C1430.15 149.959 1429.29 150.204 1428.34 150.204C1427.66 150.204 1427.09 150.093 1426.61 149.869C1426.14 149.646 1425.76 149.366 1425.46 149.028C1425.16 148.685 1424.93 148.339 1424.77 147.991H1424.67V154.705H1421.19ZM1424.6 143.727C1424.6 144.473 1424.7 145.124 1424.91 145.679C1425.11 146.235 1425.41 146.668 1425.8 146.978C1426.2 147.283 1426.67 147.435 1427.23 147.435C1427.8 147.435 1428.28 147.28 1428.67 146.97C1429.06 146.654 1429.36 146.218 1429.56 145.663C1429.77 145.102 1429.87 144.457 1429.87 143.727C1429.87 143.003 1429.77 142.366 1429.57 141.816C1429.37 141.266 1429.07 140.836 1428.68 140.526C1428.29 140.215 1427.81 140.06 1427.23 140.06C1426.67 140.06 1426.19 140.21 1425.8 140.509C1425.41 140.809 1425.11 141.233 1424.91 141.783C1424.7 142.333 1424.6 142.981 1424.6 143.727ZM1441.46 150.245C1440.17 150.245 1439.06 149.984 1438.13 149.461C1437.2 148.933 1436.49 148.187 1435.99 147.223C1435.49 146.254 1435.24 145.108 1435.24 143.784C1435.24 142.494 1435.49 141.361 1435.99 140.387C1436.49 139.412 1437.2 138.652 1438.1 138.108C1439.02 137.563 1440.09 137.291 1441.32 137.291C1442.15 137.291 1442.92 137.425 1443.63 137.691C1444.35 137.953 1444.98 138.348 1445.51 138.876C1446.05 139.404 1446.47 140.068 1446.77 140.869C1447.07 141.664 1447.22 142.595 1447.22 143.662V144.618H1436.63V142.461H1443.94C1443.94 141.96 1443.84 141.517 1443.62 141.13C1443.4 140.743 1443.1 140.441 1442.71 140.223C1442.33 140 1441.89 139.888 1441.38 139.888C1440.85 139.888 1440.38 140.011 1439.97 140.256C1439.57 140.496 1439.26 140.82 1439.03 141.228C1438.8 141.631 1438.68 142.08 1438.68 142.576V144.626C1438.68 145.246 1438.79 145.783 1439.02 146.235C1439.25 146.687 1439.58 147.035 1440.01 147.28C1440.43 147.525 1440.94 147.648 1441.52 147.648C1441.91 147.648 1442.26 147.593 1442.58 147.484C1442.9 147.375 1443.18 147.212 1443.41 146.994C1443.63 146.777 1443.81 146.51 1443.93 146.194L1447.15 146.406C1446.98 147.179 1446.65 147.855 1446.14 148.432C1445.64 149.004 1444.99 149.45 1444.2 149.771C1443.41 150.087 1442.5 150.245 1441.46 150.245ZM1449.49 150V137.455H1452.86V139.643H1452.99C1453.22 138.865 1453.61 138.277 1454.15 137.879C1454.68 137.476 1455.31 137.275 1456.01 137.275C1456.18 137.275 1456.37 137.286 1456.57 137.308C1456.77 137.329 1456.95 137.359 1457.1 137.397V140.485C1456.94 140.436 1456.71 140.392 1456.42 140.354C1456.14 140.316 1455.87 140.297 1455.63 140.297C1455.12 140.297 1454.66 140.408 1454.26 140.632C1453.86 140.85 1453.55 141.154 1453.31 141.547C1453.08 141.939 1452.97 142.391 1452.97 142.902V150H1449.49ZM1471.47 133.273V150H1467.93V136.63H1467.83L1464 139.031V135.895L1468.14 133.273H1471.47ZM1482 150.368C1480.6 150.362 1479.39 150.016 1478.38 149.33C1477.37 148.644 1476.59 147.65 1476.05 146.349C1475.51 145.048 1475.24 143.482 1475.25 141.653C1475.25 139.829 1475.52 138.274 1476.06 136.989C1476.6 135.704 1477.38 134.727 1478.39 134.057C1479.4 133.382 1480.6 133.044 1482 133.044C1483.4 133.044 1484.61 133.382 1485.61 134.057C1486.63 134.732 1487.4 135.712 1487.95 136.997C1488.49 138.277 1488.76 139.829 1488.76 141.653C1488.76 143.488 1488.49 145.056 1487.94 146.357C1487.4 147.659 1486.63 148.652 1485.62 149.338C1484.61 150.025 1483.41 150.368 1482 150.368ZM1482 147.435C1482.96 147.435 1483.73 146.953 1484.3 145.99C1484.87 145.026 1485.15 143.58 1485.15 141.653C1485.15 140.384 1485.02 139.328 1484.76 138.484C1484.5 137.64 1484.14 137.005 1483.66 136.581C1483.19 136.156 1482.64 135.944 1482 135.944C1481.05 135.944 1480.29 136.42 1479.72 137.373C1479.14 138.326 1478.86 139.752 1478.85 141.653C1478.85 142.938 1478.98 144.01 1479.23 144.871C1479.5 145.726 1479.86 146.368 1480.34 146.798C1480.81 147.223 1481.37 147.435 1482 147.435ZM1497.84 150.368C1496.43 150.362 1495.22 150.016 1494.21 149.33C1493.2 148.644 1492.43 147.65 1491.88 146.349C1491.34 145.048 1491.08 143.482 1491.08 141.653C1491.08 139.829 1491.35 138.274 1491.89 136.989C1492.44 135.704 1493.21 134.727 1494.22 134.057C1495.23 133.382 1496.44 133.044 1497.84 133.044C1499.24 133.044 1500.44 133.382 1501.45 134.057C1502.46 134.732 1503.24 135.712 1503.78 136.997C1504.33 138.277 1504.6 139.829 1504.59 141.653C1504.59 143.488 1504.32 145.056 1503.78 146.357C1503.24 147.659 1502.46 148.652 1501.46 149.338C1500.45 150.025 1499.24 150.368 1497.84 150.368ZM1497.84 147.435C1498.8 147.435 1499.56 146.953 1500.13 145.99C1500.71 145.026 1500.99 143.58 1500.98 141.653C1500.98 140.384 1500.85 139.328 1500.59 138.484C1500.33 137.64 1499.97 137.005 1499.5 136.581C1499.03 136.156 1498.48 135.944 1497.84 135.944C1496.89 135.944 1496.12 136.42 1495.55 137.373C1494.98 138.326 1494.69 139.752 1494.69 141.653C1494.69 142.938 1494.81 144.01 1495.07 144.871C1495.33 145.726 1495.7 146.368 1496.17 146.798C1496.65 147.223 1497.2 147.435 1497.84 147.435ZM1513.67 150.368C1512.27 150.362 1511.06 150.016 1510.05 149.33C1509.04 148.644 1508.26 147.65 1507.72 146.349C1507.18 145.048 1506.91 143.482 1506.92 141.653C1506.92 139.829 1507.19 138.274 1507.73 136.989C1508.27 135.704 1509.05 134.727 1510.05 134.057C1511.07 133.382 1512.27 133.044 1513.67 133.044C1515.07 133.044 1516.28 133.382 1517.28 134.057C1518.3 134.732 1519.07 135.712 1519.62 136.997C1520.16 138.277 1520.43 139.829 1520.43 141.653C1520.43 143.488 1520.16 145.056 1519.61 146.357C1519.07 147.659 1518.3 148.652 1517.29 149.338C1516.28 150.025 1515.08 150.368 1513.67 150.368ZM1513.67 147.435C1514.63 147.435 1515.4 146.953 1515.97 145.99C1516.54 145.026 1516.82 143.58 1516.82 141.653C1516.82 140.384 1516.69 139.328 1516.43 138.484C1516.17 137.64 1515.8 137.005 1515.33 136.581C1514.86 136.156 1514.31 135.944 1513.67 135.944C1512.72 135.944 1511.96 136.42 1511.39 137.373C1510.81 138.326 1510.53 139.752 1510.52 141.653C1510.52 142.938 1510.65 144.01 1510.9 144.871C1511.17 145.726 1511.53 146.368 1512.01 146.798C1512.48 147.223 1513.04 147.435 1513.67 147.435ZM1387.23 179.636C1387.23 177.578 1387.5 175.686 1388.03 173.96C1388.57 172.228 1389.34 170.636 1390.34 169.182H1392.04C1391.64 169.721 1391.28 170.385 1390.93 171.175C1390.6 171.959 1390.3 172.822 1390.04 173.764C1389.79 174.7 1389.59 175.67 1389.44 176.672C1389.3 177.673 1389.23 178.662 1389.23 179.636C1389.23 180.932 1389.35 182.247 1389.6 183.581C1389.85 184.915 1390.19 186.154 1390.62 187.298C1391.04 188.441 1391.51 189.372 1392.04 190.091H1390.34C1389.34 188.637 1388.57 187.047 1388.03 185.321C1387.5 183.589 1387.23 181.695 1387.23 179.636ZM1394.85 188V186.53L1400.37 180.486C1401.02 179.778 1401.55 179.163 1401.97 178.64C1402.39 178.112 1402.7 177.616 1402.9 177.153C1403.11 176.685 1403.21 176.195 1403.21 175.683C1403.21 175.095 1403.07 174.586 1402.79 174.156C1402.51 173.726 1402.13 173.394 1401.64 173.159C1401.16 172.925 1400.62 172.808 1400.01 172.808C1399.37 172.808 1398.81 172.942 1398.33 173.208C1397.85 173.47 1397.49 173.837 1397.23 174.311C1396.97 174.785 1396.84 175.34 1396.84 175.977H1394.91C1394.91 174.997 1395.14 174.137 1395.59 173.396C1396.04 172.656 1396.66 172.079 1397.44 171.665C1398.22 171.251 1399.1 171.044 1400.08 171.044C1401.06 171.044 1401.92 171.251 1402.68 171.665C1403.44 172.079 1404.03 172.637 1404.46 173.339C1404.89 174.042 1405.11 174.823 1405.11 175.683C1405.11 176.299 1405 176.9 1404.77 177.488C1404.55 178.071 1404.17 178.722 1403.63 179.44C1403.09 180.154 1402.34 181.025 1401.38 182.054L1397.63 186.072V186.203H1405.4V188H1394.85ZM1414.23 188.229C1413 188.229 1411.95 187.894 1411.09 187.224C1410.22 186.549 1409.56 185.571 1409.1 184.292C1408.64 183.007 1408.42 181.455 1408.42 179.636C1408.42 177.829 1408.64 176.285 1409.1 175.005C1409.56 173.72 1410.23 172.74 1411.09 172.065C1411.97 171.384 1413.01 171.044 1414.23 171.044C1415.45 171.044 1416.49 171.384 1417.36 172.065C1418.23 172.74 1418.89 173.72 1419.35 175.005C1419.81 176.285 1420.05 177.829 1420.05 179.636C1420.05 181.455 1419.82 183.007 1419.36 184.292C1418.9 185.571 1418.24 186.549 1417.38 187.224C1416.51 187.894 1415.46 188.229 1414.23 188.229ZM1414.23 186.432C1415.45 186.432 1416.4 185.844 1417.07 184.668C1417.75 183.491 1418.09 181.814 1418.09 179.636C1418.09 178.188 1417.93 176.955 1417.62 175.936C1417.32 174.918 1416.87 174.142 1416.3 173.609C1415.73 173.075 1415.04 172.808 1414.23 172.808C1413.02 172.808 1412.08 173.404 1411.4 174.597C1410.72 175.784 1410.38 177.464 1410.38 179.636C1410.38 181.085 1410.53 182.315 1410.83 183.328C1411.14 184.341 1411.58 185.111 1412.15 185.64C1412.72 186.168 1413.42 186.432 1414.23 186.432ZM1423.15 188V186.53L1428.67 180.486C1429.32 179.778 1429.85 179.163 1430.27 178.64C1430.69 178.112 1431 177.616 1431.2 177.153C1431.41 176.685 1431.51 176.195 1431.51 175.683C1431.51 175.095 1431.37 174.586 1431.09 174.156C1430.81 173.726 1430.43 173.394 1429.94 173.159C1429.46 172.925 1428.92 172.808 1428.31 172.808C1427.67 172.808 1427.11 172.942 1426.63 173.208C1426.16 173.47 1425.79 173.837 1425.53 174.311C1425.27 174.785 1425.14 175.34 1425.14 175.977H1423.21C1423.21 174.997 1423.44 174.137 1423.89 173.396C1424.34 172.656 1424.96 172.079 1425.74 171.665C1426.52 171.251 1427.4 171.044 1428.38 171.044C1429.36 171.044 1430.23 171.251 1430.98 171.665C1431.74 172.079 1432.33 172.637 1432.76 173.339C1433.19 174.042 1433.41 174.823 1433.41 175.683C1433.41 176.299 1433.3 176.9 1433.07 177.488C1432.86 178.071 1432.47 178.722 1431.93 179.44C1431.39 180.154 1430.64 181.025 1429.68 182.054L1425.93 186.072V186.203H1433.7V188H1423.15ZM1442.53 188.229C1441.3 188.229 1440.25 187.894 1439.39 187.224C1438.52 186.549 1437.86 185.571 1437.4 184.292C1436.94 183.007 1436.72 181.455 1436.72 179.636C1436.72 177.829 1436.94 176.285 1437.4 175.005C1437.86 173.72 1438.53 172.74 1439.39 172.065C1440.27 171.384 1441.31 171.044 1442.53 171.044C1443.75 171.044 1444.79 171.384 1445.66 172.065C1446.53 172.74 1447.19 173.72 1447.65 175.005C1448.12 176.285 1448.35 177.829 1448.35 179.636C1448.35 181.455 1448.12 183.007 1447.66 184.292C1447.2 185.571 1446.54 186.549 1445.68 187.224C1444.81 187.894 1443.76 188.229 1442.53 188.229ZM1442.53 186.432C1443.75 186.432 1444.7 185.844 1445.37 184.668C1446.05 183.491 1446.39 181.814 1446.39 179.636C1446.39 178.188 1446.23 176.955 1445.92 175.936C1445.62 174.918 1445.17 174.142 1444.6 173.609C1444.03 173.075 1443.34 172.808 1442.53 172.808C1441.32 172.808 1440.38 173.404 1439.7 174.597C1439.02 175.784 1438.68 177.464 1438.68 179.636C1438.68 181.085 1438.83 182.315 1439.13 183.328C1439.44 184.341 1439.88 185.111 1440.45 185.64C1441.03 186.168 1441.72 186.432 1442.53 186.432ZM1455.6 179.636C1455.6 181.695 1455.33 183.589 1454.79 185.321C1454.26 187.047 1453.49 188.637 1452.5 190.091H1450.8C1451.19 189.552 1451.55 188.888 1451.89 188.098C1452.23 187.314 1452.53 186.454 1452.79 185.517C1453.05 184.575 1453.24 183.603 1453.39 182.601C1453.53 181.594 1453.61 180.606 1453.61 179.636C1453.61 178.34 1453.48 177.025 1453.23 175.691C1452.98 174.357 1452.64 173.119 1452.22 171.975C1451.79 170.832 1451.32 169.901 1450.8 169.182H1452.5C1453.49 170.636 1454.26 172.228 1454.79 173.96C1455.33 175.686 1455.6 177.578 1455.6 179.636Z" fill="black"/>
<path d="M16.1026 136.06V133.275L23.0859 122.273H25.4872V126.128H24.0661L19.6637 133.095V133.225H29.5874V136.06H16.1026ZM24.1314 139V135.21L24.1967 133.977V122.273H27.5128V139H24.1314ZM38.5023 139.368C37.0975 139.362 35.8887 139.016 34.8759 138.33C33.8685 137.644 33.0926 136.65 32.5481 135.349C32.0091 134.048 31.7422 132.482 31.7477 130.653C31.7477 128.829 32.0172 127.274 32.5563 125.989C33.1008 124.704 33.8767 123.727 34.8841 123.057C35.8968 122.382 37.1029 122.044 38.5023 122.044C39.9017 122.044 41.1051 122.382 42.1124 123.057C43.1252 123.732 43.9038 124.712 44.4483 125.997C44.9928 127.277 45.2624 128.829 45.2569 130.653C45.2569 132.488 44.9847 134.056 44.4402 135.357C43.9011 136.659 43.1279 137.652 42.1206 138.338C41.1132 139.025 39.9071 139.368 38.5023 139.368ZM38.5023 136.435C39.4606 136.435 40.2257 135.953 40.7974 134.99C41.3691 134.026 41.6523 132.58 41.6468 130.653C41.6468 129.384 41.5162 128.328 41.2548 127.484C40.9989 126.64 40.6341 126.005 40.1603 125.581C39.6921 125.156 39.1394 124.944 38.5023 124.944C37.5494 124.944 36.7871 125.42 36.2154 126.373C35.6436 127.326 35.3551 128.752 35.3496 130.653C35.3496 131.938 35.4776 133.01 35.7335 133.871C35.9949 134.726 36.3624 135.368 36.8361 135.798C37.3098 136.223 37.8652 136.435 38.5023 136.435ZM54.3373 139.368C52.9324 139.362 51.7236 139.016 50.7108 138.33C49.7035 137.644 48.9276 136.65 48.3831 135.349C47.844 134.048 47.5772 132.482 47.5827 130.653C47.5827 128.829 47.8522 127.274 48.3912 125.989C48.9358 124.704 49.7117 123.727 50.719 123.057C51.7318 122.382 52.9379 122.044 54.3373 122.044C55.7367 122.044 56.94 122.382 57.9474 123.057C58.9601 123.732 59.7388 124.712 60.2833 125.997C60.8278 127.277 61.0973 128.829 61.0919 130.653C61.0919 132.488 60.8196 134.056 60.2751 135.357C59.7361 136.659 58.9629 137.652 57.9555 138.338C56.9482 139.025 55.7421 139.368 54.3373 139.368ZM54.3373 136.435C55.2956 136.435 56.0606 135.953 56.6324 134.99C57.2041 134.026 57.4872 132.58 57.4818 130.653C57.4818 129.384 57.3511 128.328 57.0898 127.484C56.8338 126.64 56.469 126.005 55.9953 125.581C55.527 125.156 54.9743 124.944 54.3373 124.944C53.3844 124.944 52.6221 125.42 52.0503 126.373C51.4786 127.326 51.19 128.752 51.1846 130.653C51.1846 131.938 51.3125 133.01 51.5684 133.871C51.8298 134.726 52.1974 135.368 52.6711 135.798C53.1448 136.223 53.7002 136.435 54.3373 136.435ZM68.9695 143.705V126.455H72.3999V128.562H72.5551C72.7076 128.224 72.9281 127.881 73.2167 127.533C73.5107 127.179 73.8919 126.885 74.3602 126.651C74.8339 126.411 75.422 126.291 76.1244 126.291C77.0392 126.291 77.8831 126.531 78.6563 127.01C79.4295 127.484 80.0476 128.2 80.5104 129.158C80.9732 130.111 81.2046 131.306 81.2046 132.744C81.2046 134.143 80.9787 135.325 80.5267 136.288C80.0802 137.247 79.4704 137.974 78.6972 138.469C77.9294 138.959 77.0691 139.204 76.1162 139.204C75.441 139.204 74.8666 139.093 74.3928 138.869C73.9246 138.646 73.5407 138.366 73.2412 138.028C72.9417 137.685 72.713 137.339 72.5551 136.991H72.449V143.705H68.9695ZM72.3754 132.727C72.3754 133.473 72.4789 134.124 72.6858 134.679C72.8927 135.235 73.1922 135.668 73.5843 135.978C73.9763 136.283 74.4527 136.435 75.0136 136.435C75.5799 136.435 76.059 136.28 76.4511 135.97C76.8431 135.654 77.1399 135.218 77.3414 134.663C77.5483 134.102 77.6517 133.457 77.6517 132.727C77.6517 132.003 77.551 131.366 77.3495 130.816C77.1481 130.266 76.8513 129.836 76.4593 129.526C76.0672 129.215 75.5853 129.06 75.0136 129.06C74.4473 129.06 73.9681 129.21 73.5761 129.509C73.1895 129.809 72.8927 130.233 72.6858 130.783C72.4789 131.333 72.3754 131.981 72.3754 132.727ZM89.2416 139.245C87.9511 139.245 86.8403 138.984 85.9092 138.461C84.9835 137.933 84.2702 137.187 83.7693 136.223C83.2683 135.254 83.0178 134.108 83.0178 132.784C83.0178 131.494 83.2683 130.361 83.7693 129.387C84.2702 128.412 84.9753 127.652 85.8847 127.108C86.7994 126.563 87.8721 126.291 89.1027 126.291C89.9304 126.291 90.7008 126.425 91.4142 126.691C92.1329 126.953 92.7591 127.348 93.2927 127.876C93.8318 128.404 94.251 129.068 94.5505 129.869C94.85 130.664 94.9997 131.595 94.9997 132.662V133.618H84.4063V131.461H91.7245C91.7245 130.96 91.6156 130.517 91.3978 130.13C91.18 129.743 90.8778 129.441 90.4912 129.223C90.1101 129 89.6663 128.888 89.1599 128.888C88.6317 128.888 88.1634 129.011 87.7551 129.256C87.3521 129.496 87.0363 129.82 86.8076 130.228C86.5789 130.631 86.4619 131.08 86.4564 131.576V133.626C86.4564 134.246 86.5708 134.783 86.7994 135.235C87.0336 135.687 87.363 136.035 87.7877 136.28C88.2124 136.525 88.7161 136.648 89.2987 136.648C89.6853 136.648 90.0393 136.593 90.3605 136.484C90.6818 136.375 90.9568 136.212 91.1855 135.994C91.4142 135.777 91.5884 135.51 91.7082 135.194L94.9262 135.406C94.7629 136.179 94.428 136.855 93.9216 137.432C93.4207 138.004 92.7727 138.45 91.9777 138.771C91.1882 139.087 90.2761 139.245 89.2416 139.245ZM97.2703 139V126.455H100.644V128.643H100.774C101.003 127.865 101.387 127.277 101.926 126.879C102.465 126.476 103.086 126.275 103.788 126.275C103.962 126.275 104.15 126.286 104.352 126.308C104.553 126.329 104.73 126.359 104.883 126.397V129.485C104.719 129.436 104.493 129.392 104.205 129.354C103.916 129.316 103.652 129.297 103.412 129.297C102.901 129.297 102.443 129.408 102.04 129.632C101.643 129.85 101.327 130.154 101.093 130.547C100.864 130.939 100.75 131.391 100.75 131.902V139H97.2703ZM119.249 122.273V139H115.713V125.63H115.615L111.784 128.031V124.895L115.925 122.273H119.249ZM126.141 136.713L126.051 137.612C125.98 138.33 125.844 139.046 125.643 139.76C125.447 140.478 125.24 141.129 125.022 141.712C124.809 142.294 124.638 142.752 124.507 143.084H122.253C122.335 142.763 122.446 142.313 122.588 141.736C122.729 141.164 122.863 140.522 122.988 139.809C123.113 139.095 123.192 138.368 123.225 137.628L123.266 136.713H126.141ZM135.174 139.368C133.769 139.362 132.561 139.016 131.548 138.33C130.54 137.644 129.765 136.65 129.22 135.349C128.681 134.048 128.414 132.482 128.42 130.653C128.42 128.829 128.689 127.274 129.228 125.989C129.773 124.704 130.549 123.727 131.556 123.057C132.569 122.382 133.775 122.044 135.174 122.044C136.574 122.044 137.777 122.382 138.784 123.057C139.797 123.732 140.576 124.712 141.12 125.997C141.665 127.277 141.934 128.829 141.929 130.653C141.929 132.488 141.657 134.056 141.112 135.357C140.573 136.659 139.8 137.652 138.792 138.338C137.785 139.025 136.579 139.368 135.174 139.368ZM135.174 136.435C136.133 136.435 136.898 135.953 137.469 134.99C138.041 134.026 138.324 132.58 138.319 130.653C138.319 129.384 138.188 128.328 137.927 127.484C137.671 126.64 137.306 126.005 136.832 125.581C136.364 125.156 135.811 124.944 135.174 124.944C134.221 124.944 133.459 125.42 132.887 126.373C132.316 127.326 132.027 128.752 132.021 130.653C132.021 131.938 132.149 133.01 132.405 133.871C132.667 134.726 133.034 135.368 133.508 135.798C133.982 136.223 134.537 136.435 135.174 136.435ZM151.009 139.368C149.604 139.362 148.396 139.016 147.383 138.33C146.375 137.644 145.599 136.65 145.055 135.349C144.516 134.048 144.249 132.482 144.255 130.653C144.255 128.829 144.524 127.274 145.063 125.989C145.608 124.704 146.384 123.727 147.391 123.057C148.404 122.382 149.61 122.044 151.009 122.044C152.409 122.044 153.612 122.382 154.619 123.057C155.632 123.732 156.411 124.712 156.955 125.997C157.5 127.277 157.769 128.829 157.764 130.653C157.764 132.488 157.492 134.056 156.947 135.357C156.408 136.659 155.635 137.652 154.627 138.338C153.62 139.025 152.414 139.368 151.009 139.368ZM151.009 136.435C151.967 136.435 152.733 135.953 153.304 134.99C153.876 134.026 154.159 132.58 154.154 130.653C154.154 129.384 154.023 128.328 153.762 127.484C153.506 126.64 153.141 126.005 152.667 125.581C152.199 125.156 151.646 124.944 151.009 124.944C150.056 124.944 149.294 125.42 148.722 126.373C148.15 127.326 147.862 128.752 147.856 130.653C147.856 131.938 147.984 133.01 148.24 133.871C148.502 134.726 148.869 135.368 149.343 135.798C149.817 136.223 150.372 136.435 151.009 136.435ZM166.844 139.368C165.439 139.362 164.23 139.016 163.218 138.33C162.21 137.644 161.434 136.65 160.89 135.349C160.351 134.048 160.084 132.482 160.089 130.653C160.089 128.829 160.359 127.274 160.898 125.989C161.443 124.704 162.219 123.727 163.226 123.057C164.239 122.382 165.445 122.044 166.844 122.044C168.243 122.044 169.447 122.382 170.454 123.057C171.467 123.732 172.246 124.712 172.79 125.997C173.335 127.277 173.604 128.829 173.599 130.653C173.599 132.488 173.326 134.056 172.782 135.357C172.243 136.659 171.47 137.652 170.462 138.338C169.455 139.025 168.249 139.368 166.844 139.368ZM166.844 136.435C167.802 136.435 168.567 135.953 169.139 134.99C169.711 134.026 169.994 132.58 169.989 130.653C169.989 129.384 169.858 128.328 169.597 127.484C169.341 126.64 168.976 126.005 168.502 125.581C168.034 125.156 167.481 124.944 166.844 124.944C165.891 124.944 165.129 125.42 164.557 126.373C163.985 127.326 163.697 128.752 163.691 130.653C163.691 131.938 163.819 133.01 164.075 133.871C164.337 134.726 164.704 135.368 165.178 135.798C165.652 136.223 166.207 136.435 166.844 136.435ZM17.4503 168.636C17.4503 166.578 17.7171 164.686 18.2507 162.96C18.7898 161.228 19.5575 159.636 20.554 158.182H22.2528C21.8608 158.721 21.4933 159.385 21.1502 160.175C20.8126 160.959 20.5159 161.822 20.2599 162.764C20.004 163.7 19.8026 164.67 19.6555 165.672C19.514 166.673 19.4432 167.662 19.4432 168.636C19.4432 169.932 19.5684 171.247 19.8189 172.581C20.0694 173.915 20.407 175.154 20.8317 176.298C21.2564 177.441 21.7301 178.372 22.2528 179.091H20.554C19.5575 177.637 18.7898 176.047 18.2507 174.321C17.7171 172.589 17.4503 170.695 17.4503 168.636ZM30.9452 160.273V177H28.9197V162.396H28.8216L24.7378 165.108V163.05L28.9197 160.273H30.9452ZM41.2119 177.229C39.9813 177.229 38.9332 176.894 38.0674 176.224C37.2016 175.549 36.54 174.571 36.0827 173.292C35.6253 172.007 35.3966 170.455 35.3966 168.636C35.3966 166.829 35.6253 165.285 36.0827 164.005C36.5455 162.72 37.2098 161.74 38.0756 161.065C38.9468 160.384 39.9922 160.044 41.2119 160.044C42.4316 160.044 43.4743 160.384 44.3401 161.065C45.2113 161.74 45.8756 162.72 46.333 164.005C46.7958 165.285 47.0273 166.829 47.0273 168.636C47.0273 170.455 46.7986 172.007 46.3412 173.292C45.8838 174.571 45.2222 175.549 44.3564 176.224C43.4907 176.894 42.4425 177.229 41.2119 177.229ZM41.2119 175.432C42.4316 175.432 43.3791 174.844 44.0542 173.668C44.7294 172.491 45.067 170.814 45.067 168.636C45.067 167.188 44.9118 165.955 44.6015 164.936C44.2965 163.918 43.8555 163.142 43.2783 162.609C42.7066 162.075 42.0178 161.808 41.2119 161.808C40.0031 161.808 39.0584 162.404 38.3778 163.597C37.6971 164.784 37.3568 166.464 37.3568 168.636C37.3568 170.085 37.5093 171.315 37.8142 172.328C38.1191 173.341 38.5574 174.111 39.1292 174.64C39.7064 175.168 40.4006 175.432 41.2119 175.432ZM55.5869 177.229C54.3563 177.229 53.3082 176.894 52.4424 176.224C51.5766 175.549 50.915 174.571 50.4577 173.292C50.0003 172.007 49.7716 170.455 49.7716 168.636C49.7716 166.829 50.0003 165.285 50.4577 164.005C50.9205 162.72 51.5848 161.74 52.4506 161.065C53.3218 160.384 54.3672 160.044 55.5869 160.044C56.8066 160.044 57.8493 160.384 58.7151 161.065C59.5863 161.74 60.2506 162.72 60.708 164.005C61.1708 165.285 61.4023 166.829 61.4023 168.636C61.4023 170.455 61.1736 172.007 60.7162 173.292C60.2588 174.571 59.5972 175.549 58.7314 176.224C57.8657 176.894 56.8175 177.229 55.5869 177.229ZM55.5869 175.432C56.8066 175.432 57.7541 174.844 58.4292 173.668C59.1044 172.491 59.442 170.814 59.442 168.636C59.442 167.188 59.2868 165.955 58.9765 164.936C58.6715 163.918 58.2305 163.142 57.6533 162.609C57.0816 162.075 56.3928 161.808 55.5869 161.808C54.3781 161.808 53.4334 162.404 52.7528 163.597C52.0721 164.784 51.7318 166.464 51.7318 168.636C51.7318 170.085 51.8843 171.315 52.1892 172.328C52.4941 173.341 52.9324 174.111 53.5042 174.64C54.0814 175.168 54.7756 175.432 55.5869 175.432ZM69.9619 177.229C68.7313 177.229 67.6832 176.894 66.8174 176.224C65.9516 175.549 65.29 174.571 64.8327 173.292C64.3753 172.007 64.1466 170.455 64.1466 168.636C64.1466 166.829 64.3753 165.285 64.8327 164.005C65.2955 162.72 65.9598 161.74 66.8256 161.065C67.6968 160.384 68.7422 160.044 69.9619 160.044C71.1816 160.044 72.2243 160.384 73.0901 161.065C73.9613 161.74 74.6256 162.72 75.083 164.005C75.5458 165.285 75.7773 166.829 75.7773 168.636C75.7773 170.455 75.5486 172.007 75.0912 173.292C74.6338 174.571 73.9722 175.549 73.1064 176.224C72.2407 176.894 71.1925 177.229 69.9619 177.229ZM69.9619 175.432C71.1816 175.432 72.1291 174.844 72.8042 173.668C73.4794 172.491 73.817 170.814 73.817 168.636C73.817 167.188 73.6618 165.955 73.3515 164.936C73.0465 163.918 72.6055 163.142 72.0283 162.609C71.4566 162.075 70.7678 161.808 69.9619 161.808C68.7531 161.808 67.8084 162.404 67.1278 163.597C66.4471 164.784 66.1068 166.464 66.1068 168.636C66.1068 170.085 66.2593 171.315 66.5642 172.328C66.8691 173.341 67.3074 174.111 67.8792 174.64C68.4564 175.168 69.1506 175.432 69.9619 175.432ZM84.3369 177.229C83.1063 177.229 82.0582 176.894 81.1924 176.224C80.3266 175.549 79.665 174.571 79.2077 173.292C78.7503 172.007 78.5216 170.455 78.5216 168.636C78.5216 166.829 78.7503 165.285 79.2077 164.005C79.6705 162.72 80.3348 161.74 81.2006 161.065C82.0718 160.384 83.1172 160.044 84.3369 160.044C85.5566 160.044 86.5993 160.384 87.4651 161.065C88.3363 161.74 89.0006 162.72 89.458 164.005C89.9208 165.285 90.1523 166.829 90.1523 168.636C90.1523 170.455 89.9236 172.007 89.4662 173.292C89.0088 174.571 88.3472 175.549 87.4814 176.224C86.6157 176.894 85.5675 177.229 84.3369 177.229ZM84.3369 175.432C85.5566 175.432 86.5041 174.844 87.1792 173.668C87.8544 172.491 88.192 170.814 88.192 168.636C88.192 167.188 88.0368 165.955 87.7265 164.936C87.4215 163.918 86.9805 163.142 86.4033 162.609C85.8316 162.075 85.1428 161.808 84.3369 161.808C83.1281 161.808 82.1834 162.404 81.5028 163.597C80.8221 164.784 80.4818 166.464 80.4818 168.636C80.4818 170.085 80.6343 171.315 80.9392 172.328C81.2441 173.341 81.6824 174.111 82.2542 174.64C82.8314 175.168 83.5256 175.432 84.3369 175.432ZM100.019 177V160.273H105.867C107.032 160.273 107.993 160.474 108.75 160.877C109.507 161.275 110.07 161.811 110.441 162.486C110.811 163.156 110.996 163.899 110.996 164.716C110.996 165.435 110.868 166.028 110.612 166.496C110.362 166.965 110.03 167.335 109.616 167.607C109.207 167.879 108.764 168.081 108.284 168.212V168.375C108.796 168.408 109.311 168.587 109.828 168.914C110.345 169.241 110.778 169.709 111.127 170.319C111.475 170.929 111.649 171.675 111.649 172.557C111.649 173.395 111.459 174.15 111.078 174.819C110.697 175.489 110.095 176.02 109.273 176.412C108.45 176.804 107.38 177 106.063 177H100.019ZM102.044 175.203H106.063C107.386 175.203 108.325 174.947 108.881 174.435C109.441 173.918 109.722 173.292 109.722 172.557C109.722 171.991 109.578 171.468 109.289 170.989C109 170.504 108.589 170.117 108.056 169.829C107.522 169.535 106.89 169.388 106.161 169.388H102.044V175.203ZM102.044 167.624H105.801C106.411 167.624 106.961 167.504 107.451 167.264C107.947 167.025 108.339 166.687 108.627 166.251C108.921 165.816 109.068 165.304 109.068 164.716C109.068 163.981 108.813 163.357 108.301 162.846C107.789 162.328 106.978 162.07 105.867 162.07H102.044V167.624ZM128.438 165.5H126.412C126.293 164.917 126.083 164.406 125.783 163.964C125.489 163.523 125.13 163.153 124.705 162.854C124.286 162.549 123.821 162.32 123.309 162.168C122.797 162.015 122.263 161.939 121.708 161.939C120.695 161.939 119.778 162.195 118.955 162.707C118.139 163.219 117.488 163.973 117.003 164.969C116.524 165.966 116.285 167.188 116.285 168.636C116.285 170.085 116.524 171.307 117.003 172.304C117.488 173.3 118.139 174.054 118.955 174.566C119.778 175.078 120.695 175.334 121.708 175.334C122.263 175.334 122.797 175.258 123.309 175.105C123.821 174.953 124.286 174.727 124.705 174.427C125.13 174.122 125.489 173.749 125.783 173.308C126.083 172.862 126.293 172.35 126.412 171.773H128.438C128.285 172.628 128.008 173.393 127.605 174.068C127.202 174.743 126.701 175.317 126.102 175.791C125.503 176.259 124.831 176.616 124.085 176.861C123.344 177.106 122.552 177.229 121.708 177.229C120.281 177.229 119.013 176.88 117.902 176.183C116.791 175.486 115.917 174.495 115.28 173.21C114.643 171.925 114.324 170.401 114.324 168.636C114.324 166.872 114.643 165.348 115.28 164.062C115.917 162.777 116.791 161.786 117.902 161.089C119.013 160.393 120.281 160.044 121.708 160.044C122.552 160.044 123.344 160.167 124.085 160.412C124.831 160.657 125.503 161.016 126.102 161.49C126.701 161.958 127.202 162.53 127.605 163.205C128.008 163.875 128.285 164.64 128.438 165.5ZM131.711 177V160.273H141.806V162.07H133.737V167.722H141.284V169.518H133.737V175.203H141.937V177H131.711ZM149.312 168.636C149.312 170.695 149.043 172.589 148.504 174.321C147.97 176.047 147.205 177.637 146.209 179.091H144.51C144.902 178.552 145.267 177.888 145.604 177.098C145.947 176.314 146.247 175.454 146.503 174.517C146.759 173.575 146.957 172.603 147.099 171.601C147.246 170.594 147.319 169.606 147.319 168.636C147.319 167.34 147.194 166.025 146.944 164.691C146.693 163.357 146.356 162.119 145.931 160.975C145.506 159.832 145.032 158.901 144.51 158.182H146.209C147.205 159.636 147.97 161.228 148.504 162.96C149.043 164.686 149.312 166.578 149.312 168.636Z" fill="black"/>
<path d="M1378.51 6.5L1369.01 6.5L1369.01 25.5L1378.51 25.5L1378.51 6.5ZM1615 25.5001C1620.25 25.5001 1624.5 21.2468 1624.5 16.0001C1624.5 10.7534 1620.25 6.50006 1615 6.50006L1615 25.5001ZM1378.51 25.5L1615 25.5001L1615 6.50006L1378.51 6.5L1378.51 25.5Z" fill="#CD8AD8"/>
<path d="M16.0469 16H1384.78" stroke="white" stroke-width="31" stroke-linecap="round"/>
<path d="M16.0469 16H1381.65" stroke="#936EB8" stroke-width="19" stroke-linecap="round"/>
<line x1="17.0469" y1="50" x2="17.0469" y2="105" stroke="black" stroke-width="2"/>
<line x1="1389.97" y1="55" x2="1389.97" y2="116" stroke="black" stroke-width="2"/>
</svg>
