<svg width="404" height="252" viewBox="0 0 404 252" fill="none" xmlns="http://www.w3.org/2000/svg">
<line y1="-1" x2="47.3503" y2="-1" transform="matrix(0.0208539 0.999783 -0.999891 0.0147544 6.9873 29.5886)" stroke="black" stroke-width="2"/>
<line x1="343.716" y1="29.5886" x2="343.716" y2="175.761" stroke="black" stroke-width="2"/>
<path d="M255.852 200V198.338L259.735 194.743C260.065 194.423 260.342 194.135 260.566 193.88C260.793 193.624 260.965 193.374 261.082 193.129C261.2 192.88 261.258 192.612 261.258 192.324C261.258 192.005 261.185 191.729 261.04 191.499C260.894 191.264 260.695 191.085 260.443 190.961C260.191 190.833 259.905 190.769 259.586 190.769C259.252 190.769 258.961 190.836 258.712 190.971C258.463 191.106 258.272 191.3 258.137 191.552C258.002 191.804 257.934 192.104 257.934 192.452H255.745C255.745 191.738 255.907 191.119 256.23 190.593C256.553 190.067 257.006 189.661 257.588 189.373C258.171 189.086 258.842 188.942 259.602 188.942C260.383 188.942 261.063 189.08 261.642 189.357C262.224 189.631 262.677 190.011 263 190.497C263.323 190.984 263.485 191.541 263.485 192.17C263.485 192.582 263.403 192.988 263.24 193.39C263.08 193.791 262.794 194.237 262.382 194.727C261.97 195.213 261.39 195.797 260.64 196.479L259.048 198.04V198.114H263.629V200H255.852ZM269.369 200.149C268.549 200.149 267.819 200.016 267.18 199.75C266.545 199.48 266.046 199.112 265.683 198.647C265.321 198.182 265.14 197.654 265.14 197.065C265.14 196.61 265.243 196.193 265.449 195.813C265.659 195.43 265.943 195.112 266.301 194.86C266.66 194.604 267.061 194.441 267.505 194.37V194.295C266.923 194.178 266.45 193.896 266.088 193.448C265.726 192.997 265.545 192.473 265.545 191.877C265.545 191.312 265.71 190.81 266.04 190.369C266.371 189.925 266.823 189.577 267.399 189.325C267.977 189.07 268.634 188.942 269.369 188.942C270.105 188.942 270.76 189.07 271.335 189.325C271.914 189.581 272.368 189.931 272.699 190.375C273.029 190.815 273.196 191.316 273.199 191.877C273.196 192.477 273.011 193.001 272.645 193.448C272.28 193.896 271.811 194.178 271.239 194.295V194.37C271.676 194.441 272.072 194.604 272.427 194.86C272.786 195.112 273.07 195.43 273.279 195.813C273.492 196.193 273.601 196.61 273.604 197.065C273.601 197.654 273.418 198.182 273.056 198.647C272.693 199.112 272.193 199.48 271.553 199.75C270.918 200.016 270.19 200.149 269.369 200.149ZM269.369 198.455C269.735 198.455 270.055 198.39 270.328 198.258C270.602 198.123 270.815 197.939 270.967 197.704C271.124 197.466 271.202 197.193 271.202 196.884C271.202 196.568 271.122 196.289 270.962 196.048C270.802 195.803 270.586 195.611 270.312 195.472C270.039 195.33 269.725 195.259 269.369 195.259C269.018 195.259 268.704 195.33 268.427 195.472C268.15 195.611 267.931 195.803 267.771 196.048C267.615 196.289 267.537 196.568 267.537 196.884C267.537 197.193 267.613 197.466 267.766 197.704C267.919 197.939 268.134 198.123 268.411 198.258C268.688 198.39 269.007 198.455 269.369 198.455ZM269.369 193.581C269.675 193.581 269.947 193.519 270.184 193.395C270.422 193.271 270.609 193.098 270.744 192.878C270.879 192.658 270.946 192.404 270.946 192.116C270.946 191.832 270.879 191.584 270.744 191.371C270.609 191.154 270.424 190.985 270.19 190.865C269.955 190.74 269.682 190.678 269.369 190.678C269.061 190.678 268.787 190.74 268.549 190.865C268.311 190.985 268.125 191.154 267.99 191.371C267.858 191.584 267.793 191.832 267.793 192.116C267.793 192.404 267.86 192.658 267.995 192.878C268.13 193.098 268.317 193.271 268.554 193.395C268.792 193.519 269.064 193.581 269.369 193.581ZM278.71 203.068V191.818H280.947V193.192H281.048C281.148 192.972 281.292 192.749 281.48 192.521C281.671 192.29 281.92 192.099 282.225 191.946C282.534 191.79 282.918 191.712 283.376 191.712C283.973 191.712 284.523 191.868 285.027 192.18C285.532 192.489 285.935 192.956 286.236 193.581C286.538 194.203 286.689 194.982 286.689 195.92C286.689 196.832 286.542 197.603 286.247 198.232C285.956 198.857 285.558 199.331 285.054 199.654C284.553 199.973 283.992 200.133 283.371 200.133C282.93 200.133 282.556 200.06 282.247 199.915C281.941 199.769 281.691 199.586 281.496 199.366C281.3 199.142 281.151 198.917 281.048 198.69H280.979V203.068H278.71ZM280.931 195.909C280.931 196.396 280.999 196.82 281.133 197.182C281.268 197.544 281.464 197.827 281.719 198.029C281.975 198.228 282.286 198.327 282.652 198.327C283.021 198.327 283.333 198.226 283.589 198.024C283.845 197.818 284.038 197.534 284.17 197.172C284.305 196.806 284.372 196.385 284.372 195.909C284.372 195.437 284.306 195.021 284.175 194.663C284.044 194.304 283.85 194.023 283.594 193.821C283.339 193.619 283.024 193.517 282.652 193.517C282.282 193.517 281.97 193.615 281.714 193.81C281.462 194.006 281.268 194.283 281.133 194.641C280.999 195 280.931 195.423 280.931 195.909ZM291.931 200.16C291.089 200.16 290.365 199.989 289.757 199.648C289.154 199.304 288.689 198.817 288.362 198.189C288.035 197.557 287.872 196.809 287.872 195.946C287.872 195.105 288.035 194.366 288.362 193.73C288.689 193.095 289.148 192.599 289.741 192.244C290.338 191.889 291.038 191.712 291.84 191.712C292.38 191.712 292.882 191.799 293.348 191.973C293.816 192.143 294.225 192.401 294.573 192.745C294.924 193.089 295.198 193.523 295.393 194.045C295.588 194.563 295.686 195.17 295.686 195.866V196.49H288.777V195.083H293.55C293.55 194.757 293.479 194.467 293.337 194.215C293.195 193.963 292.998 193.766 292.746 193.624C292.497 193.478 292.208 193.406 291.877 193.406C291.533 193.406 291.228 193.485 290.961 193.645C290.698 193.801 290.493 194.013 290.343 194.279C290.194 194.542 290.118 194.835 290.114 195.158V196.495C290.114 196.9 290.189 197.25 290.338 197.544C290.491 197.839 290.706 198.066 290.983 198.226C291.26 198.386 291.588 198.466 291.968 198.466C292.22 198.466 292.451 198.43 292.66 198.359C292.87 198.288 293.049 198.182 293.198 198.04C293.348 197.898 293.461 197.724 293.539 197.518L295.638 197.656C295.532 198.161 295.313 198.601 294.983 198.977C294.656 199.35 294.234 199.641 293.715 199.851C293.2 200.057 292.605 200.16 291.931 200.16ZM297.167 200V191.818H299.367V193.246H299.452C299.601 192.738 299.852 192.354 300.203 192.095C300.555 191.832 300.959 191.701 301.418 191.701C301.531 191.701 301.654 191.708 301.785 191.722C301.917 191.737 302.032 191.756 302.131 191.781V193.794C302.025 193.762 301.877 193.734 301.689 193.709C301.501 193.684 301.329 193.672 301.173 193.672C300.839 193.672 300.54 193.745 300.278 193.89C300.018 194.032 299.812 194.231 299.66 194.487C299.511 194.743 299.436 195.037 299.436 195.371V200H297.167ZM311.501 189.091V200H309.195V191.28H309.131L306.632 192.846V190.801L309.333 189.091H311.501ZM318.371 200.24C317.455 200.236 316.667 200.011 316.006 199.563C315.349 199.116 314.843 198.468 314.488 197.619C314.136 196.77 313.962 195.749 313.966 194.556C313.966 193.366 314.142 192.353 314.493 191.515C314.848 190.676 315.354 190.039 316.011 189.602C316.672 189.162 317.458 188.942 318.371 188.942C319.284 188.942 320.069 189.162 320.726 189.602C321.386 190.043 321.894 190.682 322.249 191.52C322.604 192.354 322.78 193.366 322.776 194.556C322.776 195.753 322.599 196.776 322.244 197.624C321.892 198.473 321.388 199.121 320.731 199.569C320.074 200.016 319.287 200.24 318.371 200.24ZM318.371 198.327C318.996 198.327 319.495 198.013 319.868 197.385C320.241 196.756 320.425 195.813 320.422 194.556C320.422 193.729 320.337 193.04 320.166 192.489C319.999 191.939 319.761 191.525 319.452 191.248C319.147 190.971 318.787 190.833 318.371 190.833C317.75 190.833 317.253 191.143 316.88 191.765C316.507 192.386 316.319 193.317 316.315 194.556C316.315 195.394 316.398 196.094 316.565 196.655C316.736 197.212 316.976 197.631 317.284 197.912C317.593 198.189 317.956 198.327 318.371 198.327ZM328.698 200.24C327.782 200.236 326.994 200.011 326.333 199.563C325.676 199.116 325.17 198.468 324.815 197.619C324.464 196.77 324.29 195.749 324.293 194.556C324.293 193.366 324.469 192.353 324.82 191.515C325.176 190.676 325.682 190.039 326.339 189.602C326.999 189.162 327.786 188.942 328.698 188.942C329.611 188.942 330.396 189.162 331.053 189.602C331.713 190.043 332.221 190.682 332.576 191.52C332.931 192.354 333.107 193.366 333.103 194.556C333.103 195.753 332.926 196.776 332.571 197.624C332.219 198.473 331.715 199.121 331.058 199.569C330.401 200.016 329.614 200.24 328.698 200.24ZM328.698 198.327C329.323 198.327 329.822 198.013 330.195 197.385C330.568 196.756 330.753 195.813 330.749 194.556C330.749 193.729 330.664 193.04 330.493 192.489C330.326 191.939 330.089 191.525 329.78 191.248C329.474 190.971 329.114 190.833 328.698 190.833C328.077 190.833 327.58 191.143 327.207 191.765C326.834 192.386 326.646 193.317 326.642 194.556C326.642 195.394 326.726 196.094 326.893 196.655C327.063 197.212 327.303 197.631 327.612 197.912C327.921 198.189 328.283 198.327 328.698 198.327ZM339.025 200.24C338.109 200.236 337.321 200.011 336.66 199.563C336.003 199.116 335.497 198.468 335.142 197.619C334.791 196.77 334.617 195.749 334.62 194.556C334.62 193.366 334.796 192.353 335.148 191.515C335.503 190.676 336.009 190.039 336.666 189.602C337.326 189.162 338.113 188.942 339.025 188.942C339.938 188.942 340.723 189.162 341.38 189.602C342.04 190.043 342.548 190.682 342.903 191.52C343.258 192.354 343.434 193.366 343.431 194.556C343.431 195.753 343.253 196.776 342.898 197.624C342.546 198.473 342.042 199.121 341.385 199.569C340.728 200.016 339.942 200.24 339.025 200.24ZM339.025 198.327C339.65 198.327 340.149 198.013 340.522 197.385C340.895 196.756 341.08 195.813 341.076 194.556C341.076 193.729 340.991 193.04 340.821 192.489C340.654 191.939 340.416 191.525 340.107 191.248C339.801 190.971 339.441 190.833 339.025 190.833C338.404 190.833 337.907 191.143 337.534 191.765C337.161 192.386 336.973 193.317 336.969 194.556C336.969 195.394 337.053 196.094 337.22 196.655C337.39 197.212 337.63 197.631 337.939 197.912C338.248 198.189 338.61 198.327 339.025 198.327ZM298.006 222.545C298.006 221.203 298.18 219.969 298.528 218.843C298.879 217.714 299.38 216.675 300.03 215.727H301.138C300.882 216.079 300.643 216.512 300.419 217.027C300.199 217.538 300.005 218.101 299.838 218.716C299.671 219.326 299.54 219.958 299.444 220.612C299.352 221.265 299.306 221.91 299.306 222.545C299.306 223.391 299.387 224.248 299.551 225.118C299.714 225.988 299.934 226.796 300.211 227.542C300.488 228.288 300.797 228.895 301.138 229.364H300.03C299.38 228.415 298.879 227.379 298.528 226.253C298.18 225.124 298.006 223.888 298.006 222.545ZM302.972 228V227.041L306.572 223.099C306.995 222.638 307.343 222.237 307.617 221.896C307.89 221.551 308.092 221.228 308.224 220.926C308.359 220.621 308.426 220.301 308.426 219.967C308.426 219.584 308.334 219.252 308.149 218.971C307.968 218.691 307.72 218.474 307.403 218.321C307.087 218.169 306.732 218.092 306.338 218.092C305.919 218.092 305.553 218.179 305.241 218.353C304.932 218.524 304.692 218.763 304.522 219.072C304.355 219.381 304.271 219.744 304.271 220.159H303.014C303.014 219.52 303.162 218.959 303.456 218.476C303.751 217.993 304.152 217.616 304.66 217.347C305.172 217.077 305.745 216.942 306.381 216.942C307.02 216.942 307.586 217.077 308.08 217.347C308.574 217.616 308.961 217.98 309.241 218.439C309.522 218.897 309.662 219.406 309.662 219.967C309.662 220.369 309.589 220.761 309.444 221.145C309.302 221.525 309.053 221.949 308.698 222.418C308.346 222.883 307.858 223.451 307.233 224.122L304.783 226.743V226.828H309.854V228H302.972ZM315.612 228.149C314.809 228.149 314.126 227.931 313.561 227.494C312.996 227.054 312.565 226.416 312.267 225.582C311.968 224.744 311.819 223.732 311.819 222.545C311.819 221.366 311.968 220.36 312.267 219.525C312.569 218.687 313.002 218.048 313.566 217.608C314.135 217.164 314.816 216.942 315.612 216.942C316.407 216.942 317.087 217.164 317.652 217.608C318.22 218.048 318.653 218.687 318.952 219.525C319.254 220.36 319.405 221.366 319.405 222.545C319.405 223.732 319.255 224.744 318.957 225.582C318.659 226.416 318.227 227.054 317.663 227.494C317.098 227.931 316.414 228.149 315.612 228.149ZM315.612 226.977C316.407 226.977 317.025 226.594 317.466 225.827C317.906 225.06 318.126 223.966 318.126 222.545C318.126 221.601 318.025 220.797 317.822 220.132C317.624 219.468 317.336 218.962 316.96 218.614C316.587 218.266 316.137 218.092 315.612 218.092C314.824 218.092 314.207 218.481 313.764 219.259C313.32 220.033 313.098 221.129 313.098 222.545C313.098 223.49 313.197 224.293 313.396 224.953C313.595 225.614 313.881 226.116 314.254 226.461C314.63 226.805 315.083 226.977 315.612 226.977ZM321.429 228V227.041L325.03 223.099C325.452 222.638 325.8 222.237 326.074 221.896C326.347 221.551 326.549 221.228 326.681 220.926C326.816 220.621 326.883 220.301 326.883 219.967C326.883 219.584 326.791 219.252 326.606 218.971C326.425 218.691 326.177 218.474 325.86 218.321C325.544 218.169 325.189 218.092 324.795 218.092C324.376 218.092 324.01 218.179 323.698 218.353C323.389 218.524 323.149 218.763 322.979 219.072C322.812 219.381 322.728 219.744 322.728 220.159H321.471C321.471 219.52 321.619 218.959 321.913 218.476C322.208 217.993 322.609 217.616 323.117 217.347C323.629 217.077 324.202 216.942 324.838 216.942C325.477 216.942 326.043 217.077 326.537 217.347C327.031 217.616 327.418 217.98 327.698 218.439C327.979 218.897 328.119 219.406 328.119 219.967C328.119 220.369 328.046 220.761 327.901 221.145C327.759 221.525 327.51 221.949 327.155 222.418C326.803 222.883 326.315 223.451 325.69 224.122L323.24 226.743V226.828H328.311V228H321.429ZM334.069 228.149C333.266 228.149 332.583 227.931 332.018 227.494C331.454 227.054 331.022 226.416 330.724 225.582C330.425 224.744 330.276 223.732 330.276 222.545C330.276 221.366 330.425 220.36 330.724 219.525C331.026 218.687 331.459 218.048 332.023 217.608C332.592 217.164 333.273 216.942 334.069 216.942C334.864 216.942 335.544 217.164 336.109 217.608C336.677 218.048 337.11 218.687 337.409 219.525C337.711 220.36 337.862 221.366 337.862 222.545C337.862 223.732 337.712 224.744 337.414 225.582C337.116 226.416 336.684 227.054 336.12 227.494C335.555 227.931 334.871 228.149 334.069 228.149ZM334.069 226.977C334.864 226.977 335.482 226.594 335.923 225.827C336.363 225.06 336.583 223.966 336.583 222.545C336.583 221.601 336.482 220.797 336.28 220.132C336.081 219.468 335.793 218.962 335.417 218.614C335.044 218.266 334.595 218.092 334.069 218.092C333.281 218.092 332.664 218.481 332.221 219.259C331.777 220.033 331.555 221.129 331.555 222.545C331.555 223.49 331.654 224.293 331.853 224.953C332.052 225.614 332.338 226.116 332.711 226.461C333.087 226.805 333.54 226.977 334.069 226.977ZM342.592 222.545C342.592 223.888 342.416 225.124 342.064 226.253C341.716 227.379 341.217 228.415 340.568 229.364H339.46C339.715 229.012 339.953 228.579 340.173 228.064C340.397 227.553 340.592 226.991 340.759 226.381C340.926 225.766 341.056 225.132 341.148 224.479C341.244 223.822 341.292 223.178 341.292 222.545C341.292 221.7 341.21 220.843 341.047 219.973C340.884 219.103 340.663 218.295 340.386 217.549C340.109 216.803 339.8 216.196 339.46 215.727H340.568C341.217 216.675 341.716 217.714 342.064 218.843C342.416 219.969 342.592 221.203 342.592 222.545Z" fill="black"/>
<path d="M6.71911 101.469V99.6525L11.2734 92.4774H12.8395V94.9916H11.9126L9.04155 99.5353V99.6205H15.5135V101.469H6.71911ZM11.9553 103.386V100.915L11.9979 100.111V92.4774H14.1605V103.386H11.9553ZM21.3276 103.626C20.4114 103.623 19.623 103.397 18.9625 102.95C18.3056 102.502 17.7995 101.854 17.4444 101.005C17.0929 100.157 16.9189 99.1358 16.9224 97.9426C16.9224 96.753 17.0982 95.7391 17.4498 94.901C17.8049 94.063 18.3109 93.4255 18.9679 92.9887C19.6284 92.5484 20.415 92.3282 21.3276 92.3282C22.2402 92.3282 23.025 92.5484 23.682 92.9887C24.3425 93.4291 24.8503 94.0683 25.2054 94.9064C25.5605 95.7409 25.7363 96.753 25.7328 97.9426C25.7328 99.1393 25.5552 100.162 25.2001 101.011C24.8485 101.859 24.3443 102.508 23.6873 102.955C23.0304 103.402 22.2438 103.626 21.3276 103.626ZM21.3276 101.714C21.9526 101.714 22.4515 101.4 22.8244 100.771C23.1973 100.143 23.3819 99.1997 23.3784 97.9426C23.3784 97.1152 23.2931 96.4262 23.1227 95.8758C22.9558 95.3254 22.7179 94.9117 22.4089 94.6347C22.1035 94.3577 21.7431 94.2192 21.3276 94.2192C20.7061 94.2192 20.209 94.5299 19.8361 95.1514C19.4632 95.7728 19.275 96.7032 19.2715 97.9426C19.2715 98.7807 19.3549 99.4802 19.5218 100.041C19.6923 100.599 19.932 101.018 20.2409 101.298C20.5499 101.575 20.9121 101.714 21.3276 101.714ZM31.6547 103.626C30.7385 103.623 29.9502 103.397 29.2897 102.95C28.6327 102.502 28.1267 101.854 27.7716 101.005C27.42 100.157 27.246 99.1358 27.2496 97.9426C27.2496 96.753 27.4253 95.7391 27.7769 94.901C28.132 94.063 28.6381 93.4255 29.295 92.9887C29.9555 92.5484 30.7421 92.3282 31.6547 92.3282C32.5674 92.3282 33.3522 92.5484 34.0091 92.9887C34.6697 93.4291 35.1775 94.0683 35.5326 94.9064C35.8877 95.7409 36.0635 96.753 36.0599 97.9426C36.0599 99.1393 35.8824 100.162 35.5273 101.011C35.1757 101.859 34.6714 102.508 34.0145 102.955C33.3575 103.402 32.5709 103.626 31.6547 103.626ZM31.6547 101.714C32.2797 101.714 32.7787 101.4 33.1515 100.771C33.5244 100.143 33.7091 99.1997 33.7055 97.9426C33.7055 97.1152 33.6203 96.4262 33.4498 95.8758C33.2829 95.3254 33.045 94.9117 32.7361 94.6347C32.4307 94.3577 32.0702 94.2192 31.6547 94.2192C31.0333 94.2192 30.5361 94.5299 30.1633 95.1514C29.7904 95.7728 29.6022 96.7032 29.5986 97.9426C29.5986 98.7807 29.6821 99.4802 29.849 100.041C30.0194 100.599 30.2591 101.018 30.5681 101.298C30.877 101.575 31.2393 101.714 31.6547 101.714ZM41.1975 106.455V95.2047H43.4347V96.5789H43.536C43.6354 96.3588 43.7792 96.1351 43.9674 95.9078C44.1592 95.677 44.4078 95.4852 44.7132 95.3325C45.0221 95.1762 45.4056 95.0981 45.8637 95.0981C46.4603 95.0981 47.0107 95.2544 47.515 95.5669C48.0193 95.8758 48.4223 96.3428 48.7242 96.9678C49.026 97.5892 49.1769 98.3687 49.1769 99.3062C49.1769 100.219 49.0296 100.989 48.7348 101.618C48.4436 102.243 48.0459 102.717 47.5416 103.04C47.0409 103.36 46.4798 103.52 45.8584 103.52C45.4181 103.52 45.0434 103.447 44.7345 103.301C44.4291 103.156 44.1787 102.973 43.9834 102.753C43.7881 102.529 43.6389 102.303 43.536 102.076H43.4667V106.455H41.1975ZM43.4188 99.2956C43.4188 99.7821 43.4862 100.206 43.6212 100.569C43.7561 100.931 43.9514 101.213 44.2071 101.416C44.4628 101.614 44.7735 101.714 45.1393 101.714C45.5086 101.714 45.8211 101.613 46.0768 101.41C46.3325 101.204 46.526 100.92 46.6574 100.558C46.7923 100.192 46.8598 99.7714 46.8598 99.2956C46.8598 98.8233 46.7941 98.4078 46.6627 98.0491C46.5313 97.6905 46.3378 97.4099 46.0821 97.2075C45.8264 97.0051 45.5122 96.9039 45.1393 96.9039C44.77 96.9039 44.4575 97.0015 44.2018 97.1968C43.9497 97.3922 43.7561 97.6691 43.6212 98.0278C43.4862 98.3865 43.4188 98.8091 43.4188 99.2956ZM54.4184 103.546C53.5768 103.546 52.8524 103.376 52.2451 103.035C51.6414 102.69 51.1762 102.204 50.8495 101.575C50.5228 100.943 50.3595 100.196 50.3595 99.3329C50.3595 98.4912 50.5228 97.7526 50.8495 97.1169C51.1762 96.4813 51.6361 95.9859 52.2291 95.6308C52.8257 95.2757 53.5253 95.0981 54.3279 95.0981C54.8676 95.0981 55.3701 95.1851 55.8353 95.3591C56.3041 95.5296 56.7124 95.787 57.0605 96.1315C57.412 96.476 57.6855 96.9092 57.8808 97.4312C58.0761 97.9497 58.1737 98.5569 58.1737 99.253V99.8762H51.265V98.4699H56.0377C56.0377 98.1432 55.9667 97.8538 55.8247 97.6017C55.6826 97.3495 55.4855 97.1525 55.2334 97.0104C54.9848 96.8648 54.6954 96.792 54.3651 96.792C54.0207 96.792 53.7153 96.8719 53.449 97.0317C53.1862 97.188 52.9802 97.3993 52.8311 97.6656C52.6819 97.9284 52.6056 98.2213 52.602 98.5445V99.8815C52.602 100.286 52.6766 100.636 52.8257 100.931C52.9784 101.226 53.1933 101.453 53.4703 101.613C53.7472 101.772 54.0757 101.852 54.4557 101.852C54.7078 101.852 54.9387 101.817 55.1482 101.746C55.3577 101.675 55.537 101.568 55.6862 101.426C55.8353 101.284 55.949 101.11 56.0271 100.904L58.1258 101.043C58.0193 101.547 57.8009 101.987 57.4706 102.364C57.1439 102.737 56.7213 103.028 56.2029 103.237C55.6879 103.443 55.0931 103.546 54.4184 103.546ZM59.6546 103.386V95.2047H61.8545V96.6322H61.9397C62.0889 96.1244 62.3392 95.7409 62.6908 95.4816C63.0423 95.2189 63.4472 95.0875 63.9053 95.0875C64.0189 95.0875 64.1414 95.0946 64.2728 95.1088C64.4042 95.123 64.5196 95.1425 64.6191 95.1674V97.1809C64.5125 97.1489 64.3651 97.1205 64.1769 97.0956C63.9887 97.0708 63.8165 97.0583 63.6602 97.0583C63.3264 97.0583 63.0281 97.1311 62.7654 97.2767C62.5061 97.4188 62.3002 97.6177 62.1475 97.8733C61.9983 98.129 61.9237 98.4238 61.9237 98.7576V103.386H59.6546ZM73.9887 92.4774V103.386H71.6823V94.6667H71.6183L69.1201 96.2327V94.1873L71.8208 92.4774H73.9887ZM78.4831 101.895L78.4245 102.481C78.3784 102.95 78.2896 103.417 78.1582 103.882C78.0304 104.351 77.8954 104.775 77.7534 105.155C77.6149 105.535 77.503 105.833 77.4178 106.05H75.9476C76.0009 105.84 76.0737 105.547 76.166 105.171C76.2583 104.798 76.3453 104.379 76.427 103.914C76.5087 103.449 76.5602 102.975 76.5815 102.492L76.6081 101.895H78.4831ZM84.3745 103.626C83.4583 103.623 82.6699 103.397 82.0094 102.95C81.3525 102.502 80.8464 101.854 80.4913 101.005C80.1397 100.157 79.9657 99.1358 79.9693 97.9426C79.9693 96.753 80.1451 95.7391 80.4966 94.901C80.8517 94.063 81.3578 93.4255 82.0147 92.9887C82.6752 92.5484 83.4618 92.3282 84.3745 92.3282C85.2871 92.3282 86.0719 92.5484 86.7289 92.9887C87.3894 93.4291 87.8972 94.0683 88.2523 94.9064C88.6074 95.7409 88.7832 96.753 88.7797 97.9426C88.7797 99.1393 88.6021 100.162 88.247 101.011C87.8954 101.859 87.3912 102.508 86.7342 102.955C86.0772 103.402 85.2907 103.626 84.3745 103.626ZM84.3745 101.714C84.9995 101.714 85.4984 101.4 85.8713 100.771C86.2441 100.143 86.4288 99.1997 86.4252 97.9426C86.4252 97.1152 86.34 96.4262 86.1696 95.8758C86.0027 95.3254 85.7647 94.9117 85.4558 94.6347C85.1504 94.3577 84.79 94.2192 84.3745 94.2192C83.753 94.2192 83.2559 94.5299 82.883 95.1514C82.5101 95.7728 82.3219 96.7032 82.3184 97.9426C82.3184 98.7807 82.4018 99.4802 82.5687 100.041C82.7392 100.599 82.9789 101.018 83.2878 101.298C83.5968 101.575 83.959 101.714 84.3745 101.714ZM94.7016 103.626C93.7854 103.623 92.9971 103.397 92.3366 102.95C91.6796 102.502 91.1736 101.854 90.8184 101.005C90.4669 100.157 90.2929 99.1358 90.2964 97.9426C90.2964 96.753 90.4722 95.7391 90.8238 94.901C91.1789 94.063 91.6849 93.4255 92.3419 92.9887C93.0024 92.5484 93.789 92.3282 94.7016 92.3282C95.6143 92.3282 96.3991 92.5484 97.056 92.9887C97.7165 93.4291 98.2243 94.0683 98.5795 94.9064C98.9346 95.7409 99.1104 96.753 99.1068 97.9426C99.1068 99.1393 98.9292 100.162 98.5741 101.011C98.2226 101.859 97.7183 102.508 97.0613 102.955C96.4044 103.402 95.6178 103.626 94.7016 103.626ZM94.7016 101.714C95.3266 101.714 95.8256 101.4 96.1984 100.771C96.5713 100.143 96.7559 99.1997 96.7524 97.9426C96.7524 97.1152 96.6672 96.4262 96.4967 95.8758C96.3298 95.3254 96.0919 94.9117 95.7829 94.6347C95.4775 94.3577 95.1171 94.2192 94.7016 94.2192C94.0802 94.2192 93.583 94.5299 93.2101 95.1514C92.8373 95.7728 92.6491 96.7032 92.6455 97.9426C92.6455 98.7807 92.729 99.4802 92.8959 100.041C93.0663 100.599 93.306 101.018 93.615 101.298C93.9239 101.575 94.2861 101.714 94.7016 101.714ZM105.029 103.626C104.113 103.623 103.324 103.397 102.664 102.95C102.007 102.502 101.501 101.854 101.146 101.005C100.794 100.157 100.62 99.1358 100.624 97.9426C100.624 96.753 100.799 95.7391 101.151 94.901C101.506 94.063 102.012 93.4255 102.669 92.9887C103.33 92.5484 104.116 92.3282 105.029 92.3282C105.941 92.3282 106.726 92.5484 107.383 92.9887C108.044 93.4291 108.551 94.0683 108.907 94.9064C109.262 95.7409 109.438 96.753 109.434 97.9426C109.434 99.1393 109.256 100.162 108.901 101.011C108.55 101.859 108.045 102.508 107.388 102.955C106.732 103.402 105.945 103.626 105.029 103.626ZM105.029 101.714C105.654 101.714 106.153 101.4 106.526 100.771C106.898 100.143 107.083 99.1997 107.08 97.9426C107.08 97.1152 106.994 96.4262 106.824 95.8758C106.657 95.3254 106.419 94.9117 106.11 94.6347C105.805 94.3577 105.444 94.2192 105.029 94.2192C104.407 94.2192 103.91 94.5299 103.537 95.1514C103.164 95.7728 102.976 96.7032 102.973 97.9426C102.973 98.7807 103.056 99.4802 103.223 100.041C103.393 100.599 103.633 101.018 103.942 101.298C104.251 101.575 104.613 101.714 105.029 101.714ZM7.59801 125.932C7.59801 124.59 7.77202 123.356 8.12003 122.23C8.47159 121.101 8.9723 120.062 9.62216 119.114H10.7301C10.4744 119.465 10.2347 119.899 10.011 120.413C9.79084 120.925 9.5973 121.488 9.4304 122.102C9.26349 122.713 9.1321 123.345 9.03622 123.998C8.94389 124.652 8.89773 125.296 8.89773 125.932C8.89773 126.777 8.9794 127.635 9.14276 128.505C9.30611 129.375 9.52628 130.183 9.80327 130.928C10.0803 131.674 10.3892 132.281 10.7301 132.75H9.62216C8.9723 131.802 8.47159 130.765 8.12003 129.639C7.77202 128.51 7.59801 127.274 7.59801 125.932ZM16.3991 120.477V131.386H15.078V121.862H15.0141L12.3508 123.631V122.288L15.078 120.477H16.3991ZM23.0947 131.536C22.2922 131.536 21.6086 131.317 21.0439 130.88C20.4793 130.44 20.0479 129.803 19.7496 128.968C19.4513 128.13 19.3021 127.118 19.3021 125.932C19.3021 124.753 19.4513 123.746 19.7496 122.912C20.0514 122.074 20.4846 121.434 21.0493 120.994C21.6175 120.55 22.2993 120.328 23.0947 120.328C23.8902 120.328 24.5702 120.55 25.1349 120.994C25.703 121.434 26.1363 122.074 26.4346 122.912C26.7364 123.746 26.8873 124.753 26.8873 125.932C26.8873 127.118 26.7382 128.13 26.4399 128.968C26.1416 129.803 25.7101 130.44 25.1455 130.88C24.5809 131.317 23.8973 131.536 23.0947 131.536ZM23.0947 130.364C23.8902 130.364 24.5081 129.98 24.9484 129.213C25.3888 128.446 25.6089 127.352 25.6089 125.932C25.6089 124.987 25.5077 124.183 25.3053 123.519C25.1064 122.855 24.8188 122.349 24.4424 122.001C24.0695 121.653 23.6203 121.479 23.0947 121.479C22.3064 121.479 21.6903 121.868 21.2464 122.645C20.8025 123.419 20.5805 124.515 20.5805 125.932C20.5805 126.877 20.68 127.679 20.8788 128.34C21.0777 129 21.3635 129.503 21.7364 129.847C22.1128 130.192 22.5656 130.364 23.0947 130.364ZM32.4697 131.536C31.6672 131.536 30.9836 131.317 30.4189 130.88C29.8543 130.44 29.4229 129.803 29.1246 128.968C28.8263 128.13 28.6771 127.118 28.6771 125.932C28.6771 124.753 28.8263 123.746 29.1246 122.912C29.4264 122.074 29.8596 121.434 30.4243 120.994C30.9925 120.55 31.6743 120.328 32.4697 120.328C33.2652 120.328 33.9452 120.55 34.5099 120.994C35.078 121.434 35.5113 122.074 35.8096 122.912C36.1114 123.746 36.2623 124.753 36.2623 125.932C36.2623 127.118 36.1132 128.13 35.8149 128.968C35.5166 129.803 35.0851 130.44 34.5205 130.88C33.9559 131.317 33.2723 131.536 32.4697 131.536ZM32.4697 130.364C33.2652 130.364 33.8831 129.98 34.3234 129.213C34.7638 128.446 34.9839 127.352 34.9839 125.932C34.9839 124.987 34.8827 124.183 34.6803 123.519C34.4814 122.855 34.1938 122.349 33.8174 122.001C33.4445 121.653 32.9953 121.479 32.4697 121.479C31.6814 121.479 31.0653 121.868 30.6214 122.645C30.1775 123.419 29.9555 124.515 29.9555 125.932C29.9555 126.877 30.055 127.679 30.2538 128.34C30.4527 129 30.7385 129.503 31.1114 129.847C31.4878 130.192 31.9406 130.364 32.4697 130.364ZM41.8447 131.536C41.0422 131.536 40.3586 131.317 39.7939 130.88C39.2293 130.44 38.7979 129.803 38.4996 128.968C38.2013 128.13 38.0521 127.118 38.0521 125.932C38.0521 124.753 38.2013 123.746 38.4996 122.912C38.8014 122.074 39.2346 121.434 39.7993 120.994C40.3675 120.55 41.0493 120.328 41.8447 120.328C42.6402 120.328 43.3202 120.55 43.8849 120.994C44.453 121.434 44.8863 122.074 45.1846 122.912C45.4864 123.746 45.6373 124.753 45.6373 125.932C45.6373 127.118 45.4882 128.13 45.1899 128.968C44.8916 129.803 44.4601 130.44 43.8955 130.88C43.3309 131.317 42.6473 131.536 41.8447 131.536ZM41.8447 130.364C42.6402 130.364 43.2581 129.98 43.6984 129.213C44.1388 128.446 44.3589 127.352 44.3589 125.932C44.3589 124.987 44.2577 124.183 44.0553 123.519C43.8564 122.855 43.5688 122.349 43.1924 122.001C42.8195 121.653 42.3703 121.479 41.8447 121.479C41.0564 121.479 40.4403 121.868 39.9964 122.645C39.5525 123.419 39.3305 124.515 39.3305 125.932C39.3305 126.877 39.43 127.679 39.6288 128.34C39.8277 129 40.1135 129.503 40.4864 129.847C40.8628 130.192 41.3156 130.364 41.8447 130.364ZM51.2197 131.536C50.4172 131.536 49.7336 131.317 49.1689 130.88C48.6043 130.44 48.1729 129.803 47.8746 128.968C47.5763 128.13 47.4271 127.118 47.4271 125.932C47.4271 124.753 47.5763 123.746 47.8746 122.912C48.1764 122.074 48.6096 121.434 49.1743 120.994C49.7425 120.55 50.4243 120.328 51.2197 120.328C52.0152 120.328 52.6952 120.55 53.2599 120.994C53.828 121.434 54.2613 122.074 54.5596 122.912C54.8614 123.746 55.0123 124.753 55.0123 125.932C55.0123 127.118 54.8632 128.13 54.5649 128.968C54.2666 129.803 53.8351 130.44 53.2705 130.88C52.7059 131.317 52.0223 131.536 51.2197 131.536ZM51.2197 130.364C52.0152 130.364 52.6331 129.98 53.0734 129.213C53.5138 128.446 53.7339 127.352 53.7339 125.932C53.7339 124.987 53.6327 124.183 53.4303 123.519C53.2314 122.855 52.9438 122.349 52.5674 122.001C52.1945 121.653 51.7453 121.479 51.2197 121.479C50.4314 121.479 49.8153 121.868 49.3714 122.645C48.9275 123.419 48.7055 124.515 48.7055 125.932C48.7055 126.877 48.805 127.679 49.0038 128.34C49.2027 129 49.4885 129.503 49.8614 129.847C50.2378 130.192 50.6906 130.364 51.2197 130.364ZM61.447 131.386V120.477H65.2609C66.0209 120.477 66.6476 120.609 67.1412 120.872C67.6349 121.131 68.0024 121.481 68.2439 121.921C68.4854 122.358 68.6061 122.842 68.6061 123.375C68.6061 123.844 68.5226 124.231 68.3557 124.536C68.1924 124.842 67.9758 125.083 67.7059 125.261C67.4395 125.438 67.1501 125.57 66.8376 125.655V125.761C67.1714 125.783 67.507 125.9 67.8444 126.113C68.1817 126.326 68.464 126.632 68.6913 127.029C68.9186 127.427 69.0322 127.913 69.0322 128.489C69.0322 129.036 68.9079 129.527 68.6594 129.964C68.4108 130.401 68.0184 130.747 67.4822 131.003C66.9459 131.259 66.2481 131.386 65.3888 131.386H61.447ZM62.768 130.215H65.3888C66.2517 130.215 66.8643 130.048 67.2265 129.714C67.5922 129.377 67.7751 128.968 67.7751 128.489C67.7751 128.119 67.681 127.779 67.4928 127.466C67.3046 127.15 67.0365 126.898 66.6885 126.71C66.3405 126.518 65.9285 126.422 65.4527 126.422H62.768V130.215ZM62.768 125.271H65.2183C65.616 125.271 65.9747 125.193 66.2943 125.037C66.6175 124.881 66.8731 124.661 67.0613 124.377C67.2531 124.092 67.349 123.759 67.349 123.375C67.349 122.896 67.1821 122.489 66.8483 122.155C66.5145 121.818 65.9854 121.649 65.2609 121.649H62.768V125.271ZM79.9813 123.886H78.6602C78.5821 123.507 78.4454 123.173 78.2501 122.885C78.0583 122.597 77.824 122.356 77.547 122.161C77.2735 121.962 76.9699 121.813 76.6361 121.713C76.3023 121.614 75.9543 121.564 75.5921 121.564C74.9316 121.564 74.3332 121.731 73.797 122.065C73.2643 122.399 72.8399 122.89 72.5239 123.54C72.2114 124.19 72.0551 124.987 72.0551 125.932C72.0551 126.877 72.2114 127.674 72.5239 128.324C72.8399 128.973 73.2643 129.465 73.797 129.799C74.3332 130.133 74.9316 130.3 75.5921 130.3C75.9543 130.3 76.3023 130.25 76.6361 130.151C76.9699 130.051 77.2735 129.904 77.547 129.709C77.824 129.51 78.0583 129.266 78.2501 128.979C78.4454 128.688 78.5821 128.354 78.6602 127.977H79.9813C79.8818 128.535 79.7007 129.034 79.4379 129.474C79.1752 129.915 78.8485 130.289 78.4578 130.598C78.0672 130.904 77.6286 131.136 77.1421 131.296C76.6592 131.456 76.1425 131.536 75.5921 131.536C74.6617 131.536 73.8343 131.308 73.1098 130.854C72.3854 130.399 71.8154 129.753 71.3999 128.915C70.9845 128.077 70.7767 127.082 70.7767 125.932C70.7767 124.781 70.9845 123.787 71.3999 122.949C71.8154 122.111 72.3854 121.465 73.1098 121.01C73.8343 120.556 74.6617 120.328 75.5921 120.328C76.1425 120.328 76.6592 120.408 77.1421 120.568C77.6286 120.728 78.0672 120.962 78.4578 121.271C78.8485 121.576 79.1752 121.949 79.4379 122.39C79.7007 122.826 79.8818 123.325 79.9813 123.886ZM82.1159 131.386V120.477H88.6998V121.649H83.437V125.335H88.3588V126.507H83.437V130.215H88.785V131.386H82.1159ZM93.595 125.932C93.595 127.274 93.4192 128.51 93.0676 129.639C92.7196 130.765 92.2207 131.802 91.5708 132.75H90.4629C90.7186 132.399 90.9565 131.965 91.1767 131.45C91.4004 130.939 91.5957 130.378 91.7626 129.767C91.9295 129.153 92.0591 128.519 92.1515 127.866C92.2473 127.209 92.2953 126.564 92.2953 125.932C92.2953 125.087 92.2136 124.229 92.0502 123.359C91.8869 122.489 91.6667 121.681 91.3897 120.935C91.1127 120.19 90.8038 119.582 90.4629 119.114H91.5708C92.2207 120.062 92.7196 121.101 93.0676 122.23C93.4192 123.356 93.595 124.59 93.595 125.932Z" fill="black"/>
<path d="M341.15 3.1177L336.15 3.12832L336.18 13.1283L341.18 13.1177L341.15 3.1177ZM399.015 12.9948C401.776 12.989 404.008 10.7456 404 7.98423C403.992 5.22282 401.746 2.98901 398.985 2.99487L399.015 12.9948ZM341.18 13.1177L399.015 12.9948L398.985 2.99487L341.15 3.1177L341.18 13.1177Z" fill="#CD8AD8"/>
<path d="M7.9751 8.82544L342.701 8.09418" stroke="white" stroke-width="15" stroke-linecap="round"/>
<path d="M7.9751 8.82544L341.933 8.09586" stroke="#936EB8" stroke-width="10" stroke-linecap="round"/>
</svg>
