<svg width="1554" height="207" viewBox="0 0 1554 207" fill="none" xmlns="http://www.w3.org/2000/svg">
<path d="M1325.36 150V147.452L1331.31 141.939C1331.82 141.449 1332.24 141.007 1332.58 140.615C1332.93 140.223 1333.2 139.839 1333.38 139.464C1333.56 139.083 1333.65 138.672 1333.65 138.23C1333.65 137.74 1333.53 137.318 1333.31 136.964C1333.09 136.605 1332.78 136.33 1332.4 136.14C1332.01 135.944 1331.57 135.846 1331.08 135.846C1330.57 135.846 1330.12 135.949 1329.74 136.156C1329.36 136.363 1329.07 136.66 1328.86 137.046C1328.65 137.433 1328.55 137.893 1328.55 138.426H1325.19C1325.19 137.332 1325.44 136.382 1325.94 135.576C1326.43 134.77 1327.13 134.147 1328.02 133.706C1328.91 133.265 1329.94 133.044 1331.11 133.044C1332.3 133.044 1333.35 133.256 1334.23 133.681C1335.13 134.1 1335.82 134.683 1336.32 135.429C1336.81 136.175 1337.06 137.03 1337.06 137.994C1337.06 138.625 1336.93 139.249 1336.68 139.864C1336.44 140.479 1336 141.163 1335.37 141.914C1334.74 142.66 1333.85 143.556 1332.7 144.601L1330.26 146.994V147.109H1337.28V150H1325.36ZM1346.08 150.229C1344.83 150.229 1343.71 150.025 1342.73 149.616C1341.75 149.202 1340.99 148.639 1340.43 147.925C1339.88 147.212 1339.6 146.404 1339.6 145.5C1339.6 144.803 1339.76 144.163 1340.07 143.58C1340.39 142.992 1340.83 142.505 1341.38 142.118C1341.93 141.726 1342.54 141.476 1343.22 141.367V141.252C1342.33 141.073 1341.61 140.64 1341.05 139.954C1340.5 139.262 1340.22 138.459 1340.22 137.544C1340.22 136.679 1340.47 135.908 1340.98 135.233C1341.48 134.552 1342.18 134.019 1343.06 133.632C1343.95 133.24 1344.96 133.044 1346.08 133.044C1347.21 133.044 1348.21 133.24 1349.1 133.632C1349.98 134.024 1350.68 134.56 1351.19 135.241C1351.69 135.916 1351.95 136.684 1351.96 137.544C1351.95 138.465 1351.67 139.268 1351.11 139.954C1350.55 140.64 1349.83 141.073 1348.95 141.252V141.367C1349.62 141.476 1350.23 141.726 1350.77 142.118C1351.32 142.505 1351.76 142.992 1352.08 143.58C1352.4 144.163 1352.57 144.803 1352.58 145.5C1352.57 146.404 1352.29 147.212 1351.74 147.925C1351.18 148.639 1350.41 149.202 1349.43 149.616C1348.46 150.025 1347.34 150.229 1346.08 150.229ZM1346.08 147.631C1346.64 147.631 1347.13 147.531 1347.55 147.329C1347.97 147.122 1348.3 146.839 1348.53 146.48C1348.77 146.115 1348.89 145.696 1348.89 145.222C1348.89 144.737 1348.77 144.31 1348.53 143.94C1348.28 143.564 1347.95 143.27 1347.53 143.058C1347.11 142.84 1346.63 142.731 1346.08 142.731C1345.54 142.731 1345.06 142.84 1344.64 143.058C1344.21 143.27 1343.88 143.564 1343.63 143.94C1343.39 144.31 1343.27 144.737 1343.27 145.222C1343.27 145.696 1343.39 146.115 1343.62 146.48C1343.86 146.839 1344.19 147.122 1344.61 147.329C1345.04 147.531 1345.53 147.631 1346.08 147.631ZM1346.08 140.158C1346.55 140.158 1346.97 140.063 1347.33 139.872C1347.7 139.682 1347.98 139.417 1348.19 139.08C1348.4 138.742 1348.5 138.353 1348.5 137.912C1348.5 137.476 1348.4 137.095 1348.19 136.768C1347.98 136.436 1347.7 136.178 1347.34 135.993C1346.98 135.802 1346.56 135.707 1346.08 135.707C1345.61 135.707 1345.19 135.802 1344.83 135.993C1344.46 136.178 1344.17 136.436 1343.97 136.768C1343.77 137.095 1343.67 137.476 1343.67 137.912C1343.67 138.353 1343.77 138.742 1343.98 139.08C1344.18 139.417 1344.47 139.682 1344.83 139.872C1345.2 140.063 1345.61 140.158 1346.08 140.158ZM1360.41 154.705V137.455H1363.84V139.562H1363.99C1364.14 139.224 1364.36 138.881 1364.65 138.533C1364.95 138.179 1365.33 137.885 1365.8 137.651C1366.27 137.411 1366.86 137.291 1367.56 137.291C1368.47 137.291 1369.32 137.531 1370.09 138.01C1370.87 138.484 1371.48 139.2 1371.95 140.158C1372.41 141.111 1372.64 142.306 1372.64 143.744C1372.64 145.143 1372.41 146.325 1371.96 147.288C1371.52 148.247 1370.91 148.974 1370.13 149.469C1369.36 149.959 1368.5 150.204 1367.55 150.204C1366.88 150.204 1366.3 150.093 1365.83 149.869C1365.36 149.646 1364.98 149.366 1364.68 149.028C1364.38 148.685 1364.15 148.339 1363.99 147.991H1363.88V154.705H1360.41ZM1363.81 143.727C1363.81 144.473 1363.91 145.124 1364.12 145.679C1364.33 146.235 1364.63 146.668 1365.02 146.978C1365.41 147.283 1365.89 147.435 1366.45 147.435C1367.02 147.435 1367.49 147.28 1367.89 146.97C1368.28 146.654 1368.58 146.218 1368.78 145.663C1368.98 145.102 1369.09 144.457 1369.09 143.727C1369.09 143.003 1368.99 142.366 1368.79 141.816C1368.58 141.266 1368.29 140.836 1367.89 140.526C1367.5 140.215 1367.02 140.06 1366.45 140.06C1365.88 140.06 1365.4 140.21 1365.01 140.509C1364.63 140.809 1364.33 141.233 1364.12 141.783C1363.91 142.333 1363.81 142.981 1363.81 143.727ZM1380.68 150.245C1379.39 150.245 1378.28 149.984 1377.34 149.461C1376.42 148.933 1375.71 148.187 1375.2 147.223C1374.7 146.254 1374.45 145.108 1374.45 143.784C1374.45 142.494 1374.7 141.361 1375.2 140.387C1375.71 139.412 1376.41 138.652 1377.32 138.108C1378.23 137.563 1379.31 137.291 1380.54 137.291C1381.37 137.291 1382.14 137.425 1382.85 137.691C1383.57 137.953 1384.19 138.348 1384.73 138.876C1385.27 139.404 1385.69 140.068 1385.99 140.869C1386.29 141.664 1386.44 142.595 1386.44 143.662V144.618H1375.84V142.461H1383.16C1383.16 141.96 1383.05 141.517 1382.83 141.13C1382.62 140.743 1382.31 140.441 1381.93 140.223C1381.55 140 1381.1 139.888 1380.6 139.888C1380.07 139.888 1379.6 140.011 1379.19 140.256C1378.79 140.496 1378.47 140.82 1378.24 141.228C1378.01 141.631 1377.9 142.08 1377.89 142.576V144.626C1377.89 145.246 1378.01 145.783 1378.23 146.235C1378.47 146.687 1378.8 147.035 1379.22 147.28C1379.65 147.525 1380.15 147.648 1380.73 147.648C1381.12 147.648 1381.47 147.593 1381.8 147.484C1382.12 147.375 1382.39 147.212 1382.62 146.994C1382.85 146.777 1383.02 146.51 1383.14 146.194L1386.36 146.406C1386.2 147.179 1385.86 147.855 1385.36 148.432C1384.86 149.004 1384.21 149.45 1383.41 149.771C1382.62 150.087 1381.71 150.245 1380.68 150.245ZM1388.71 150V137.455H1392.08V139.643H1392.21C1392.44 138.865 1392.82 138.277 1393.36 137.879C1393.9 137.476 1394.52 137.275 1395.22 137.275C1395.4 137.275 1395.59 137.286 1395.79 137.308C1395.99 137.329 1396.17 137.359 1396.32 137.397V140.485C1396.15 140.436 1395.93 140.392 1395.64 140.354C1395.35 140.316 1395.09 140.297 1394.85 140.297C1394.34 140.297 1393.88 140.408 1393.48 140.632C1393.08 140.85 1392.76 141.154 1392.53 141.547C1392.3 141.939 1392.19 142.391 1392.19 142.902V150H1388.71ZM1410.68 133.273V150H1407.15V136.63H1407.05L1403.22 139.031V135.895L1407.36 133.273H1410.68ZM1421.22 150.368C1419.81 150.362 1418.61 150.016 1417.59 149.33C1416.59 148.644 1415.81 147.65 1415.26 146.349C1414.73 145.048 1414.46 143.482 1414.46 141.653C1414.46 139.829 1414.73 138.274 1415.27 136.989C1415.82 135.704 1416.59 134.727 1417.6 134.057C1418.61 133.382 1419.82 133.044 1421.22 133.044C1422.62 133.044 1423.82 133.382 1424.83 134.057C1425.84 134.732 1426.62 135.712 1427.17 136.997C1427.71 138.277 1427.98 139.829 1427.97 141.653C1427.97 143.488 1427.7 145.056 1427.16 146.357C1426.62 147.659 1425.84 148.652 1424.84 149.338C1423.83 150.025 1422.62 150.368 1421.22 150.368ZM1421.22 147.435C1422.18 147.435 1422.94 146.953 1423.51 145.99C1424.09 145.026 1424.37 143.58 1424.36 141.653C1424.36 140.384 1424.23 139.328 1423.97 138.484C1423.72 137.64 1423.35 137.005 1422.88 136.581C1422.41 136.156 1421.86 135.944 1421.22 135.944C1420.27 135.944 1419.5 136.42 1418.93 137.373C1418.36 138.326 1418.07 139.752 1418.07 141.653C1418.07 142.938 1418.19 144.01 1418.45 144.871C1418.71 145.726 1419.08 146.368 1419.55 146.798C1420.03 147.223 1420.58 147.435 1421.22 147.435ZM1437.05 150.368C1435.65 150.362 1434.44 150.016 1433.43 149.33C1432.42 148.644 1431.64 147.65 1431.1 146.349C1430.56 145.048 1430.29 143.482 1430.3 141.653C1430.3 139.829 1430.57 138.274 1431.11 136.989C1431.65 135.704 1432.43 134.727 1433.44 134.057C1434.45 133.382 1435.65 133.044 1437.05 133.044C1438.45 133.044 1439.66 133.382 1440.66 134.057C1441.68 134.732 1442.46 135.712 1443 136.997C1443.54 138.277 1443.81 139.829 1443.81 141.653C1443.81 143.488 1443.54 145.056 1442.99 146.357C1442.45 147.659 1441.68 148.652 1440.67 149.338C1439.66 150.025 1438.46 150.368 1437.05 150.368ZM1437.05 147.435C1438.01 147.435 1438.78 146.953 1439.35 145.99C1439.92 145.026 1440.2 143.58 1440.2 141.653C1440.2 140.384 1440.07 139.328 1439.81 138.484C1439.55 137.64 1439.19 137.005 1438.71 136.581C1438.24 136.156 1437.69 135.944 1437.05 135.944C1436.1 135.944 1435.34 136.42 1434.77 137.373C1434.2 138.326 1433.91 139.752 1433.9 141.653C1433.9 142.938 1434.03 144.01 1434.29 144.871C1434.55 145.726 1434.91 146.368 1435.39 146.798C1435.86 147.223 1436.42 147.435 1437.05 147.435ZM1452.89 150.368C1451.48 150.362 1450.28 150.016 1449.26 149.33C1448.26 148.644 1447.48 147.65 1446.93 146.349C1446.4 145.048 1446.13 143.482 1446.13 141.653C1446.13 139.829 1446.4 138.274 1446.94 136.989C1447.49 135.704 1448.26 134.727 1449.27 134.057C1450.28 133.382 1451.49 133.044 1452.89 133.044C1454.29 133.044 1455.49 133.382 1456.5 134.057C1457.51 134.732 1458.29 135.712 1458.84 136.997C1459.38 138.277 1459.65 139.829 1459.64 141.653C1459.64 143.488 1459.37 145.056 1458.83 146.357C1458.29 147.659 1457.51 148.652 1456.51 149.338C1455.5 150.025 1454.29 150.368 1452.89 150.368ZM1452.89 147.435C1453.85 147.435 1454.61 146.953 1455.18 145.99C1455.76 145.026 1456.04 143.58 1456.03 141.653C1456.03 140.384 1455.9 139.328 1455.64 138.484C1455.39 137.64 1455.02 137.005 1454.55 136.581C1454.08 136.156 1453.53 135.944 1452.89 135.944C1451.94 135.944 1451.17 136.42 1450.6 137.373C1450.03 138.326 1449.74 139.752 1449.74 141.653C1449.74 142.938 1449.86 144.01 1450.12 144.871C1450.38 145.726 1450.75 146.368 1451.22 146.798C1451.7 147.223 1452.25 147.435 1452.89 147.435ZM1326.45 179.636C1326.45 177.578 1326.72 175.686 1327.25 173.96C1327.79 172.228 1328.56 170.636 1329.55 169.182H1331.25C1330.86 169.721 1330.49 170.385 1330.15 171.175C1329.81 171.959 1329.52 172.822 1329.26 173.764C1329 174.7 1328.8 175.67 1328.66 176.672C1328.51 177.673 1328.44 178.662 1328.44 179.636C1328.44 180.932 1328.57 182.247 1328.82 183.581C1329.07 184.915 1329.41 186.154 1329.83 187.298C1330.26 188.441 1330.73 189.372 1331.25 190.091H1329.55C1328.56 188.637 1327.79 187.047 1327.25 185.321C1326.72 183.589 1326.45 181.695 1326.45 179.636ZM1334.06 188V186.53L1339.59 180.486C1340.23 179.778 1340.77 179.163 1341.19 178.64C1341.61 178.112 1341.92 177.616 1342.12 177.153C1342.32 176.685 1342.43 176.195 1342.43 175.683C1342.43 175.095 1342.29 174.586 1342 174.156C1341.73 173.726 1341.34 173.394 1340.86 173.159C1340.38 172.925 1339.83 172.808 1339.23 172.808C1338.58 172.808 1338.02 172.942 1337.54 173.208C1337.07 173.47 1336.7 173.837 1336.44 174.311C1336.19 174.785 1336.06 175.34 1336.06 175.977H1334.13C1334.13 174.997 1334.36 174.137 1334.81 173.396C1335.26 172.656 1335.88 172.079 1336.65 171.665C1337.44 171.251 1338.32 171.044 1339.29 171.044C1340.27 171.044 1341.14 171.251 1341.9 171.665C1342.65 172.079 1343.25 172.637 1343.68 173.339C1344.11 174.042 1344.32 174.823 1344.32 175.683C1344.32 176.299 1344.21 176.9 1343.99 177.488C1343.77 178.071 1343.39 178.722 1342.84 179.44C1342.31 180.154 1341.56 181.025 1340.6 182.054L1336.84 186.072V186.203H1344.62V188H1334.06ZM1353.45 188.229C1352.22 188.229 1351.17 187.894 1350.3 187.224C1349.44 186.549 1348.77 185.571 1348.32 184.292C1347.86 183.007 1347.63 181.455 1347.63 179.636C1347.63 177.829 1347.86 176.285 1348.32 175.005C1348.78 173.72 1349.44 172.74 1350.31 172.065C1351.18 171.384 1352.23 171.044 1353.45 171.044C1354.67 171.044 1355.71 171.384 1356.57 172.065C1357.45 172.74 1358.11 173.72 1358.57 175.005C1359.03 176.285 1359.26 177.829 1359.26 179.636C1359.26 181.455 1359.03 183.007 1358.58 184.292C1358.12 185.571 1357.46 186.549 1356.59 187.224C1355.73 187.894 1354.68 188.229 1353.45 188.229ZM1353.45 186.432C1354.67 186.432 1355.61 185.844 1356.29 184.668C1356.96 183.491 1357.3 181.814 1357.3 179.636C1357.3 178.188 1357.15 176.955 1356.84 175.936C1356.53 174.918 1356.09 174.142 1355.51 173.609C1354.94 173.075 1354.25 172.808 1353.45 172.808C1352.24 172.808 1351.29 173.404 1350.61 174.597C1349.93 175.784 1349.59 177.464 1349.59 179.636C1349.59 181.085 1349.74 182.315 1350.05 183.328C1350.35 184.341 1350.79 185.111 1351.36 185.64C1351.94 186.168 1352.63 186.432 1353.45 186.432ZM1362.37 188V186.53L1367.89 180.486C1368.53 179.778 1369.07 179.163 1369.49 178.64C1369.91 178.112 1370.22 177.616 1370.42 177.153C1370.63 176.685 1370.73 176.195 1370.73 175.683C1370.73 175.095 1370.59 174.586 1370.3 174.156C1370.03 173.726 1369.65 173.394 1369.16 173.159C1368.68 172.925 1368.13 172.808 1367.53 172.808C1366.88 172.808 1366.32 172.942 1365.84 173.208C1365.37 173.47 1365 173.837 1364.74 174.311C1364.49 174.785 1364.36 175.34 1364.36 175.977H1362.43C1362.43 174.997 1362.66 174.137 1363.11 173.396C1363.56 172.656 1364.18 172.079 1364.95 171.665C1365.74 171.251 1366.62 171.044 1367.59 171.044C1368.57 171.044 1369.44 171.251 1370.2 171.665C1370.95 172.079 1371.55 172.637 1371.98 173.339C1372.41 174.042 1372.62 174.823 1372.62 175.683C1372.62 176.299 1372.51 176.9 1372.29 177.488C1372.07 178.071 1371.69 178.722 1371.15 179.44C1370.61 180.154 1369.86 181.025 1368.9 182.054L1365.14 186.072V186.203H1372.92V188H1362.37ZM1381.75 188.229C1380.52 188.229 1379.47 187.894 1378.6 187.224C1377.74 186.549 1377.08 185.571 1376.62 184.292C1376.16 183.007 1375.93 181.455 1375.93 179.636C1375.93 177.829 1376.16 176.285 1376.62 175.005C1377.08 173.72 1377.74 172.74 1378.61 172.065C1379.48 171.384 1380.53 171.044 1381.75 171.044C1382.97 171.044 1384.01 171.384 1384.88 172.065C1385.75 172.74 1386.41 173.72 1386.87 175.005C1387.33 176.285 1387.56 177.829 1387.56 179.636C1387.56 181.455 1387.33 183.007 1386.88 184.292C1386.42 185.571 1385.76 186.549 1384.89 187.224C1384.03 187.894 1382.98 188.229 1381.75 188.229ZM1381.75 186.432C1382.97 186.432 1383.91 185.844 1384.59 184.668C1385.26 183.491 1385.6 181.814 1385.6 179.636C1385.6 178.188 1385.45 176.955 1385.14 175.936C1384.83 174.918 1384.39 174.142 1383.81 173.609C1383.24 173.075 1382.55 172.808 1381.75 172.808C1380.54 172.808 1379.59 173.404 1378.91 174.597C1378.23 175.784 1377.89 177.464 1377.89 179.636C1377.89 181.085 1378.04 182.315 1378.35 183.328C1378.65 184.341 1379.09 185.111 1379.66 185.64C1380.24 186.168 1380.94 186.432 1381.75 186.432ZM1394.82 179.636C1394.82 181.695 1394.55 183.589 1394.01 185.321C1393.47 187.047 1392.71 188.637 1391.71 190.091H1390.01C1390.4 189.552 1390.77 188.888 1391.11 188.098C1391.45 187.314 1391.75 186.454 1392.01 185.517C1392.26 184.575 1392.46 183.603 1392.6 182.601C1392.75 181.594 1392.82 180.606 1392.82 179.636C1392.82 178.34 1392.7 177.025 1392.45 175.691C1392.2 174.357 1391.86 173.119 1391.43 171.975C1391.01 170.832 1390.54 169.901 1390.01 169.182H1391.71C1392.71 170.636 1393.47 172.228 1394.01 173.96C1394.55 175.686 1394.82 177.578 1394.82 179.636Z" fill="black"/>
<path d="M16.1026 136.06V133.275L23.0859 122.273H25.4872V126.128H24.0661L19.6637 133.095V133.225H29.5874V136.06H16.1026ZM24.1314 139V135.21L24.1967 133.977V122.273H27.5128V139H24.1314ZM38.5023 139.368C37.0975 139.362 35.8887 139.016 34.8759 138.33C33.8685 137.644 33.0926 136.65 32.5481 135.349C32.0091 134.048 31.7422 132.482 31.7477 130.653C31.7477 128.829 32.0172 127.274 32.5563 125.989C33.1008 124.704 33.8767 123.727 34.8841 123.057C35.8968 122.382 37.1029 122.044 38.5023 122.044C39.9017 122.044 41.1051 122.382 42.1124 123.057C43.1252 123.732 43.9038 124.712 44.4483 125.997C44.9928 127.277 45.2624 128.829 45.2569 130.653C45.2569 132.488 44.9847 134.056 44.4402 135.357C43.9011 136.659 43.1279 137.652 42.1206 138.338C41.1132 139.025 39.9071 139.368 38.5023 139.368ZM38.5023 136.435C39.4606 136.435 40.2257 135.953 40.7974 134.99C41.3691 134.026 41.6523 132.58 41.6468 130.653C41.6468 129.384 41.5162 128.328 41.2548 127.484C40.9989 126.64 40.6341 126.005 40.1603 125.581C39.6921 125.156 39.1394 124.944 38.5023 124.944C37.5494 124.944 36.7871 125.42 36.2154 126.373C35.6436 127.326 35.3551 128.752 35.3496 130.653C35.3496 131.938 35.4776 133.01 35.7335 133.871C35.9949 134.726 36.3624 135.368 36.8361 135.798C37.3098 136.223 37.8652 136.435 38.5023 136.435ZM54.3373 139.368C52.9324 139.362 51.7236 139.016 50.7108 138.33C49.7035 137.644 48.9276 136.65 48.3831 135.349C47.844 134.048 47.5772 132.482 47.5827 130.653C47.5827 128.829 47.8522 127.274 48.3912 125.989C48.9358 124.704 49.7117 123.727 50.719 123.057C51.7318 122.382 52.9379 122.044 54.3373 122.044C55.7367 122.044 56.94 122.382 57.9474 123.057C58.9601 123.732 59.7388 124.712 60.2833 125.997C60.8278 127.277 61.0973 128.829 61.0919 130.653C61.0919 132.488 60.8196 134.056 60.2751 135.357C59.7361 136.659 58.9629 137.652 57.9555 138.338C56.9482 139.025 55.7421 139.368 54.3373 139.368ZM54.3373 136.435C55.2956 136.435 56.0606 135.953 56.6324 134.99C57.2041 134.026 57.4872 132.58 57.4818 130.653C57.4818 129.384 57.3511 128.328 57.0898 127.484C56.8338 126.64 56.469 126.005 55.9953 125.581C55.527 125.156 54.9743 124.944 54.3373 124.944C53.3844 124.944 52.6221 125.42 52.0503 126.373C51.4786 127.326 51.19 128.752 51.1846 130.653C51.1846 131.938 51.3125 133.01 51.5684 133.871C51.8298 134.726 52.1974 135.368 52.6711 135.798C53.1448 136.223 53.7002 136.435 54.3373 136.435ZM68.9695 143.705V126.455H72.3999V128.562H72.5551C72.7076 128.224 72.9281 127.881 73.2167 127.533C73.5107 127.179 73.8919 126.885 74.3602 126.651C74.8339 126.411 75.422 126.291 76.1244 126.291C77.0392 126.291 77.8831 126.531 78.6563 127.01C79.4295 127.484 80.0476 128.2 80.5104 129.158C80.9732 130.111 81.2046 131.306 81.2046 132.744C81.2046 134.143 80.9787 135.325 80.5267 136.288C80.0802 137.247 79.4704 137.974 78.6972 138.469C77.9294 138.959 77.0691 139.204 76.1162 139.204C75.441 139.204 74.8666 139.093 74.3928 138.869C73.9246 138.646 73.5407 138.366 73.2412 138.028C72.9417 137.685 72.713 137.339 72.5551 136.991H72.449V143.705H68.9695ZM72.3754 132.727C72.3754 133.473 72.4789 134.124 72.6858 134.679C72.8927 135.235 73.1922 135.668 73.5843 135.978C73.9763 136.283 74.4527 136.435 75.0136 136.435C75.5799 136.435 76.059 136.28 76.4511 135.97C76.8431 135.654 77.1399 135.218 77.3414 134.663C77.5483 134.102 77.6517 133.457 77.6517 132.727C77.6517 132.003 77.551 131.366 77.3495 130.816C77.1481 130.266 76.8513 129.836 76.4593 129.526C76.0672 129.215 75.5853 129.06 75.0136 129.06C74.4473 129.06 73.9681 129.21 73.5761 129.509C73.1895 129.809 72.8927 130.233 72.6858 130.783C72.4789 131.333 72.3754 131.981 72.3754 132.727ZM89.2416 139.245C87.9511 139.245 86.8403 138.984 85.9092 138.461C84.9835 137.933 84.2702 137.187 83.7693 136.223C83.2683 135.254 83.0178 134.108 83.0178 132.784C83.0178 131.494 83.2683 130.361 83.7693 129.387C84.2702 128.412 84.9753 127.652 85.8847 127.108C86.7994 126.563 87.8721 126.291 89.1027 126.291C89.9304 126.291 90.7008 126.425 91.4142 126.691C92.1329 126.953 92.7591 127.348 93.2927 127.876C93.8318 128.404 94.251 129.068 94.5505 129.869C94.85 130.664 94.9997 131.595 94.9997 132.662V133.618H84.4063V131.461H91.7245C91.7245 130.96 91.6156 130.517 91.3978 130.13C91.18 129.743 90.8778 129.441 90.4912 129.223C90.1101 129 89.6663 128.888 89.1599 128.888C88.6317 128.888 88.1634 129.011 87.7551 129.256C87.3521 129.496 87.0363 129.82 86.8076 130.228C86.5789 130.631 86.4619 131.08 86.4564 131.576V133.626C86.4564 134.246 86.5708 134.783 86.7994 135.235C87.0336 135.687 87.363 136.035 87.7877 136.28C88.2124 136.525 88.7161 136.648 89.2987 136.648C89.6853 136.648 90.0393 136.593 90.3605 136.484C90.6818 136.375 90.9568 136.212 91.1855 135.994C91.4142 135.777 91.5884 135.51 91.7082 135.194L94.9262 135.406C94.7629 136.179 94.428 136.855 93.9216 137.432C93.4207 138.004 92.7727 138.45 91.9777 138.771C91.1882 139.087 90.2761 139.245 89.2416 139.245ZM97.2703 139V126.455H100.644V128.643H100.774C101.003 127.865 101.387 127.277 101.926 126.879C102.465 126.476 103.086 126.275 103.788 126.275C103.962 126.275 104.15 126.286 104.352 126.308C104.553 126.329 104.73 126.359 104.883 126.397V129.485C104.719 129.436 104.493 129.392 104.205 129.354C103.916 129.316 103.652 129.297 103.412 129.297C102.901 129.297 102.443 129.408 102.04 129.632C101.643 129.85 101.327 130.154 101.093 130.547C100.864 130.939 100.75 131.391 100.75 131.902V139H97.2703ZM119.249 122.273V139H115.713V125.63H115.615L111.784 128.031V124.895L115.925 122.273H119.249ZM126.141 136.713L126.051 137.612C125.98 138.33 125.844 139.046 125.643 139.76C125.447 140.478 125.24 141.129 125.022 141.712C124.809 142.294 124.638 142.752 124.507 143.084H122.253C122.335 142.763 122.446 142.313 122.588 141.736C122.729 141.164 122.863 140.522 122.988 139.809C123.113 139.095 123.192 138.368 123.225 137.628L123.266 136.713H126.141ZM135.174 139.368C133.769 139.362 132.561 139.016 131.548 138.33C130.54 137.644 129.765 136.65 129.22 135.349C128.681 134.048 128.414 132.482 128.42 130.653C128.42 128.829 128.689 127.274 129.228 125.989C129.773 124.704 130.549 123.727 131.556 123.057C132.569 122.382 133.775 122.044 135.174 122.044C136.574 122.044 137.777 122.382 138.784 123.057C139.797 123.732 140.576 124.712 141.12 125.997C141.665 127.277 141.934 128.829 141.929 130.653C141.929 132.488 141.657 134.056 141.112 135.357C140.573 136.659 139.8 137.652 138.792 138.338C137.785 139.025 136.579 139.368 135.174 139.368ZM135.174 136.435C136.133 136.435 136.898 135.953 137.469 134.99C138.041 134.026 138.324 132.58 138.319 130.653C138.319 129.384 138.188 128.328 137.927 127.484C137.671 126.64 137.306 126.005 136.832 125.581C136.364 125.156 135.811 124.944 135.174 124.944C134.221 124.944 133.459 125.42 132.887 126.373C132.316 127.326 132.027 128.752 132.021 130.653C132.021 131.938 132.149 133.01 132.405 133.871C132.667 134.726 133.034 135.368 133.508 135.798C133.982 136.223 134.537 136.435 135.174 136.435ZM151.009 139.368C149.604 139.362 148.396 139.016 147.383 138.33C146.375 137.644 145.599 136.65 145.055 135.349C144.516 134.048 144.249 132.482 144.255 130.653C144.255 128.829 144.524 127.274 145.063 125.989C145.608 124.704 146.384 123.727 147.391 123.057C148.404 122.382 149.61 122.044 151.009 122.044C152.409 122.044 153.612 122.382 154.619 123.057C155.632 123.732 156.411 124.712 156.955 125.997C157.5 127.277 157.769 128.829 157.764 130.653C157.764 132.488 157.492 134.056 156.947 135.357C156.408 136.659 155.635 137.652 154.627 138.338C153.62 139.025 152.414 139.368 151.009 139.368ZM151.009 136.435C151.967 136.435 152.733 135.953 153.304 134.99C153.876 134.026 154.159 132.58 154.154 130.653C154.154 129.384 154.023 128.328 153.762 127.484C153.506 126.64 153.141 126.005 152.667 125.581C152.199 125.156 151.646 124.944 151.009 124.944C150.056 124.944 149.294 125.42 148.722 126.373C148.15 127.326 147.862 128.752 147.856 130.653C147.856 131.938 147.984 133.01 148.24 133.871C148.502 134.726 148.869 135.368 149.343 135.798C149.817 136.223 150.372 136.435 151.009 136.435ZM166.844 139.368C165.439 139.362 164.23 139.016 163.218 138.33C162.21 137.644 161.434 136.65 160.89 135.349C160.351 134.048 160.084 132.482 160.089 130.653C160.089 128.829 160.359 127.274 160.898 125.989C161.443 124.704 162.219 123.727 163.226 123.057C164.239 122.382 165.445 122.044 166.844 122.044C168.243 122.044 169.447 122.382 170.454 123.057C171.467 123.732 172.246 124.712 172.79 125.997C173.335 127.277 173.604 128.829 173.599 130.653C173.599 132.488 173.326 134.056 172.782 135.357C172.243 136.659 171.47 137.652 170.462 138.338C169.455 139.025 168.249 139.368 166.844 139.368ZM166.844 136.435C167.802 136.435 168.567 135.953 169.139 134.99C169.711 134.026 169.994 132.58 169.989 130.653C169.989 129.384 169.858 128.328 169.597 127.484C169.341 126.64 168.976 126.005 168.502 125.581C168.034 125.156 167.481 124.944 166.844 124.944C165.891 124.944 165.129 125.42 164.557 126.373C163.985 127.326 163.697 128.752 163.691 130.653C163.691 131.938 163.819 133.01 164.075 133.871C164.337 134.726 164.704 135.368 165.178 135.798C165.652 136.223 166.207 136.435 166.844 136.435ZM17.4503 168.636C17.4503 166.578 17.7171 164.686 18.2507 162.96C18.7898 161.228 19.5575 159.636 20.554 158.182H22.2528C21.8608 158.721 21.4933 159.385 21.1502 160.175C20.8126 160.959 20.5159 161.822 20.2599 162.764C20.004 163.7 19.8026 164.67 19.6555 165.672C19.514 166.673 19.4432 167.662 19.4432 168.636C19.4432 169.932 19.5684 171.247 19.8189 172.581C20.0694 173.915 20.407 175.154 20.8317 176.298C21.2564 177.441 21.7301 178.372 22.2528 179.091H20.554C19.5575 177.637 18.7898 176.047 18.2507 174.321C17.7171 172.589 17.4503 170.695 17.4503 168.636ZM30.9452 160.273V177H28.9197V162.396H28.8216L24.7378 165.108V163.05L28.9197 160.273H30.9452ZM41.2119 177.229C39.9813 177.229 38.9332 176.894 38.0674 176.224C37.2016 175.549 36.54 174.571 36.0827 173.292C35.6253 172.007 35.3966 170.455 35.3966 168.636C35.3966 166.829 35.6253 165.285 36.0827 164.005C36.5455 162.72 37.2098 161.74 38.0756 161.065C38.9468 160.384 39.9922 160.044 41.2119 160.044C42.4316 160.044 43.4743 160.384 44.3401 161.065C45.2113 161.74 45.8756 162.72 46.333 164.005C46.7958 165.285 47.0273 166.829 47.0273 168.636C47.0273 170.455 46.7986 172.007 46.3412 173.292C45.8838 174.571 45.2222 175.549 44.3564 176.224C43.4907 176.894 42.4425 177.229 41.2119 177.229ZM41.2119 175.432C42.4316 175.432 43.3791 174.844 44.0542 173.668C44.7294 172.491 45.067 170.814 45.067 168.636C45.067 167.188 44.9118 165.955 44.6015 164.936C44.2965 163.918 43.8555 163.142 43.2783 162.609C42.7066 162.075 42.0178 161.808 41.2119 161.808C40.0031 161.808 39.0584 162.404 38.3778 163.597C37.6971 164.784 37.3568 166.464 37.3568 168.636C37.3568 170.085 37.5093 171.315 37.8142 172.328C38.1191 173.341 38.5574 174.111 39.1292 174.64C39.7064 175.168 40.4006 175.432 41.2119 175.432ZM55.5869 177.229C54.3563 177.229 53.3082 176.894 52.4424 176.224C51.5766 175.549 50.915 174.571 50.4577 173.292C50.0003 172.007 49.7716 170.455 49.7716 168.636C49.7716 166.829 50.0003 165.285 50.4577 164.005C50.9205 162.72 51.5848 161.74 52.4506 161.065C53.3218 160.384 54.3672 160.044 55.5869 160.044C56.8066 160.044 57.8493 160.384 58.7151 161.065C59.5863 161.74 60.2506 162.72 60.708 164.005C61.1708 165.285 61.4023 166.829 61.4023 168.636C61.4023 170.455 61.1736 172.007 60.7162 173.292C60.2588 174.571 59.5972 175.549 58.7314 176.224C57.8657 176.894 56.8175 177.229 55.5869 177.229ZM55.5869 175.432C56.8066 175.432 57.7541 174.844 58.4292 173.668C59.1044 172.491 59.442 170.814 59.442 168.636C59.442 167.188 59.2868 165.955 58.9765 164.936C58.6715 163.918 58.2305 163.142 57.6533 162.609C57.0816 162.075 56.3928 161.808 55.5869 161.808C54.3781 161.808 53.4334 162.404 52.7528 163.597C52.0721 164.784 51.7318 166.464 51.7318 168.636C51.7318 170.085 51.8843 171.315 52.1892 172.328C52.4941 173.341 52.9324 174.111 53.5042 174.64C54.0814 175.168 54.7756 175.432 55.5869 175.432ZM69.9619 177.229C68.7313 177.229 67.6832 176.894 66.8174 176.224C65.9516 175.549 65.29 174.571 64.8327 173.292C64.3753 172.007 64.1466 170.455 64.1466 168.636C64.1466 166.829 64.3753 165.285 64.8327 164.005C65.2955 162.72 65.9598 161.74 66.8256 161.065C67.6968 160.384 68.7422 160.044 69.9619 160.044C71.1816 160.044 72.2243 160.384 73.0901 161.065C73.9613 161.74 74.6256 162.72 75.083 164.005C75.5458 165.285 75.7773 166.829 75.7773 168.636C75.7773 170.455 75.5486 172.007 75.0912 173.292C74.6338 174.571 73.9722 175.549 73.1064 176.224C72.2407 176.894 71.1925 177.229 69.9619 177.229ZM69.9619 175.432C71.1816 175.432 72.1291 174.844 72.8042 173.668C73.4794 172.491 73.817 170.814 73.817 168.636C73.817 167.188 73.6618 165.955 73.3515 164.936C73.0465 163.918 72.6055 163.142 72.0283 162.609C71.4566 162.075 70.7678 161.808 69.9619 161.808C68.7531 161.808 67.8084 162.404 67.1278 163.597C66.4471 164.784 66.1068 166.464 66.1068 168.636C66.1068 170.085 66.2593 171.315 66.5642 172.328C66.8691 173.341 67.3074 174.111 67.8792 174.64C68.4564 175.168 69.1506 175.432 69.9619 175.432ZM84.3369 177.229C83.1063 177.229 82.0582 176.894 81.1924 176.224C80.3266 175.549 79.665 174.571 79.2077 173.292C78.7503 172.007 78.5216 170.455 78.5216 168.636C78.5216 166.829 78.7503 165.285 79.2077 164.005C79.6705 162.72 80.3348 161.74 81.2006 161.065C82.0718 160.384 83.1172 160.044 84.3369 160.044C85.5566 160.044 86.5993 160.384 87.4651 161.065C88.3363 161.74 89.0006 162.72 89.458 164.005C89.9208 165.285 90.1523 166.829 90.1523 168.636C90.1523 170.455 89.9236 172.007 89.4662 173.292C89.0088 174.571 88.3472 175.549 87.4814 176.224C86.6157 176.894 85.5675 177.229 84.3369 177.229ZM84.3369 175.432C85.5566 175.432 86.5041 174.844 87.1792 173.668C87.8544 172.491 88.192 170.814 88.192 168.636C88.192 167.188 88.0368 165.955 87.7265 164.936C87.4215 163.918 86.9805 163.142 86.4033 162.609C85.8316 162.075 85.1428 161.808 84.3369 161.808C83.1281 161.808 82.1834 162.404 81.5028 163.597C80.8221 164.784 80.4818 166.464 80.4818 168.636C80.4818 170.085 80.6343 171.315 80.9392 172.328C81.2441 173.341 81.6824 174.111 82.2542 174.64C82.8314 175.168 83.5256 175.432 84.3369 175.432ZM100.019 177V160.273H105.867C107.032 160.273 107.993 160.474 108.75 160.877C109.507 161.275 110.07 161.811 110.441 162.486C110.811 163.156 110.996 163.899 110.996 164.716C110.996 165.435 110.868 166.028 110.612 166.496C110.362 166.965 110.03 167.335 109.616 167.607C109.207 167.879 108.764 168.081 108.284 168.212V168.375C108.796 168.408 109.311 168.587 109.828 168.914C110.345 169.241 110.778 169.709 111.127 170.319C111.475 170.929 111.649 171.675 111.649 172.557C111.649 173.395 111.459 174.15 111.078 174.819C110.697 175.489 110.095 176.02 109.273 176.412C108.45 176.804 107.38 177 106.063 177H100.019ZM102.044 175.203H106.063C107.386 175.203 108.325 174.947 108.881 174.435C109.441 173.918 109.722 173.292 109.722 172.557C109.722 171.991 109.578 171.468 109.289 170.989C109 170.504 108.589 170.117 108.056 169.829C107.522 169.535 106.89 169.388 106.161 169.388H102.044V175.203ZM102.044 167.624H105.801C106.411 167.624 106.961 167.504 107.451 167.264C107.947 167.025 108.339 166.687 108.627 166.251C108.921 165.816 109.068 165.304 109.068 164.716C109.068 163.981 108.813 163.357 108.301 162.846C107.789 162.328 106.978 162.07 105.867 162.07H102.044V167.624ZM128.438 165.5H126.412C126.293 164.917 126.083 164.406 125.783 163.964C125.489 163.523 125.13 163.153 124.705 162.854C124.286 162.549 123.821 162.32 123.309 162.168C122.797 162.015 122.263 161.939 121.708 161.939C120.695 161.939 119.778 162.195 118.955 162.707C118.139 163.219 117.488 163.973 117.003 164.969C116.524 165.966 116.285 167.188 116.285 168.636C116.285 170.085 116.524 171.307 117.003 172.304C117.488 173.3 118.139 174.054 118.955 174.566C119.778 175.078 120.695 175.334 121.708 175.334C122.263 175.334 122.797 175.258 123.309 175.105C123.821 174.953 124.286 174.727 124.705 174.427C125.13 174.122 125.489 173.749 125.783 173.308C126.083 172.862 126.293 172.35 126.412 171.773H128.438C128.285 172.628 128.008 173.393 127.605 174.068C127.202 174.743 126.701 175.317 126.102 175.791C125.503 176.259 124.831 176.616 124.085 176.861C123.344 177.106 122.552 177.229 121.708 177.229C120.281 177.229 119.013 176.88 117.902 176.183C116.791 175.486 115.917 174.495 115.28 173.21C114.643 171.925 114.324 170.401 114.324 168.636C114.324 166.872 114.643 165.348 115.28 164.062C115.917 162.777 116.791 161.786 117.902 161.089C119.013 160.393 120.281 160.044 121.708 160.044C122.552 160.044 123.344 160.167 124.085 160.412C124.831 160.657 125.503 161.016 126.102 161.49C126.701 161.958 127.202 162.53 127.605 163.205C128.008 163.875 128.285 164.64 128.438 165.5ZM131.711 177V160.273H141.806V162.07H133.737V167.722H141.284V169.518H133.737V175.203H141.937V177H131.711ZM149.312 168.636C149.312 170.695 149.043 172.589 148.504 174.321C147.97 176.047 147.205 177.637 146.209 179.091H144.51C144.902 178.552 145.267 177.888 145.604 177.098C145.947 176.314 146.247 175.454 146.503 174.517C146.759 173.575 146.957 172.603 147.099 171.601C147.246 170.594 147.319 169.606 147.319 168.636C147.319 167.34 147.194 166.025 146.944 164.691C146.693 163.357 146.356 162.119 145.931 160.975C145.506 159.832 145.032 158.901 144.51 158.182H146.209C147.205 159.636 147.97 161.228 148.504 162.96C149.043 164.686 149.312 166.578 149.312 168.636Z" fill="black"/>
<path d="M1318 6.5L1308.5 6.5L1308.5 25.5L1318 25.5L1318 6.5ZM1544 25.5001C1549.25 25.5001 1553.5 21.2468 1553.5 16.0001C1553.5 10.7534 1549.25 6.50006 1544 6.50006L1544 25.5001ZM1318 25.5L1544 25.5001L1544 6.50006L1318 6.5L1318 25.5Z" fill="#F84F31"/>
<path d="M16 16H1324" stroke="white" stroke-width="31" stroke-linecap="round"/>
<path d="M16 16H1321" stroke="#23C552" stroke-width="19" stroke-linecap="round"/>
<line x1="15.9998" y1="47.9825" x2="16.9998" y2="104.982" stroke="black" stroke-width="2"/>
<line x1="1329" y1="55" x2="1329" y2="116" stroke="black" stroke-width="2"/>
</svg>
