<svg width="1609" height="204" viewBox="0 0 1609 204" fill="none" xmlns="http://www.w3.org/2000/svg">
<line x1="1604" y1="45" x2="1604" y2="106" stroke="black" stroke-width="2"/>
<line x1="653" y1="41" x2="653" y2="96" stroke="black" stroke-width="2"/>
<path d="M528.319 138.358C526.41 138.358 524.71 138.03 523.218 137.374C521.735 136.709 520.564 135.797 519.703 134.638C518.85 133.47 518.412 132.124 518.386 130.598H523.96C523.994 131.237 524.203 131.8 524.586 132.286C524.978 132.763 525.498 133.134 526.146 133.398C526.794 133.662 527.522 133.794 528.332 133.794C529.176 133.794 529.922 133.645 530.569 133.347C531.217 133.048 531.724 132.635 532.091 132.107C532.457 131.578 532.64 130.969 532.64 130.278C532.64 129.58 532.444 128.962 532.052 128.425C531.669 127.879 531.115 127.453 530.39 127.146C529.674 126.839 528.822 126.686 527.833 126.686H525.392V122.621H527.833C528.669 122.621 529.406 122.476 530.045 122.186C530.693 121.896 531.196 121.496 531.554 120.984C531.912 120.464 532.091 119.859 532.091 119.169C532.091 118.513 531.933 117.938 531.618 117.443C531.311 116.94 530.876 116.548 530.314 116.267C529.76 115.986 529.112 115.845 528.37 115.845C527.62 115.845 526.934 115.982 526.312 116.254C525.69 116.518 525.191 116.898 524.816 117.392C524.441 117.886 524.241 118.466 524.216 119.131H518.91C518.936 117.622 519.366 116.293 520.201 115.142C521.037 113.991 522.162 113.092 523.576 112.445C525 111.788 526.606 111.46 528.396 111.46C530.203 111.46 531.784 111.788 533.139 112.445C534.494 113.101 535.547 113.987 536.297 115.104C537.055 116.212 537.43 117.456 537.422 118.837C537.43 120.303 536.974 121.526 536.054 122.506C535.142 123.486 533.953 124.108 532.487 124.372V124.577C534.413 124.824 535.879 125.493 536.885 126.584C537.899 127.666 538.402 129.021 538.393 130.649C538.402 132.141 537.971 133.466 537.102 134.625C536.241 135.784 535.052 136.696 533.535 137.361C532.018 138.026 530.279 138.358 528.319 138.358ZM553.763 111.818V138H548.227V117.072H548.074L542.078 120.831V115.922L548.56 111.818H553.763ZM571.731 145.364C571.04 145.364 570.393 145.308 569.788 145.197C569.191 145.095 568.697 144.963 568.305 144.801L569.532 140.736C570.171 140.932 570.746 141.038 571.258 141.055C571.778 141.072 572.225 140.953 572.6 140.697C572.984 140.442 573.295 140.007 573.533 139.393L573.853 138.562L566.809 118.364H572.536L576.602 132.784H576.806L580.91 118.364H586.675L579.043 140.122C578.677 141.179 578.178 142.099 577.548 142.884C576.925 143.676 576.137 144.286 575.183 144.712C574.228 145.146 573.077 145.364 571.731 145.364ZM597.778 138.384C595.759 138.384 594.02 137.974 592.562 137.156C591.114 136.33 589.997 135.162 589.213 133.653C588.429 132.136 588.037 130.342 588.037 128.271C588.037 126.251 588.429 124.479 589.213 122.953C589.997 121.428 591.101 120.239 592.524 119.386C593.956 118.534 595.635 118.108 597.561 118.108C598.857 118.108 600.063 118.317 601.179 118.734C602.304 119.143 603.284 119.761 604.119 120.588C604.963 121.415 605.619 122.455 606.088 123.707C606.557 124.952 606.791 126.409 606.791 128.08V129.575H590.21V126.2H601.665C601.665 125.416 601.494 124.722 601.153 124.116C600.813 123.511 600.339 123.038 599.734 122.697C599.138 122.348 598.443 122.173 597.651 122.173C596.824 122.173 596.091 122.365 595.452 122.749C594.821 123.124 594.327 123.631 593.969 124.27C593.611 124.901 593.428 125.604 593.419 126.379V129.588C593.419 130.56 593.598 131.399 593.956 132.107C594.322 132.814 594.838 133.359 595.503 133.743C596.168 134.126 596.956 134.318 597.868 134.318C598.473 134.318 599.027 134.233 599.53 134.062C600.033 133.892 600.463 133.636 600.821 133.295C601.179 132.955 601.452 132.537 601.639 132.043L606.676 132.375C606.42 133.585 605.896 134.642 605.104 135.545C604.32 136.44 603.305 137.139 602.061 137.642C600.825 138.136 599.398 138.384 597.778 138.384ZM615.945 138.371C614.692 138.371 613.575 138.153 612.595 137.719C611.615 137.276 610.839 136.624 610.268 135.763C609.706 134.893 609.425 133.811 609.425 132.516C609.425 131.425 609.625 130.509 610.026 129.767C610.426 129.026 610.972 128.429 611.662 127.977C612.352 127.526 613.136 127.185 614.014 126.955C614.901 126.724 615.83 126.562 616.801 126.469C617.943 126.349 618.864 126.239 619.562 126.136C620.261 126.026 620.768 125.864 621.084 125.651C621.399 125.437 621.557 125.122 621.557 124.705V124.628C621.557 123.818 621.301 123.192 620.79 122.749C620.287 122.305 619.571 122.084 618.642 122.084C617.662 122.084 616.882 122.301 616.303 122.736C615.723 123.162 615.339 123.699 615.152 124.347L610.115 123.938C610.371 122.744 610.874 121.713 611.624 120.844C612.374 119.966 613.341 119.293 614.526 118.824C615.719 118.347 617.099 118.108 618.668 118.108C619.759 118.108 620.803 118.236 621.8 118.491C622.805 118.747 623.696 119.143 624.472 119.68C625.256 120.217 625.874 120.908 626.325 121.751C626.777 122.587 627.003 123.588 627.003 124.756V138H621.838V135.277H621.685C621.369 135.891 620.947 136.432 620.419 136.901C619.891 137.361 619.256 137.723 618.514 137.987C617.773 138.243 616.916 138.371 615.945 138.371ZM617.504 134.612C618.305 134.612 619.013 134.455 619.626 134.139C620.24 133.815 620.722 133.381 621.071 132.835C621.42 132.29 621.595 131.672 621.595 130.982V128.898C621.425 129.009 621.19 129.111 620.892 129.205C620.602 129.29 620.274 129.371 619.908 129.447C619.541 129.516 619.175 129.58 618.808 129.639C618.442 129.69 618.109 129.737 617.811 129.78C617.172 129.874 616.614 130.023 616.136 130.227C615.659 130.432 615.288 130.709 615.024 131.058C614.76 131.399 614.628 131.825 614.628 132.337C614.628 133.078 614.896 133.645 615.433 134.037C615.979 134.42 616.669 134.612 617.504 134.612ZM631.228 138V118.364H636.508V121.79H636.712C637.07 120.571 637.671 119.651 638.515 119.028C639.359 118.398 640.33 118.082 641.43 118.082C641.702 118.082 641.996 118.099 642.312 118.134C642.627 118.168 642.904 118.214 643.143 118.274V123.107C642.887 123.03 642.533 122.962 642.082 122.902C641.63 122.842 641.217 122.812 640.842 122.812C640.04 122.812 639.325 122.987 638.694 123.337C638.072 123.678 637.577 124.155 637.211 124.768C636.853 125.382 636.674 126.089 636.674 126.891V138H631.228ZM662.297 123.963L657.311 124.27C657.225 123.844 657.042 123.46 656.761 123.119C656.48 122.77 656.109 122.493 655.649 122.288C655.197 122.075 654.656 121.969 654.025 121.969C653.181 121.969 652.47 122.148 651.89 122.506C651.311 122.855 651.021 123.324 651.021 123.912C651.021 124.381 651.208 124.777 651.583 125.101C651.958 125.425 652.602 125.685 653.514 125.881L657.068 126.597C658.977 126.989 660.4 127.619 661.338 128.489C662.275 129.358 662.744 130.5 662.744 131.915C662.744 133.202 662.365 134.331 661.606 135.303C660.856 136.274 659.825 137.033 658.512 137.578C657.208 138.115 655.704 138.384 654 138.384C651.4 138.384 649.329 137.842 647.787 136.76C646.252 135.669 645.353 134.186 645.089 132.311L650.446 132.03C650.608 132.822 651 133.428 651.622 133.845C652.244 134.254 653.041 134.459 654.012 134.459C654.967 134.459 655.734 134.276 656.314 133.909C656.902 133.534 657.2 133.053 657.208 132.464C657.2 131.97 656.991 131.565 656.582 131.25C656.173 130.926 655.542 130.679 654.69 130.509L651.289 129.831C649.372 129.447 647.944 128.783 647.007 127.837C646.078 126.891 645.613 125.685 645.613 124.219C645.613 122.957 645.954 121.871 646.636 120.959C647.326 120.047 648.294 119.344 649.538 118.849C650.791 118.355 652.257 118.108 653.936 118.108C656.416 118.108 658.368 118.632 659.791 119.68C661.223 120.729 662.058 122.156 662.297 123.963ZM488.807 176.091C488.807 173.406 489.155 170.938 489.851 168.687C490.555 166.428 491.556 164.351 492.856 162.455H495.072C494.56 163.158 494.081 164.024 493.633 165.054C493.193 166.077 492.806 167.202 492.472 168.431C492.138 169.653 491.876 170.917 491.684 172.224C491.499 173.531 491.407 174.82 491.407 176.091C491.407 177.781 491.57 179.496 491.897 181.237C492.224 182.977 492.664 184.592 493.218 186.084C493.772 187.575 494.39 188.79 495.072 189.727H492.856C491.556 187.831 490.555 185.757 489.851 183.506C489.155 181.247 488.807 178.776 488.807 176.091ZM506.409 165.182V187H503.767V167.952H503.64L498.313 171.489V168.804L503.767 165.182H506.409ZM519.801 187.298C518.196 187.298 516.828 186.862 515.699 185.988C514.57 185.107 513.707 183.832 513.11 182.163C512.514 180.487 512.216 178.463 512.216 176.091C512.216 173.733 512.514 171.719 513.11 170.05C513.714 168.374 514.581 167.096 515.71 166.215C516.846 165.327 518.21 164.884 519.801 164.884C521.392 164.884 522.752 165.327 523.881 166.215C525.017 167.096 525.884 168.374 526.48 170.05C527.084 171.719 527.386 173.733 527.386 176.091C527.386 178.463 527.088 180.487 526.491 182.163C525.895 183.832 525.032 185.107 523.902 185.988C522.773 186.862 521.406 187.298 519.801 187.298ZM519.801 184.955C521.392 184.955 522.627 184.187 523.508 182.653C524.389 181.119 524.829 178.932 524.829 176.091C524.829 174.202 524.627 172.593 524.222 171.265C523.824 169.937 523.249 168.925 522.496 168.229C521.75 167.533 520.852 167.185 519.801 167.185C518.224 167.185 516.992 167.962 516.104 169.518C515.216 171.066 514.772 173.257 514.772 176.091C514.772 177.98 514.971 179.585 515.369 180.906C515.767 182.227 516.338 183.232 517.084 183.921C517.837 184.61 518.743 184.955 519.801 184.955ZM538.551 187.298C536.946 187.298 535.578 186.862 534.449 185.988C533.32 185.107 532.457 183.832 531.86 182.163C531.264 180.487 530.966 178.463 530.966 176.091C530.966 173.733 531.264 171.719 531.86 170.05C532.464 168.374 533.331 167.096 534.46 166.215C535.596 165.327 536.96 164.884 538.551 164.884C540.142 164.884 541.502 165.327 542.631 166.215C543.767 167.096 544.634 168.374 545.23 170.05C545.834 171.719 546.136 173.733 546.136 176.091C546.136 178.463 545.838 180.487 545.241 182.163C544.645 183.832 543.782 185.107 542.652 185.988C541.523 186.862 540.156 187.298 538.551 187.298ZM538.551 184.955C540.142 184.955 541.377 184.187 542.258 182.653C543.139 181.119 543.579 178.932 543.579 176.091C543.579 174.202 543.377 172.593 542.972 171.265C542.574 169.937 541.999 168.925 541.246 168.229C540.5 167.533 539.602 167.185 538.551 167.185C536.974 167.185 535.742 167.962 534.854 169.518C533.966 171.066 533.522 173.257 533.522 176.091C533.522 177.98 533.721 179.585 534.119 180.906C534.517 182.227 535.088 183.232 535.834 183.921C536.587 184.61 537.493 184.955 538.551 184.955ZM557.301 187.298C555.696 187.298 554.328 186.862 553.199 185.988C552.07 185.107 551.207 183.832 550.61 182.163C550.014 180.487 549.716 178.463 549.716 176.091C549.716 173.733 550.014 171.719 550.61 170.05C551.214 168.374 552.081 167.096 553.21 166.215C554.346 165.327 555.71 164.884 557.301 164.884C558.892 164.884 560.252 165.327 561.381 166.215C562.517 167.096 563.384 168.374 563.98 170.05C564.584 171.719 564.886 173.733 564.886 176.091C564.886 178.463 564.588 180.487 563.991 182.163C563.395 183.832 562.532 185.107 561.402 185.988C560.273 186.862 558.906 187.298 557.301 187.298ZM557.301 184.955C558.892 184.955 560.127 184.187 561.008 182.653C561.889 181.119 562.329 178.932 562.329 176.091C562.329 174.202 562.127 172.593 561.722 171.265C561.324 169.937 560.749 168.925 559.996 168.229C559.25 167.533 558.352 167.185 557.301 167.185C555.724 167.185 554.492 167.962 553.604 169.518C552.716 171.066 552.272 173.257 552.272 176.091C552.272 177.98 552.471 179.585 552.869 180.906C553.267 182.227 553.838 183.232 554.584 183.921C555.337 184.61 556.243 184.955 557.301 184.955ZM576.051 187.298C574.446 187.298 573.078 186.862 571.949 185.988C570.82 185.107 569.957 183.832 569.36 182.163C568.764 180.487 568.466 178.463 568.466 176.091C568.466 173.733 568.764 171.719 569.36 170.05C569.964 168.374 570.831 167.096 571.96 166.215C573.096 165.327 574.46 164.884 576.051 164.884C577.642 164.884 579.002 165.327 580.131 166.215C581.267 167.096 582.134 168.374 582.73 170.05C583.334 171.719 583.636 173.733 583.636 176.091C583.636 178.463 583.338 180.487 582.741 182.163C582.145 183.832 581.282 185.107 580.152 185.988C579.023 186.862 577.656 187.298 576.051 187.298ZM576.051 184.955C577.642 184.955 578.877 184.187 579.758 182.653C580.639 181.119 581.079 178.932 581.079 176.091C581.079 174.202 580.877 172.593 580.472 171.265C580.074 169.937 579.499 168.925 578.746 168.229C578 167.533 577.102 167.185 576.051 167.185C574.474 167.185 573.242 167.962 572.354 169.518C571.466 171.066 571.022 173.257 571.022 176.091C571.022 177.98 571.221 179.585 571.619 180.906C572.017 182.227 572.588 183.232 573.334 183.921C574.087 184.61 574.993 184.955 576.051 184.955ZM596.505 187V165.182H604.133C605.653 165.182 606.907 165.445 607.894 165.97C608.881 166.489 609.616 167.188 610.099 168.069C610.582 168.942 610.824 169.912 610.824 170.977C610.824 171.915 610.657 172.689 610.323 173.3C609.996 173.911 609.563 174.393 609.023 174.749C608.49 175.104 607.912 175.366 607.287 175.537V175.75C607.954 175.793 608.625 176.027 609.3 176.453C609.975 176.879 610.539 177.49 610.994 178.286C611.449 179.081 611.676 180.054 611.676 181.205C611.676 182.298 611.427 183.282 610.93 184.156C610.433 185.029 609.648 185.722 608.576 186.233C607.503 186.744 606.108 187 604.389 187H596.505ZM599.147 184.656H604.389C606.115 184.656 607.34 184.322 608.064 183.655C608.796 182.98 609.162 182.163 609.162 181.205C609.162 180.466 608.973 179.784 608.597 179.159C608.221 178.527 607.684 178.023 606.988 177.646C606.292 177.263 605.468 177.071 604.517 177.071H599.147V184.656ZM599.147 174.77H604.048C604.843 174.77 605.561 174.614 606.2 174.301C606.846 173.989 607.358 173.548 607.734 172.98C608.118 172.412 608.309 171.744 608.309 170.977C608.309 170.018 607.975 169.205 607.308 168.538C606.64 167.863 605.582 167.526 604.133 167.526H599.147V174.77ZM633.574 172H630.932C630.776 171.24 630.502 170.572 630.112 169.997C629.728 169.422 629.259 168.939 628.705 168.548C628.158 168.151 627.551 167.852 626.884 167.653C626.216 167.455 625.52 167.355 624.795 167.355C623.474 167.355 622.278 167.689 621.205 168.357C620.14 169.024 619.291 170.008 618.659 171.308C618.034 172.607 617.722 174.202 617.722 176.091C617.722 177.98 618.034 179.575 618.659 180.874C619.291 182.174 620.14 183.158 621.205 183.825C622.278 184.493 623.474 184.827 624.795 184.827C625.52 184.827 626.216 184.727 626.884 184.528C627.551 184.33 628.158 184.035 628.705 183.644C629.259 183.246 629.728 182.76 630.112 182.185C630.502 181.602 630.776 180.935 630.932 180.182H633.574C633.375 181.297 633.013 182.295 632.487 183.175C631.962 184.056 631.308 184.805 630.527 185.423C629.746 186.034 628.869 186.499 627.896 186.819C626.93 187.138 625.896 187.298 624.795 187.298C622.935 187.298 621.28 186.844 619.831 185.935C618.382 185.026 617.242 183.733 616.411 182.057C615.58 180.381 615.165 178.392 615.165 176.091C615.165 173.79 615.58 171.801 616.411 170.125C617.242 168.449 618.382 167.156 619.831 166.247C621.28 165.338 622.935 164.884 624.795 164.884C625.896 164.884 626.93 165.043 627.896 165.363C628.869 165.683 629.746 166.151 630.527 166.769C631.308 167.38 631.962 168.126 632.487 169.006C633.013 169.88 633.375 170.878 633.574 172ZM637.843 187V165.182H651.011V167.526H640.485V174.898H650.329V177.241H640.485V184.656H651.181V187H637.843ZM660.801 176.091C660.801 178.776 660.45 181.247 659.747 183.506C659.051 185.757 658.053 187.831 656.753 189.727H654.537C655.048 189.024 655.524 188.158 655.965 187.128C656.412 186.105 656.803 184.983 657.137 183.761C657.47 182.533 657.73 181.265 657.914 179.958C658.106 178.644 658.202 177.355 658.202 176.091C658.202 174.401 658.039 172.685 657.712 170.945C657.385 169.205 656.945 167.589 656.391 166.098C655.837 164.607 655.219 163.392 654.537 162.455H656.753C658.053 164.351 659.051 166.428 659.747 168.687C660.45 170.938 660.801 173.406 660.801 176.091Z" fill="black"/>
<path d="M1461.48 152L1472.33 130.523V130.344H1459.69V125.818H1478.06V130.408L1467.19 152H1461.48ZM1490.93 152.358C1489.02 152.358 1487.32 152.03 1485.83 151.374C1484.35 150.709 1483.18 149.797 1482.32 148.638C1481.46 147.47 1481.02 146.124 1481 144.598H1486.57C1486.61 145.237 1486.82 145.8 1487.2 146.286C1487.59 146.763 1488.11 147.134 1488.76 147.398C1489.41 147.662 1490.14 147.794 1490.95 147.794C1491.79 147.794 1492.53 147.645 1493.18 147.347C1493.83 147.048 1494.34 146.635 1494.7 146.107C1495.07 145.578 1495.25 144.969 1495.25 144.278C1495.25 143.58 1495.06 142.962 1494.67 142.425C1494.28 141.879 1493.73 141.453 1493 141.146C1492.29 140.839 1491.44 140.686 1490.45 140.686H1488V136.621H1490.45C1491.28 136.621 1492.02 136.476 1492.66 136.186C1493.31 135.896 1493.81 135.496 1494.17 134.984C1494.52 134.464 1494.7 133.859 1494.7 133.169C1494.7 132.513 1494.55 131.938 1494.23 131.443C1493.92 130.94 1493.49 130.548 1492.93 130.267C1492.37 129.986 1491.73 129.845 1490.98 129.845C1490.23 129.845 1489.55 129.982 1488.93 130.254C1488.3 130.518 1487.8 130.898 1487.43 131.392C1487.05 131.886 1486.85 132.466 1486.83 133.131H1481.52C1481.55 131.622 1481.98 130.293 1482.81 129.142C1483.65 127.991 1484.77 127.092 1486.19 126.445C1487.61 125.788 1489.22 125.46 1491.01 125.46C1492.82 125.46 1494.4 125.788 1495.75 126.445C1497.11 127.101 1498.16 127.987 1498.91 129.104C1499.67 130.212 1500.04 131.456 1500.03 132.837C1500.04 134.303 1499.59 135.526 1498.67 136.506C1497.75 137.486 1496.57 138.108 1495.1 138.372V138.577C1497.03 138.824 1498.49 139.493 1499.5 140.584C1500.51 141.666 1501.01 143.021 1501.01 144.649C1501.01 146.141 1500.58 147.466 1499.72 148.625C1498.85 149.784 1497.67 150.696 1496.15 151.361C1494.63 152.026 1492.89 152.358 1490.93 152.358ZM1516.73 159.364C1516.04 159.364 1515.39 159.308 1514.79 159.197C1514.19 159.095 1513.7 158.963 1513.3 158.801L1514.53 154.736C1515.17 154.932 1515.75 155.038 1516.26 155.055C1516.78 155.072 1517.23 154.953 1517.6 154.697C1517.98 154.442 1518.29 154.007 1518.53 153.393L1518.85 152.562L1511.81 132.364H1517.54L1521.6 146.784H1521.81L1525.91 132.364H1531.68L1524.04 154.122C1523.68 155.179 1523.18 156.099 1522.55 156.884C1521.93 157.676 1521.14 158.286 1520.18 158.712C1519.23 159.146 1518.08 159.364 1516.73 159.364ZM1542.78 152.384C1540.76 152.384 1539.02 151.974 1537.56 151.156C1536.11 150.33 1535 149.162 1534.21 147.653C1533.43 146.136 1533.04 144.342 1533.04 142.271C1533.04 140.251 1533.43 138.479 1534.21 136.953C1535 135.428 1536.1 134.239 1537.52 133.386C1538.96 132.534 1540.63 132.108 1542.56 132.108C1543.86 132.108 1545.06 132.317 1546.18 132.734C1547.3 133.143 1548.28 133.761 1549.12 134.588C1549.96 135.415 1550.62 136.455 1551.09 137.707C1551.56 138.952 1551.79 140.409 1551.79 142.08V143.575H1535.21V140.2H1546.66C1546.66 139.416 1546.49 138.722 1546.15 138.116C1545.81 137.511 1545.34 137.038 1544.73 136.697C1544.14 136.348 1543.44 136.173 1542.65 136.173C1541.82 136.173 1541.09 136.365 1540.45 136.749C1539.82 137.124 1539.33 137.631 1538.97 138.27C1538.61 138.901 1538.43 139.604 1538.42 140.379V143.588C1538.42 144.56 1538.6 145.399 1538.96 146.107C1539.32 146.814 1539.84 147.359 1540.5 147.743C1541.17 148.126 1541.96 148.318 1542.87 148.318C1543.47 148.318 1544.03 148.233 1544.53 148.062C1545.03 147.892 1545.46 147.636 1545.82 147.295C1546.18 146.955 1546.45 146.537 1546.64 146.043L1551.68 146.375C1551.42 147.585 1550.9 148.642 1550.1 149.545C1549.32 150.44 1548.31 151.139 1547.06 151.642C1545.83 152.136 1544.4 152.384 1542.78 152.384ZM1560.94 152.371C1559.69 152.371 1558.58 152.153 1557.6 151.719C1556.62 151.276 1555.84 150.624 1555.27 149.763C1554.71 148.893 1554.42 147.811 1554.42 146.516C1554.42 145.425 1554.63 144.509 1555.03 143.767C1555.43 143.026 1555.97 142.429 1556.66 141.977C1557.35 141.526 1558.14 141.185 1559.01 140.955C1559.9 140.724 1560.83 140.562 1561.8 140.469C1562.94 140.349 1563.86 140.239 1564.56 140.136C1565.26 140.026 1565.77 139.864 1566.08 139.651C1566.4 139.437 1566.56 139.122 1566.56 138.705V138.628C1566.56 137.818 1566.3 137.192 1565.79 136.749C1565.29 136.305 1564.57 136.084 1563.64 136.084C1562.66 136.084 1561.88 136.301 1561.3 136.736C1560.72 137.162 1560.34 137.699 1560.15 138.347L1555.12 137.938C1555.37 136.744 1555.87 135.713 1556.62 134.844C1557.37 133.966 1558.34 133.293 1559.53 132.824C1560.72 132.347 1562.1 132.108 1563.67 132.108C1564.76 132.108 1565.8 132.236 1566.8 132.491C1567.81 132.747 1568.7 133.143 1569.47 133.68C1570.26 134.217 1570.87 134.908 1571.33 135.751C1571.78 136.587 1572 137.588 1572 138.756V152H1566.84V149.277H1566.68C1566.37 149.891 1565.95 150.432 1565.42 150.901C1564.89 151.361 1564.26 151.723 1563.51 151.987C1562.77 152.243 1561.92 152.371 1560.94 152.371ZM1562.5 148.612C1563.31 148.612 1564.01 148.455 1564.63 148.139C1565.24 147.815 1565.72 147.381 1566.07 146.835C1566.42 146.29 1566.6 145.672 1566.6 144.982V142.898C1566.42 143.009 1566.19 143.111 1565.89 143.205C1565.6 143.29 1565.27 143.371 1564.91 143.447C1564.54 143.516 1564.17 143.58 1563.81 143.639C1563.44 143.69 1563.11 143.737 1562.81 143.78C1562.17 143.874 1561.61 144.023 1561.14 144.227C1560.66 144.432 1560.29 144.709 1560.02 145.058C1559.76 145.399 1559.63 145.825 1559.63 146.337C1559.63 147.078 1559.9 147.645 1560.43 148.037C1560.98 148.42 1561.67 148.612 1562.5 148.612ZM1576.23 152V132.364H1581.51V135.79H1581.71C1582.07 134.571 1582.67 133.651 1583.51 133.028C1584.36 132.398 1585.33 132.082 1586.43 132.082C1586.7 132.082 1587 132.099 1587.31 132.134C1587.63 132.168 1587.9 132.214 1588.14 132.274V137.107C1587.89 137.03 1587.53 136.962 1587.08 136.902C1586.63 136.842 1586.22 136.812 1585.84 136.812C1585.04 136.812 1584.32 136.987 1583.69 137.337C1583.07 137.678 1582.58 138.155 1582.21 138.768C1581.85 139.382 1581.67 140.089 1581.67 140.891V152H1576.23ZM1607.3 137.963L1602.31 138.27C1602.23 137.844 1602.04 137.46 1601.76 137.119C1601.48 136.77 1601.11 136.493 1600.65 136.288C1600.2 136.075 1599.66 135.969 1599.03 135.969C1598.18 135.969 1597.47 136.148 1596.89 136.506C1596.31 136.855 1596.02 137.324 1596.02 137.912C1596.02 138.381 1596.21 138.777 1596.58 139.101C1596.96 139.425 1597.6 139.685 1598.51 139.881L1602.07 140.597C1603.98 140.989 1605.4 141.619 1606.34 142.489C1607.28 143.358 1607.74 144.5 1607.74 145.915C1607.74 147.202 1607.36 148.331 1606.61 149.303C1605.86 150.274 1604.82 151.033 1603.51 151.578C1602.21 152.115 1600.7 152.384 1599 152.384C1596.4 152.384 1594.33 151.842 1592.79 150.76C1591.25 149.669 1590.35 148.186 1590.09 146.311L1595.45 146.03C1595.61 146.822 1596 147.428 1596.62 147.845C1597.24 148.254 1598.04 148.459 1599.01 148.459C1599.97 148.459 1600.73 148.276 1601.31 147.909C1601.9 147.534 1602.2 147.053 1602.21 146.464C1602.2 145.97 1601.99 145.565 1601.58 145.25C1601.17 144.926 1600.54 144.679 1599.69 144.509L1596.29 143.831C1594.37 143.447 1592.94 142.783 1592.01 141.837C1591.08 140.891 1590.61 139.685 1590.61 138.219C1590.61 136.957 1590.95 135.871 1591.64 134.959C1592.33 134.047 1593.29 133.344 1594.54 132.849C1595.79 132.355 1597.26 132.108 1598.94 132.108C1601.42 132.108 1603.37 132.632 1604.79 133.68C1606.22 134.729 1607.06 136.156 1607.3 137.963ZM1516.28 190.091C1516.28 187.406 1516.63 184.938 1517.32 182.687C1518.03 180.428 1519.03 178.351 1520.33 176.455H1522.54C1522.03 177.158 1521.55 178.024 1521.1 179.054C1520.66 180.077 1520.28 181.202 1519.94 182.431C1519.61 183.653 1519.35 184.917 1519.15 186.224C1518.97 187.531 1518.88 188.82 1518.88 190.091C1518.88 191.781 1519.04 193.496 1519.37 195.237C1519.69 196.977 1520.13 198.592 1520.69 200.084C1521.24 201.575 1521.86 202.79 1522.54 203.727H1520.33C1519.03 201.831 1518.03 199.757 1517.32 197.506C1516.63 195.247 1516.28 192.776 1516.28 190.091ZM1526.21 201V199.082L1533.41 191.199C1534.26 190.276 1534.95 189.473 1535.5 188.791C1536.05 188.102 1536.45 187.456 1536.71 186.852C1536.98 186.241 1537.12 185.602 1537.12 184.935C1537.12 184.168 1536.93 183.504 1536.56 182.942C1536.2 182.381 1535.71 181.948 1535.07 181.643C1534.44 181.337 1533.73 181.185 1532.94 181.185C1532.1 181.185 1531.37 181.359 1530.75 181.707C1530.13 182.048 1529.65 182.527 1529.31 183.145C1528.98 183.763 1528.81 184.487 1528.81 185.318H1526.29C1526.29 184.04 1526.59 182.918 1527.18 181.952C1527.77 180.986 1528.57 180.233 1529.59 179.693C1530.61 179.153 1531.76 178.884 1533.03 178.884C1534.31 178.884 1535.44 179.153 1536.43 179.693C1537.41 180.233 1538.19 180.961 1538.75 181.877C1539.31 182.793 1539.59 183.812 1539.59 184.935C1539.59 185.737 1539.44 186.522 1539.15 187.289C1538.87 188.049 1538.37 188.898 1537.66 189.835C1536.96 190.766 1535.98 191.902 1534.73 193.244L1529.83 198.486V198.656H1539.97V201H1526.21ZM1551.49 201.298C1549.89 201.298 1548.52 200.862 1547.39 199.988C1546.26 199.107 1545.4 197.832 1544.8 196.163C1544.2 194.487 1543.91 192.463 1543.91 190.091C1543.91 187.733 1544.2 185.719 1544.8 184.05C1545.4 182.374 1546.27 181.096 1547.4 180.215C1548.54 179.327 1549.9 178.884 1551.49 178.884C1553.08 178.884 1554.44 179.327 1555.57 180.215C1556.71 181.096 1557.57 182.374 1558.17 184.05C1558.77 185.719 1559.08 187.733 1559.08 190.091C1559.08 192.463 1558.78 194.487 1558.18 196.163C1557.58 197.832 1556.72 199.107 1555.59 199.988C1554.46 200.862 1553.1 201.298 1551.49 201.298ZM1551.49 198.955C1553.08 198.955 1554.32 198.187 1555.2 196.653C1556.08 195.119 1556.52 192.932 1556.52 190.091C1556.52 188.202 1556.32 186.593 1555.91 185.265C1555.51 183.937 1554.94 182.925 1554.19 182.229C1553.44 181.533 1552.54 181.185 1551.49 181.185C1549.91 181.185 1548.68 181.962 1547.79 183.518C1546.91 185.066 1546.46 187.257 1546.46 190.091C1546.46 191.98 1546.66 193.585 1547.06 194.906C1547.46 196.227 1548.03 197.232 1548.77 197.921C1549.53 198.61 1550.43 198.955 1551.49 198.955ZM1563.12 201V199.082L1570.33 191.199C1571.17 190.276 1571.87 189.473 1572.41 188.791C1572.96 188.102 1573.37 187.456 1573.63 186.852C1573.9 186.241 1574.03 185.602 1574.03 184.935C1574.03 184.168 1573.85 183.504 1573.48 182.942C1573.12 182.381 1572.62 181.948 1571.99 181.643C1571.36 181.337 1570.65 181.185 1569.86 181.185C1569.02 181.185 1568.29 181.359 1567.66 181.707C1567.04 182.048 1566.56 182.527 1566.22 183.145C1565.89 183.763 1565.72 184.487 1565.72 185.318H1563.21C1563.21 184.04 1563.5 182.918 1564.09 181.952C1564.68 180.986 1565.49 180.233 1566.5 179.693C1567.52 179.153 1568.67 178.884 1569.94 178.884C1571.22 178.884 1572.35 179.153 1573.34 179.693C1574.33 180.233 1575.1 180.961 1575.66 181.877C1576.22 182.793 1576.5 183.812 1576.5 184.935C1576.5 185.737 1576.36 186.522 1576.07 187.289C1575.78 188.049 1575.29 188.898 1574.58 189.835C1573.87 190.766 1572.9 191.902 1571.65 193.244L1566.75 198.486V198.656H1576.89V201H1563.12ZM1588.66 201.298C1587.25 201.298 1586 201.057 1584.9 200.574C1583.81 200.091 1582.94 199.42 1582.29 198.56C1581.65 197.694 1581.3 196.689 1581.25 195.545H1583.93C1583.99 196.249 1584.23 196.856 1584.65 197.367C1585.08 197.871 1585.64 198.262 1586.33 198.539C1587.02 198.816 1587.78 198.955 1588.62 198.955C1589.55 198.955 1590.39 198.791 1591.11 198.464C1591.83 198.138 1592.4 197.683 1592.81 197.101C1593.23 196.518 1593.43 195.844 1593.43 195.077C1593.43 194.274 1593.23 193.567 1592.84 192.957C1592.44 192.339 1591.86 191.856 1591.09 191.508C1590.32 191.16 1589.38 190.986 1588.28 190.986H1586.53V188.642H1588.28C1589.14 188.642 1589.9 188.486 1590.56 188.173C1591.22 187.861 1591.73 187.42 1592.1 186.852C1592.48 186.284 1592.67 185.616 1592.67 184.849C1592.67 184.111 1592.5 183.468 1592.18 182.921C1591.85 182.374 1591.39 181.948 1590.79 181.643C1590.2 181.337 1589.51 181.185 1588.7 181.185C1587.95 181.185 1587.24 181.323 1586.57 181.6C1585.91 181.87 1585.37 182.264 1584.95 182.783C1584.53 183.294 1584.31 183.912 1584.27 184.636H1581.71C1581.76 183.493 1582.1 182.491 1582.75 181.632C1583.39 180.766 1584.24 180.091 1585.28 179.608C1586.33 179.125 1587.49 178.884 1588.75 178.884C1590.09 178.884 1591.25 179.157 1592.22 179.704C1593.18 180.244 1593.93 180.957 1594.44 181.845C1594.96 182.733 1595.22 183.692 1595.22 184.722C1595.22 185.95 1594.9 186.998 1594.25 187.864C1593.61 188.731 1592.74 189.331 1591.64 189.665V189.835C1593.02 190.062 1594.1 190.648 1594.87 191.593C1595.65 192.531 1596.03 193.692 1596.03 195.077C1596.03 196.263 1595.71 197.328 1595.06 198.273C1594.42 199.21 1593.55 199.949 1592.44 200.489C1591.33 201.028 1590.07 201.298 1588.66 201.298ZM1605.8 190.091C1605.8 192.776 1605.45 195.247 1604.75 197.506C1604.05 199.757 1603.05 201.831 1601.75 203.727H1599.54C1600.05 203.024 1600.52 202.158 1600.96 201.128C1601.41 200.105 1601.8 198.983 1602.14 197.761C1602.47 196.533 1602.73 195.265 1602.91 193.958C1603.11 192.644 1603.2 191.355 1603.2 190.091C1603.2 188.401 1603.04 186.685 1602.71 184.945C1602.39 183.205 1601.94 181.589 1601.39 180.098C1600.84 178.607 1600.22 177.392 1599.54 176.455H1601.75C1603.05 178.351 1604.05 180.428 1604.75 182.687C1605.45 184.938 1605.8 187.406 1605.8 190.091Z" fill="black"/>
<path d="M16 16H1596" stroke="#81C2E7" stroke-width="20" stroke-linecap="round"/>
<path d="M16 16H646" stroke="white" stroke-width="32" stroke-linecap="round"/>
<path d="M16 16H646" stroke="#2D86D8" stroke-width="20" stroke-linecap="round"/>
</svg>
