<svg width="413" height="120" viewBox="0 0 413 120" fill="none" xmlns="http://www.w3.org/2000/svg">
<path d="M167.69 94.1491C166.895 94.1491 166.186 94.0124 165.565 93.739C164.947 93.462 164.458 93.082 164.1 92.5991C163.745 92.1126 163.562 91.5515 163.551 90.9158H165.874C165.888 91.1822 165.975 91.4165 166.135 91.619C166.298 91.8178 166.515 91.9723 166.784 92.0824C167.054 92.1925 167.358 92.2475 167.695 92.2475C168.047 92.2475 168.358 92.1854 168.627 92.0611C168.897 91.9368 169.109 91.7646 169.261 91.5444C169.414 91.3242 169.49 91.0703 169.49 90.7827C169.49 90.4915 169.409 90.234 169.245 90.0103C169.086 89.783 168.855 89.6055 168.553 89.4776C168.255 89.3498 167.9 89.2859 167.488 89.2859H166.47V87.592H167.488C167.836 87.592 168.143 87.5316 168.409 87.4109C168.679 87.2901 168.888 87.1232 169.038 86.9102C169.187 86.6935 169.261 86.4414 169.261 86.1538C169.261 85.8803 169.196 85.6406 169.064 85.4347C168.936 85.2251 168.755 85.0618 168.521 84.9446C168.29 84.8274 168.02 84.7688 167.711 84.7688C167.399 84.7688 167.113 84.8256 166.854 84.9393C166.594 85.0494 166.387 85.2074 166.23 85.4134C166.074 85.6193 165.991 85.8608 165.98 86.1378H163.77C163.78 85.5092 163.96 84.9553 164.308 84.4759C164.656 83.9964 165.124 83.6218 165.714 83.3519C166.307 83.0785 166.976 82.9418 167.722 82.9418C168.475 82.9418 169.134 83.0785 169.698 83.3519C170.263 83.6254 170.701 83.9947 171.014 84.4599C171.33 84.9215 171.486 85.44 171.483 86.0153C171.486 86.6261 171.296 87.1357 170.913 87.544C170.533 87.9524 170.037 88.2116 169.426 88.3217V88.407C170.229 88.5099 170.84 88.7887 171.259 89.2433C171.681 89.6942 171.891 90.2589 171.887 90.9371C171.891 91.5586 171.712 92.1108 171.349 92.5938C170.991 93.0767 170.495 93.4567 169.863 93.7337C169.231 94.0107 168.507 94.1491 167.69 94.1491ZM178.291 83.0909V94H175.985V85.2802H175.921L173.423 86.8462V84.8008L176.123 83.0909H178.291ZM92.4037 106.545C92.4037 105.203 92.5777 103.969 92.9257 102.843C93.2773 101.714 93.778 100.675 94.4278 99.7273H95.5358C95.2801 100.079 95.0404 100.512 94.8167 101.027C94.5965 101.538 94.403 102.101 94.2361 102.716C94.0692 103.326 93.9378 103.958 93.8419 104.612C93.7496 105.265 93.7034 105.91 93.7034 106.545C93.7034 107.391 93.7851 108.248 93.9484 109.118C94.1118 109.988 94.3319 110.796 94.6089 111.542C94.8859 112.288 95.1949 112.895 95.5358 113.364H94.4278C93.778 112.415 93.2773 111.379 92.9257 110.253C92.5777 109.124 92.4037 107.888 92.4037 106.545ZM101.205 101.091V112H99.8837V102.476H99.8198L97.1564 104.244V102.902L99.8837 101.091H101.205ZM107.9 112.149C107.098 112.149 106.414 111.931 105.85 111.494C105.285 111.054 104.854 110.416 104.555 109.582C104.257 108.744 104.108 107.732 104.108 106.545C104.108 105.366 104.257 104.36 104.555 103.525C104.857 102.687 105.29 102.048 105.855 101.608C106.423 101.164 107.105 100.942 107.9 100.942C108.696 100.942 109.376 101.164 109.941 101.608C110.509 102.048 110.942 102.687 111.24 103.525C111.542 104.36 111.693 105.366 111.693 106.545C111.693 107.732 111.544 108.744 111.246 109.582C110.947 110.416 110.516 111.054 109.951 111.494C109.387 111.931 108.703 112.149 107.9 112.149ZM107.9 110.977C108.696 110.977 109.314 110.594 109.754 109.827C110.194 109.06 110.415 107.966 110.415 106.545C110.415 105.601 110.313 104.797 110.111 104.132C109.912 103.468 109.624 102.962 109.248 102.614C108.875 102.266 108.426 102.092 107.9 102.092C107.112 102.092 106.496 102.481 106.052 103.259C105.608 104.033 105.386 105.129 105.386 106.545C105.386 107.49 105.486 108.293 105.684 108.953C105.883 109.614 106.169 110.116 106.542 110.461C106.919 110.805 107.371 110.977 107.9 110.977ZM117.275 112.149C116.473 112.149 115.789 111.931 115.225 111.494C114.66 111.054 114.229 110.416 113.93 109.582C113.632 108.744 113.483 107.732 113.483 106.545C113.483 105.366 113.632 104.36 113.93 103.525C114.232 102.687 114.665 102.048 115.23 101.608C115.798 101.164 116.48 100.942 117.275 100.942C118.071 100.942 118.751 101.164 119.316 101.608C119.884 102.048 120.317 102.687 120.615 103.525C120.917 104.36 121.068 105.366 121.068 106.545C121.068 107.732 120.919 108.744 120.621 109.582C120.322 110.416 119.891 111.054 119.326 111.494C118.762 111.931 118.078 112.149 117.275 112.149ZM117.275 110.977C118.071 110.977 118.689 110.594 119.129 109.827C119.569 109.06 119.79 107.966 119.79 106.545C119.79 105.601 119.688 104.797 119.486 104.132C119.287 103.468 118.999 102.962 118.623 102.614C118.25 102.266 117.801 102.092 117.275 102.092C116.487 102.092 115.871 102.481 115.427 103.259C114.983 104.033 114.761 105.129 114.761 106.545C114.761 107.49 114.861 108.293 115.059 108.953C115.258 109.614 115.544 110.116 115.917 110.461C116.294 110.805 116.746 110.977 117.275 110.977ZM126.65 112.149C125.848 112.149 125.164 111.931 124.6 111.494C124.035 111.054 123.604 110.416 123.305 109.582C123.007 108.744 122.858 107.732 122.858 106.545C122.858 105.366 123.007 104.36 123.305 103.525C123.607 102.687 124.04 102.048 124.605 101.608C125.173 101.164 125.855 100.942 126.65 100.942C127.446 100.942 128.126 101.164 128.691 101.608C129.259 102.048 129.692 102.687 129.99 103.525C130.292 104.36 130.443 105.366 130.443 106.545C130.443 107.732 130.294 108.744 129.996 109.582C129.697 110.416 129.266 111.054 128.701 111.494C128.137 111.931 127.453 112.149 126.65 112.149ZM126.65 110.977C127.446 110.977 128.064 110.594 128.504 109.827C128.944 109.06 129.165 107.966 129.165 106.545C129.165 105.601 129.063 104.797 128.861 104.132C128.662 103.468 128.374 102.962 127.998 102.614C127.625 102.266 127.176 102.092 126.65 102.092C125.862 102.092 125.246 102.481 124.802 103.259C124.358 104.033 124.136 105.129 124.136 106.545C124.136 107.49 124.236 108.293 124.434 108.953C124.633 109.614 124.919 110.116 125.292 110.461C125.669 110.805 126.121 110.977 126.65 110.977ZM136.025 112.149C135.223 112.149 134.539 111.931 133.975 111.494C133.41 111.054 132.979 110.416 132.68 109.582C132.382 108.744 132.233 107.732 132.233 106.545C132.233 105.366 132.382 104.36 132.68 103.525C132.982 102.687 133.415 102.048 133.98 101.608C134.548 101.164 135.23 100.942 136.025 100.942C136.821 100.942 137.501 101.164 138.066 101.608C138.634 102.048 139.067 102.687 139.365 103.525C139.667 104.36 139.818 105.366 139.818 106.545C139.818 107.732 139.669 108.744 139.371 109.582C139.072 110.416 138.641 111.054 138.076 111.494C137.512 111.931 136.828 112.149 136.025 112.149ZM136.025 110.977C136.821 110.977 137.439 110.594 137.879 109.827C138.319 109.06 138.54 107.966 138.54 106.545C138.54 105.601 138.438 104.797 138.236 104.132C138.037 103.468 137.749 102.962 137.373 102.614C137 102.266 136.551 102.092 136.025 102.092C135.237 102.092 134.621 102.481 134.177 103.259C133.733 104.033 133.511 105.129 133.511 106.545C133.511 107.49 133.611 108.293 133.809 108.953C134.008 109.614 134.294 110.116 134.667 110.461C135.044 110.805 135.496 110.977 136.025 110.977ZM146.253 112V101.091H150.067C150.827 101.091 151.453 101.222 151.947 101.485C152.441 101.744 152.808 102.094 153.05 102.534C153.291 102.971 153.412 103.456 153.412 103.989C153.412 104.457 153.328 104.844 153.161 105.15C152.998 105.455 152.781 105.697 152.512 105.874C152.245 106.052 151.956 106.183 151.643 106.268V106.375C151.977 106.396 152.313 106.513 152.65 106.727C152.987 106.94 153.27 107.245 153.497 107.643C153.724 108.04 153.838 108.527 153.838 109.102C153.838 109.649 153.714 110.141 153.465 110.578C153.216 111.015 152.824 111.361 152.288 111.616C151.752 111.872 151.054 112 150.194 112H146.253ZM147.574 110.828H150.194C151.057 110.828 151.67 110.661 152.032 110.327C152.398 109.99 152.581 109.582 152.581 109.102C152.581 108.733 152.487 108.392 152.298 108.08C152.11 107.763 151.842 107.511 151.494 107.323C151.146 107.131 150.734 107.036 150.258 107.036H147.574V110.828ZM147.574 105.885H150.024C150.422 105.885 150.78 105.807 151.1 105.651C151.423 105.494 151.679 105.274 151.867 104.99C152.059 104.706 152.155 104.372 152.155 103.989C152.155 103.509 151.988 103.103 151.654 102.769C151.32 102.431 150.791 102.263 150.067 102.263H147.574V105.885ZM164.787 104.5H163.466C163.388 104.12 163.251 103.786 163.056 103.499C162.864 103.211 162.63 102.969 162.353 102.774C162.079 102.575 161.776 102.426 161.442 102.327C161.108 102.227 160.76 102.178 160.398 102.178C159.737 102.178 159.139 102.344 158.603 102.678C158.07 103.012 157.646 103.504 157.33 104.154C157.017 104.804 156.861 105.601 156.861 106.545C156.861 107.49 157.017 108.287 157.33 108.937C157.646 109.587 158.07 110.079 158.603 110.413C159.139 110.746 159.737 110.913 160.398 110.913C160.76 110.913 161.108 110.864 161.442 110.764C161.776 110.665 162.079 110.517 162.353 110.322C162.63 110.123 162.864 109.88 163.056 109.592C163.251 109.301 163.388 108.967 163.466 108.591H164.787C164.688 109.148 164.506 109.647 164.244 110.088C163.981 110.528 163.654 110.903 163.263 111.212C162.873 111.517 162.434 111.75 161.948 111.909C161.465 112.069 160.948 112.149 160.398 112.149C159.467 112.149 158.64 111.922 157.915 111.467C157.191 111.013 156.621 110.366 156.206 109.528C155.79 108.69 155.582 107.696 155.582 106.545C155.582 105.395 155.79 104.401 156.206 103.562C156.621 102.724 157.191 102.078 157.915 101.624C158.64 101.169 159.467 100.942 160.398 100.942C160.948 100.942 161.465 101.022 161.948 101.181C162.434 101.341 162.873 101.576 163.263 101.885C163.654 102.19 163.981 102.563 164.244 103.003C164.506 103.44 164.688 103.939 164.787 104.5ZM166.922 112V101.091H173.505V102.263H168.243V105.949H173.165V107.121H168.243V110.828H173.591V112H166.922ZM178.401 106.545C178.401 107.888 178.225 109.124 177.873 110.253C177.525 111.379 177.026 112.415 176.377 113.364H175.269C175.524 113.012 175.762 112.579 175.982 112.064C176.206 111.553 176.401 110.991 176.568 110.381C176.735 109.766 176.865 109.132 176.957 108.479C177.053 107.822 177.101 107.178 177.101 106.545C177.101 105.7 177.019 104.843 176.856 103.973C176.693 103.103 176.472 102.295 176.195 101.549C175.918 100.803 175.609 100.196 175.269 99.7273H176.377C177.026 100.675 177.525 101.714 177.873 102.843C178.225 103.969 178.401 105.203 178.401 106.545Z" fill="black"/>
<path d="M394.756 98L399.278 89.0511V88.9766H394.01V87.0909H401.665V89.0032L397.137 98H394.756ZM407.029 98.1491C406.233 98.1491 405.525 98.0124 404.903 97.739C404.286 97.462 403.797 97.082 403.439 96.5991C403.084 96.1126 402.901 95.5515 402.89 94.9158H405.212C405.227 95.1822 405.314 95.4165 405.473 95.619C405.637 95.8178 405.853 95.9723 406.123 96.0824C406.393 96.1925 406.697 96.2475 407.034 96.2475C407.386 96.2475 407.696 96.1854 407.966 96.0611C408.236 95.9368 408.448 95.7646 408.6 95.5444C408.753 95.3242 408.829 95.0703 408.829 94.7827C408.829 94.4915 408.748 94.234 408.584 94.0103C408.424 93.783 408.194 93.6055 407.892 93.4776C407.593 93.3498 407.238 93.2859 406.826 93.2859H405.809V91.592H406.826C407.174 91.592 407.482 91.5316 407.748 91.4109C408.018 91.2901 408.227 91.1232 408.377 90.9102C408.526 90.6935 408.6 90.4414 408.6 90.1538C408.6 89.8803 408.535 89.6406 408.403 89.4347C408.275 89.2251 408.094 89.0618 407.86 88.9446C407.629 88.8274 407.359 88.7688 407.05 88.7688C406.738 88.7688 406.452 88.8256 406.193 88.9393C405.933 89.0494 405.726 89.2074 405.569 89.4134C405.413 89.6193 405.33 89.8608 405.319 90.1378H403.108C403.119 89.5092 403.298 88.9553 403.646 88.4759C403.994 87.9964 404.463 87.6218 405.053 87.3519C405.646 87.0785 406.315 86.9418 407.061 86.9418C407.814 86.9418 408.472 87.0785 409.037 87.3519C409.602 87.6254 410.04 87.9947 410.353 88.4599C410.669 88.9215 410.825 89.44 410.821 90.0153C410.825 90.6261 410.635 91.1357 410.252 91.544C409.872 91.9524 409.376 92.2116 408.765 92.3217V92.407C409.568 92.5099 410.179 92.7887 410.598 93.2433C411.02 93.6942 411.23 94.2589 411.226 94.9371C411.23 95.5586 411.051 96.1108 410.688 96.5938C410.33 97.0767 409.834 97.4567 409.202 97.7337C408.57 98.0107 407.846 98.1491 407.029 98.1491ZM365.639 110.545C365.639 109.203 365.813 107.969 366.161 106.843C366.513 105.714 367.013 104.675 367.663 103.727H368.771C368.515 104.079 368.276 104.512 368.052 105.027C367.832 105.538 367.638 106.101 367.471 106.716C367.305 107.326 367.173 107.958 367.077 108.612C366.985 109.265 366.939 109.91 366.939 110.545C366.939 111.391 367.02 112.248 367.184 113.118C367.347 113.988 367.567 114.796 367.844 115.542C368.121 116.288 368.43 116.895 368.771 117.364H367.663C367.013 116.415 366.513 115.379 366.161 114.253C365.813 113.124 365.639 111.888 365.639 110.545ZM370.605 116V115.041L374.206 111.099C374.628 110.638 374.976 110.237 375.25 109.896C375.523 109.551 375.726 109.228 375.857 108.926C375.992 108.621 376.059 108.301 376.059 107.967C376.059 107.584 375.967 107.252 375.782 106.971C375.601 106.691 375.353 106.474 375.037 106.321C374.721 106.169 374.366 106.092 373.971 106.092C373.552 106.092 373.187 106.179 372.874 106.353C372.565 106.524 372.325 106.763 372.155 107.072C371.988 107.381 371.905 107.744 371.905 108.159H370.647C370.647 107.52 370.795 106.959 371.09 106.476C371.384 105.993 371.786 105.616 372.293 105.347C372.805 105.077 373.378 104.942 374.014 104.942C374.653 104.942 375.22 105.077 375.713 105.347C376.207 105.616 376.594 105.98 376.874 106.439C377.155 106.897 377.295 107.406 377.295 107.967C377.295 108.369 377.222 108.761 377.077 109.145C376.935 109.525 376.686 109.949 376.331 110.418C375.979 110.883 375.491 111.451 374.866 112.122L372.416 114.743V114.828H377.487V116H370.605ZM383.245 116.149C382.443 116.149 381.759 115.931 381.194 115.494C380.63 115.054 380.198 114.416 379.9 113.582C379.602 112.744 379.453 111.732 379.453 110.545C379.453 109.366 379.602 108.36 379.9 107.525C380.202 106.687 380.635 106.048 381.2 105.608C381.768 105.164 382.45 104.942 383.245 104.942C384.041 104.942 384.721 105.164 385.285 105.608C385.853 106.048 386.287 106.687 386.585 107.525C386.887 108.36 387.038 109.366 387.038 110.545C387.038 111.732 386.889 112.744 386.59 113.582C386.292 114.416 385.861 115.054 385.296 115.494C384.731 115.931 384.048 116.149 383.245 116.149ZM383.245 114.977C384.041 114.977 384.658 114.594 385.099 113.827C385.539 113.06 385.759 111.966 385.759 110.545C385.759 109.601 385.658 108.797 385.456 108.132C385.257 107.468 384.969 106.962 384.593 106.614C384.22 106.266 383.771 106.092 383.245 106.092C382.457 106.092 381.841 106.481 381.397 107.259C380.953 108.033 380.731 109.129 380.731 110.545C380.731 111.49 380.83 112.293 381.029 112.953C381.228 113.614 381.514 114.116 381.887 114.461C382.263 114.805 382.716 114.977 383.245 114.977ZM389.062 116V115.041L392.663 111.099C393.085 110.638 393.433 110.237 393.707 109.896C393.98 109.551 394.183 109.228 394.314 108.926C394.449 108.621 394.516 108.301 394.516 107.967C394.516 107.584 394.424 107.252 394.239 106.971C394.058 106.691 393.81 106.474 393.494 106.321C393.178 106.169 392.823 106.092 392.428 106.092C392.009 106.092 391.644 106.179 391.331 106.353C391.022 106.524 390.782 106.763 390.612 107.072C390.445 107.381 390.362 107.744 390.362 108.159H389.104C389.104 107.52 389.252 106.959 389.547 106.476C389.841 105.993 390.243 105.616 390.75 105.347C391.262 105.077 391.835 104.942 392.471 104.942C393.11 104.942 393.677 105.077 394.17 105.347C394.664 105.616 395.051 105.98 395.331 106.439C395.612 106.897 395.752 107.406 395.752 107.967C395.752 108.369 395.679 108.761 395.534 109.145C395.392 109.525 395.143 109.949 394.788 110.418C394.437 110.883 393.948 111.451 393.323 112.122L390.873 114.743V114.828H395.944V116H389.062ZM401.83 116.149C401.127 116.149 400.5 116.028 399.95 115.787C399.403 115.545 398.968 115.21 398.645 114.78C398.325 114.347 398.151 113.844 398.123 113.273H399.465C399.493 113.624 399.614 113.928 399.827 114.184C400.04 114.436 400.319 114.631 400.663 114.77C401.008 114.908 401.39 114.977 401.809 114.977C402.277 114.977 402.693 114.896 403.055 114.732C403.417 114.569 403.701 114.342 403.907 114.05C404.113 113.759 404.216 113.422 404.216 113.038C404.216 112.637 404.117 112.284 403.918 111.978C403.719 111.669 403.428 111.428 403.044 111.254C402.661 111.08 402.192 110.993 401.638 110.993H400.765V109.821H401.638C402.071 109.821 402.451 109.743 402.778 109.587C403.108 109.43 403.366 109.21 403.551 108.926C403.739 108.642 403.833 108.308 403.833 107.925C403.833 107.555 403.751 107.234 403.588 106.961C403.424 106.687 403.194 106.474 402.895 106.321C402.601 106.169 402.253 106.092 401.851 106.092C401.475 106.092 401.12 106.162 400.786 106.3C400.456 106.435 400.186 106.632 399.976 106.891C399.767 107.147 399.653 107.456 399.635 107.818H398.357C398.378 107.246 398.551 106.746 398.874 106.316C399.197 105.883 399.619 105.545 400.141 105.304C400.667 105.062 401.244 104.942 401.873 104.942C402.547 104.942 403.126 105.078 403.609 105.352C404.092 105.622 404.463 105.979 404.722 106.423C404.982 106.866 405.111 107.346 405.111 107.861C405.111 108.475 404.95 108.999 404.627 109.432C404.307 109.865 403.872 110.165 403.321 110.332V110.418C404.01 110.531 404.548 110.824 404.935 111.297C405.323 111.765 405.516 112.346 405.516 113.038C405.516 113.631 405.354 114.164 405.031 114.636C404.712 115.105 404.275 115.474 403.721 115.744C403.167 116.014 402.537 116.149 401.83 116.149ZM410.401 110.545C410.401 111.888 410.225 113.124 409.873 114.253C409.525 115.379 409.026 116.415 408.377 117.364H407.269C407.524 117.012 407.762 116.579 407.982 116.064C408.206 115.553 408.401 114.991 408.568 114.381C408.735 113.766 408.865 113.132 408.957 112.479C409.053 111.822 409.101 111.178 409.101 110.545C409.101 109.7 409.019 108.843 408.856 107.973C408.693 107.103 408.472 106.295 408.195 105.549C407.918 104.803 407.609 104.196 407.269 103.727H408.377C409.026 104.675 409.525 105.714 409.873 106.843C410.225 107.969 410.401 109.203 410.401 110.545Z" fill="black"/>
<line x1="177.5" y1="20" x2="177.5" y2="70" stroke="black"/>
<line x1="408.5" y1="23" x2="408.5" y2="73" stroke="black"/>
<path d="M8 8H408" stroke="#81C2E7" stroke-width="9" stroke-linecap="round"/>
<path d="M8 8H175" stroke="white" stroke-width="15" stroke-linecap="round"/>
<path d="M8 8H175" stroke="#2D86D8" stroke-width="9" stroke-linecap="round"/>
</svg>
