<svg width="1647" height="164" viewBox="0 0 1647 164" fill="none" xmlns="http://www.w3.org/2000/svg">
<path d="M40 16H1575" stroke="#CEEBF8" stroke-width="20" stroke-linecap="round"/>
<g filter="url(#filter0_d_77_107)">
<path d="M1493.99 110.044C1494.85 110.044 1495.68 110.188 1496.48 110.477C1497.28 110.766 1497.99 111.226 1498.62 111.857C1499.25 112.489 1499.75 113.327 1500.11 114.373C1500.48 115.413 1500.67 116.69 1500.68 118.203C1500.68 119.625 1500.51 120.893 1500.19 122.01C1499.88 123.12 1499.42 124.065 1498.83 124.844C1498.24 125.622 1497.52 126.216 1496.68 126.624C1495.84 127.027 1494.91 127.229 1493.87 127.229C1492.76 127.229 1491.77 127.014 1490.91 126.583C1490.06 126.148 1489.37 125.557 1488.85 124.811C1488.33 124.06 1488.02 123.216 1487.91 122.279H1491.4C1491.53 122.889 1491.82 123.363 1492.25 123.7C1492.69 124.032 1493.23 124.199 1493.87 124.199C1494.96 124.199 1495.79 123.725 1496.35 122.777C1496.92 121.824 1497.21 120.52 1497.21 118.865H1497.1C1496.85 119.355 1496.51 119.777 1496.08 120.131C1495.66 120.48 1495.17 120.749 1494.62 120.94C1494.08 121.13 1493.5 121.225 1492.88 121.225C1491.9 121.225 1491.02 120.994 1490.25 120.531C1489.47 120.068 1488.86 119.431 1488.42 118.62C1487.97 117.809 1487.75 116.883 1487.75 115.843C1487.74 114.721 1488 113.722 1488.52 112.846C1489.04 111.969 1489.77 111.283 1490.71 110.787C1491.65 110.286 1492.75 110.039 1493.99 110.044ZM1494.02 112.821C1493.47 112.821 1492.98 112.952 1492.55 113.213C1492.12 113.474 1491.79 113.826 1491.54 114.267C1491.29 114.708 1491.17 115.201 1491.18 115.745C1491.18 116.295 1491.3 116.79 1491.54 117.232C1491.78 117.667 1492.11 118.016 1492.53 118.277C1492.96 118.533 1493.44 118.661 1493.99 118.661C1494.39 118.661 1494.77 118.585 1495.12 118.432C1495.47 118.28 1495.77 118.07 1496.03 117.803C1496.29 117.531 1496.49 117.218 1496.64 116.864C1496.79 116.51 1496.86 116.134 1496.86 115.737C1496.86 115.209 1496.73 114.724 1496.49 114.283C1496.24 113.842 1495.9 113.488 1495.47 113.221C1495.04 112.954 1494.56 112.821 1494.02 112.821ZM1509.68 127.368C1508.28 127.362 1507.07 127.016 1506.06 126.33C1505.05 125.644 1504.27 124.65 1503.73 123.349C1503.19 122.048 1502.92 120.482 1502.93 118.653C1502.93 116.829 1503.2 115.274 1503.74 113.989C1504.28 112.704 1505.06 111.727 1506.07 111.057C1507.08 110.382 1508.28 110.044 1509.68 110.044C1511.08 110.044 1512.29 110.382 1513.29 111.057C1514.31 111.732 1515.09 112.712 1515.63 113.997C1516.17 115.277 1516.44 116.829 1516.44 118.653C1516.44 120.488 1516.17 122.056 1515.62 123.357C1515.08 124.659 1514.31 125.652 1513.3 126.338C1512.29 127.025 1511.09 127.368 1509.68 127.368ZM1509.68 124.435C1510.64 124.435 1511.41 123.953 1511.98 122.99C1512.55 122.026 1512.83 120.58 1512.83 118.653C1512.83 117.384 1512.7 116.328 1512.44 115.484C1512.18 114.64 1511.82 114.005 1511.34 113.581C1510.87 113.156 1510.32 112.944 1509.68 112.944C1508.73 112.944 1507.97 113.42 1507.4 114.373C1506.83 115.326 1506.54 116.752 1506.53 118.653C1506.53 119.938 1506.66 121.01 1506.92 121.871C1507.18 122.726 1507.54 123.368 1508.02 123.798C1508.49 124.223 1509.05 124.435 1509.68 124.435ZM1526.46 131.705C1526.02 131.705 1525.61 131.669 1525.22 131.598C1524.84 131.533 1524.53 131.449 1524.28 131.345L1525.06 128.748C1525.47 128.873 1525.84 128.941 1526.16 128.952C1526.49 128.963 1526.78 128.887 1527.02 128.723C1527.26 128.56 1527.46 128.282 1527.62 127.89L1527.82 127.359L1523.32 114.455H1526.98L1529.58 123.668H1529.71L1532.33 114.455H1536.01L1531.14 128.356C1530.9 129.031 1530.58 129.619 1530.18 130.12C1529.78 130.626 1529.28 131.016 1528.67 131.288C1528.06 131.566 1527.32 131.705 1526.46 131.705ZM1543.11 127.245C1541.82 127.245 1540.7 126.984 1539.77 126.461C1538.85 125.933 1538.13 125.187 1537.63 124.223C1537.13 123.254 1536.88 122.108 1536.88 120.784C1536.88 119.494 1537.13 118.361 1537.63 117.387C1538.13 116.412 1538.84 115.652 1539.75 115.108C1540.66 114.563 1541.74 114.291 1542.97 114.291C1543.79 114.291 1544.57 114.425 1545.28 114.691C1546 114.953 1546.62 115.348 1547.16 115.876C1547.7 116.404 1548.12 117.068 1548.41 117.869C1548.71 118.664 1548.86 119.595 1548.86 120.662V121.618H1538.27V119.461H1545.59C1545.59 118.96 1545.48 118.517 1545.26 118.13C1545.04 117.743 1544.74 117.441 1544.36 117.223C1543.97 117 1543.53 116.888 1543.02 116.888C1542.5 116.888 1542.03 117.011 1541.62 117.256C1541.22 117.496 1540.9 117.82 1540.67 118.228C1540.44 118.631 1540.33 119.08 1540.32 119.576V121.626C1540.32 122.246 1540.44 122.783 1540.66 123.235C1540.9 123.687 1541.23 124.035 1541.65 124.28C1542.08 124.525 1542.58 124.648 1543.16 124.648C1543.55 124.648 1543.9 124.593 1544.22 124.484C1544.55 124.375 1544.82 124.212 1545.05 123.994C1545.28 123.777 1545.45 123.51 1545.57 123.194L1548.79 123.406C1548.63 124.179 1548.29 124.855 1547.79 125.432C1547.28 126.004 1546.64 126.45 1545.84 126.771C1545.05 127.087 1544.14 127.245 1543.11 127.245ZM1554.71 127.237C1553.91 127.237 1553.2 127.098 1552.57 126.82C1551.95 126.537 1551.45 126.121 1551.09 125.571C1550.73 125.015 1550.55 124.324 1550.55 123.496C1550.55 122.799 1550.67 122.214 1550.93 121.74C1551.19 121.266 1551.53 120.885 1551.98 120.597C1552.42 120.308 1552.92 120.09 1553.48 119.943C1554.04 119.796 1554.64 119.693 1555.26 119.633C1555.99 119.557 1556.58 119.486 1557.02 119.42C1557.47 119.35 1557.79 119.246 1558 119.11C1558.2 118.974 1558.3 118.772 1558.3 118.506V118.457C1558.3 117.939 1558.13 117.539 1557.81 117.256C1557.49 116.973 1557.03 116.831 1556.44 116.831C1555.81 116.831 1555.31 116.97 1554.94 117.248C1554.57 117.52 1554.33 117.863 1554.21 118.277L1550.99 118.016C1551.15 117.253 1551.47 116.594 1551.95 116.039C1552.43 115.478 1553.05 115.048 1553.81 114.749C1554.57 114.444 1555.45 114.291 1556.45 114.291C1557.15 114.291 1557.82 114.373 1558.45 114.536C1559.1 114.7 1559.66 114.953 1560.16 115.296C1560.66 115.639 1561.06 116.08 1561.34 116.619C1561.63 117.153 1561.78 117.792 1561.78 118.538V127H1558.48V125.26H1558.38C1558.18 125.652 1557.91 125.998 1557.57 126.298C1557.23 126.592 1556.83 126.823 1556.35 126.992C1555.88 127.155 1555.33 127.237 1554.71 127.237ZM1555.71 124.836C1556.22 124.836 1556.67 124.735 1557.06 124.533C1557.46 124.326 1557.76 124.049 1557.99 123.7C1558.21 123.352 1558.32 122.957 1558.32 122.516V121.185C1558.21 121.255 1558.06 121.321 1557.87 121.381C1557.69 121.435 1557.48 121.487 1557.24 121.536C1557.01 121.579 1556.78 121.62 1556.54 121.658C1556.31 121.691 1556.1 121.721 1555.9 121.748C1555.5 121.808 1555.14 121.903 1554.83 122.034C1554.53 122.165 1554.29 122.342 1554.12 122.565C1553.96 122.783 1553.87 123.055 1553.87 123.382C1553.87 123.855 1554.04 124.218 1554.39 124.468C1554.73 124.713 1555.17 124.836 1555.71 124.836ZM1564.48 127V114.455H1567.85V116.643H1567.98C1568.21 115.865 1568.59 115.277 1569.13 114.879C1569.67 114.476 1570.29 114.275 1570.99 114.275C1571.17 114.275 1571.36 114.286 1571.56 114.308C1571.76 114.329 1571.94 114.359 1572.09 114.397V117.485C1571.93 117.436 1571.7 117.392 1571.41 117.354C1571.12 117.316 1570.86 117.297 1570.62 117.297C1570.11 117.297 1569.65 117.408 1569.25 117.632C1568.85 117.85 1568.53 118.154 1568.3 118.547C1568.07 118.939 1567.96 119.391 1567.96 119.902V127H1564.48ZM1584.33 118.032L1581.14 118.228C1581.09 117.956 1580.97 117.711 1580.79 117.493C1580.61 117.27 1580.37 117.093 1580.08 116.962C1579.79 116.826 1579.44 116.758 1579.04 116.758C1578.5 116.758 1578.05 116.872 1577.68 117.101C1577.31 117.324 1577.12 117.624 1577.12 117.999C1577.12 118.299 1577.24 118.552 1577.48 118.759C1577.72 118.966 1578.13 119.132 1578.71 119.257L1580.99 119.714C1582.2 119.965 1583.11 120.368 1583.71 120.923C1584.31 121.479 1584.61 122.208 1584.61 123.112C1584.61 123.934 1584.37 124.656 1583.88 125.277C1583.41 125.897 1582.75 126.382 1581.91 126.73C1581.08 127.074 1580.11 127.245 1579.02 127.245C1577.36 127.245 1576.04 126.899 1575.06 126.208C1574.08 125.511 1573.5 124.563 1573.33 123.365L1576.75 123.186C1576.86 123.692 1577.11 124.079 1577.51 124.346C1577.9 124.607 1578.41 124.738 1579.03 124.738C1579.64 124.738 1580.13 124.621 1580.5 124.386C1580.88 124.147 1581.07 123.839 1581.08 123.463C1581.07 123.148 1580.94 122.889 1580.67 122.688C1580.41 122.481 1580.01 122.323 1579.47 122.214L1577.29 121.781C1576.07 121.536 1575.16 121.111 1574.56 120.507C1573.96 119.902 1573.67 119.132 1573.67 118.195C1573.67 117.389 1573.88 116.695 1574.32 116.113C1574.76 115.53 1575.38 115.081 1576.17 114.765C1576.97 114.449 1577.91 114.291 1578.98 114.291C1580.57 114.291 1581.82 114.626 1582.72 115.296C1583.64 115.966 1584.17 116.878 1584.33 118.032Z" fill="black"/>
</g>
<path d="M789 16H1419" stroke="white" stroke-width="30" stroke-linecap="round"/>
<path d="M40 16H1418" stroke="#81C2E7" stroke-width="20" stroke-linecap="round"/>
<path d="M16 16H646" stroke="white" stroke-width="32" stroke-linecap="round"/>
<path d="M40 16H646" stroke="#2D86D8" stroke-width="20" stroke-linecap="round"/>
<g filter="url(#filter1_d_77_107)">
<path d="M1580.5 53L1580 92.9401" stroke="black" stroke-width="2" stroke-linecap="round"/>
</g>
<defs>
<filter id="filter0_d_77_107" x="1485.74" y="110.036" width="100.874" height="25.6689" filterUnits="userSpaceOnUse" color-interpolation-filters="sRGB">
<feFlood flood-opacity="0" result="BackgroundImageFix"/>
<feColorMatrix in="SourceAlpha" type="matrix" values="0 0 0 0 0 0 0 0 0 0 0 0 0 0 0 0 0 0 127 0" result="hardAlpha"/>
<feOffset dy="2"/>
<feGaussianBlur stdDeviation="1"/>
<feComposite in2="hardAlpha" operator="out"/>
<feColorMatrix type="matrix" values="0 0 0 0 0 0 0 0 0 0 0 0 0 0 0 0 0 0 0.15 0"/>
<feBlend mode="normal" in2="BackgroundImageFix" result="effect1_dropShadow_77_107"/>
<feBlend mode="normal" in="SourceGraphic" in2="effect1_dropShadow_77_107" result="shape"/>
</filter>
<filter id="filter1_d_77_107" x="1575" y="52" width="10.5" height="49.9399" filterUnits="userSpaceOnUse" color-interpolation-filters="sRGB">
<feFlood flood-opacity="0" result="BackgroundImageFix"/>
<feColorMatrix in="SourceAlpha" type="matrix" values="0 0 0 0 0 0 0 0 0 0 0 0 0 0 0 0 0 0 127 0" result="hardAlpha"/>
<feOffset dy="4"/>
<feGaussianBlur stdDeviation="2"/>
<feComposite in2="hardAlpha" operator="out"/>
<feColorMatrix type="matrix" values="0 0 0 0 0 0 0 0 0 0 0 0 0 0 0 0 0 0 0.25 0"/>
<feBlend mode="normal" in2="BackgroundImageFix" result="effect1_dropShadow_77_107"/>
<feBlend mode="normal" in="SourceGraphic" in2="effect1_dropShadow_77_107" result="shape"/>
</filter>
</defs>
</svg>
