<svg width="411" height="89" viewBox="0 0 411 89" fill="none" xmlns="http://www.w3.org/2000/svg">
<path d="M394.217 74.9418C394.778 74.9418 395.317 75.0359 395.836 75.2241C396.358 75.4123 396.823 75.7124 397.231 76.1243C397.643 76.5362 397.968 77.0831 398.206 77.7649C398.448 78.4432 398.57 79.2759 398.574 80.2631C398.574 81.19 398.469 82.0174 398.26 82.7454C398.054 83.4698 397.757 84.0859 397.37 84.5938C396.983 85.1016 396.516 85.4886 395.969 85.755C395.422 86.0178 394.811 86.1491 394.137 86.1491C393.409 86.1491 392.766 86.0089 392.208 85.7283C391.651 85.4442 391.202 85.0589 390.861 84.5724C390.523 84.0824 390.319 83.532 390.248 82.9212H392.523C392.611 83.3189 392.798 83.6278 393.082 83.848C393.366 84.0646 393.718 84.1729 394.137 84.1729C394.847 84.1729 395.387 83.864 395.756 83.2461C396.125 82.6246 396.312 81.7741 396.315 80.6946H396.241C396.077 81.0142 395.857 81.2894 395.58 81.5202C395.303 81.7475 394.985 81.9233 394.627 82.0476C394.272 82.1719 393.893 82.234 393.492 82.234C392.849 82.234 392.276 82.0831 391.772 81.7812C391.267 81.4794 390.87 81.0639 390.578 80.5348C390.287 80.0057 390.142 79.402 390.142 78.7237C390.138 77.9922 390.307 77.3406 390.648 76.7688C390.989 76.1971 391.464 75.7496 392.075 75.4265C392.69 75.0998 393.403 74.9382 394.217 74.9418ZM394.233 76.7528C393.874 76.7528 393.554 76.8381 393.274 77.0085C392.997 77.179 392.777 77.408 392.613 77.6957C392.453 77.9833 392.375 78.3047 392.379 78.6598C392.379 79.0185 392.457 79.3416 392.613 79.6293C392.773 79.9134 392.99 80.1406 393.263 80.3111C393.54 80.478 393.856 80.5614 394.211 80.5614C394.478 80.5614 394.724 80.5117 394.952 80.4123C395.179 80.3129 395.376 80.1761 395.543 80.0021C395.713 79.8246 395.847 79.6204 395.942 79.3896C396.038 79.1587 396.086 78.9137 396.086 78.6545C396.083 78.31 396.001 77.994 395.841 77.7063C395.681 77.4187 395.461 77.1879 395.181 77.0138C394.9 76.8398 394.584 76.7528 394.233 76.7528ZM404.449 86.2397C403.533 86.2362 402.745 86.0107 402.084 85.5632C401.427 85.1158 400.921 84.4677 400.566 83.619C400.214 82.7702 400.04 81.7493 400.044 80.5561C400.044 79.3665 400.22 78.3526 400.571 77.5146C400.926 76.6765 401.432 76.0391 402.089 75.6023C402.75 75.1619 403.537 74.9418 404.449 74.9418C405.362 74.9418 406.147 75.1619 406.804 75.6023C407.464 76.0426 407.972 76.6818 408.327 77.5199C408.682 78.3544 408.858 79.3665 408.854 80.5561C408.854 81.7528 408.677 82.7756 408.322 83.6243C407.97 84.473 407.466 85.1211 406.809 85.5685C406.152 86.016 405.365 86.2397 404.449 86.2397ZM404.449 84.3274C405.074 84.3274 405.573 84.0131 405.946 83.3846C406.319 82.756 406.504 81.8132 406.5 80.5561C406.5 79.7287 406.415 79.0398 406.244 78.4893C406.077 77.9389 405.839 77.5252 405.53 77.2482C405.225 76.9712 404.865 76.8327 404.449 76.8327C403.828 76.8327 403.331 77.1435 402.958 77.7649C402.585 78.3864 402.397 79.3168 402.393 80.5561C402.393 81.3942 402.477 82.0938 402.643 82.6548C402.814 83.2124 403.054 83.6314 403.363 83.9119C403.671 84.1889 404.034 84.3274 404.449 84.3274Z" fill="black"/>
<path d="M316.536 86L321.058 77.0511V76.9766H315.79V75.0909H323.445V77.0032L318.917 86H316.536ZM328.809 86.1491C328.013 86.1491 327.305 86.0124 326.683 85.739C326.065 85.462 325.577 85.082 325.218 84.5991C324.863 84.1126 324.68 83.5515 324.67 82.9158H326.992C327.006 83.1822 327.093 83.4165 327.253 83.619C327.417 83.8178 327.633 83.9723 327.903 84.0824C328.173 84.1925 328.477 84.2475 328.814 84.2475C329.166 84.2475 329.476 84.1854 329.746 84.0611C330.016 83.9368 330.227 83.7646 330.38 83.5444C330.533 83.3242 330.609 83.0703 330.609 82.7827C330.609 82.4915 330.527 82.234 330.364 82.0103C330.204 81.783 329.973 81.6055 329.672 81.4776C329.373 81.3498 329.018 81.2859 328.606 81.2859H327.589V79.592H328.606C328.954 79.592 329.261 79.5316 329.528 79.4109C329.798 79.2901 330.007 79.1232 330.156 78.9102C330.305 78.6935 330.38 78.4414 330.38 78.1538C330.38 77.8803 330.314 77.6406 330.183 77.4347C330.055 77.2251 329.874 77.0618 329.64 76.9446C329.409 76.8274 329.139 76.7688 328.83 76.7688C328.517 76.7688 328.232 76.8256 327.972 76.9393C327.713 77.0494 327.505 77.2074 327.349 77.4134C327.193 77.6193 327.109 77.8608 327.099 78.1378H324.888C324.899 77.5092 325.078 76.9553 325.426 76.4759C325.774 75.9964 326.243 75.6218 326.832 75.3519C327.425 75.0785 328.095 74.9418 328.841 74.9418C329.593 74.9418 330.252 75.0785 330.817 75.3519C331.381 75.6254 331.82 75.9947 332.133 76.4599C332.449 76.9215 332.605 77.44 332.601 78.0153C332.605 78.6261 332.415 79.1357 332.031 79.544C331.651 79.9524 331.156 80.2116 330.545 80.3217V80.407C331.348 80.5099 331.958 80.7887 332.378 81.2433C332.8 81.6942 333.01 82.2589 333.006 82.9371C333.01 83.5586 332.83 84.1108 332.468 84.5938C332.109 85.0767 331.614 85.4567 330.982 85.7337C330.35 86.0107 329.625 86.1491 328.809 86.1491Z" fill="black"/>
<path d="M133.803 86.1491C133.008 86.1491 132.299 86.0124 131.678 85.739C131.06 85.462 130.572 85.082 130.213 84.5991C129.858 84.1126 129.675 83.5515 129.664 82.9158H131.987C132.001 83.1822 132.088 83.4165 132.248 83.619C132.411 83.8178 132.628 83.9723 132.898 84.0824C133.168 84.1925 133.471 84.2475 133.809 84.2475C134.16 84.2475 134.471 84.1854 134.741 84.0611C135.011 83.9368 135.222 83.7646 135.375 83.5444C135.527 83.3242 135.604 83.0703 135.604 82.7827C135.604 82.4915 135.522 82.234 135.359 82.0103C135.199 81.783 134.968 81.6055 134.666 81.4776C134.368 81.3498 134.013 81.2859 133.601 81.2859H132.583V79.592H133.601C133.949 79.592 134.256 79.5316 134.522 79.4109C134.792 79.2901 135.002 79.1232 135.151 78.9102C135.3 78.6935 135.375 78.4414 135.375 78.1538C135.375 77.8803 135.309 77.6406 135.178 77.4347C135.05 77.2251 134.869 77.0618 134.634 76.9446C134.403 76.8274 134.134 76.7688 133.825 76.7688C133.512 76.7688 133.226 76.8256 132.967 76.9393C132.708 77.0494 132.5 77.2074 132.344 77.4134C132.188 77.6193 132.104 77.8608 132.093 78.1378H129.883C129.893 77.5092 130.073 76.9553 130.421 76.4759C130.769 75.9964 131.238 75.6218 131.827 75.3519C132.42 75.0785 133.089 74.9418 133.835 74.9418C134.588 74.9418 135.247 75.0785 135.811 75.3519C136.376 75.6254 136.815 75.9947 137.127 76.4599C137.443 76.9215 137.599 77.44 137.596 78.0153C137.599 78.6261 137.409 79.1357 137.026 79.544C136.646 79.9524 136.151 80.2116 135.54 80.3217V80.407C136.342 80.5099 136.953 80.7887 137.372 81.2433C137.795 81.6942 138.004 82.2589 138.001 82.9371C138.004 83.5586 137.825 84.1108 137.463 84.5938C137.104 85.0767 136.609 85.4567 135.977 85.7337C135.344 86.0107 134.62 86.1491 133.803 86.1491ZM144.405 75.0909V86H142.098V77.2802H142.034L139.536 78.8462V76.8008L142.237 75.0909H144.405Z" fill="black"/>
<path d="M6 8H404" stroke="#CEEBF8" stroke-width="9" stroke-linecap="round"/>
<path d="M221 8H329" stroke="white" stroke-width="15" stroke-linecap="round"/>
<path d="M5 8H329.444" stroke="#81C2E7" stroke-width="9" stroke-linecap="round"/>
<path d="M25 8H141" stroke="white" stroke-width="15" stroke-linecap="round"/>
<path d="M5 8H141" stroke="#2D86D8" stroke-width="9" stroke-linecap="round"/>
<path d="M407.339 20L407 69.9989" stroke="black" stroke-linecap="round"/>
<path d="M332.339 20L332 69.9989" stroke="black" stroke-linecap="round"/>
<path d="M143.727 20L143.388 69.9989" stroke="black" stroke-linecap="round"/>
</svg>
